<?xml version="1.0" encoding="utf-8" standalone="no"?>
<!DOCTYPE svg PUBLIC "-//W3C//DTD SVG 1.1//EN"
  "http://www.w3.org/Graphics/SVG/1.1/DTD/svg11.dtd">
<svg xmlns:xlink="http://www.w3.org/1999/xlink" width="648pt" height="374.4pt" viewBox="0 0 648 374.4" xmlns="http://www.w3.org/2000/svg" version="1.1">
 <metadata>
  <rdf:RDF xmlns:dc="http://purl.org/dc/elements/1.1/" xmlns:cc="http://creativecommons.org/ns#" xmlns:rdf="http://www.w3.org/1999/02/22-rdf-syntax-ns#">
   <cc:Work>
    <dc:type rdf:resource="http://purl.org/dc/dcmitype/StillImage"/>
    <dc:date>2026-07-23T16:44:37.760543</dc:date>
    <dc:format>image/svg+xml</dc:format>
    <dc:creator>
     <cc:Agent>
      <dc:title>Matplotlib v3.9.4, https://matplotlib.org/</dc:title>
     </cc:Agent>
    </dc:creator>
   </cc:Work>
  </rdf:RDF>
 </metadata>
 <defs>
  <style type="text/css">*{stroke-linejoin: round; stroke-linecap: butt}</style>
 </defs>
 <g id="figure_1">
  <g id="patch_1">
   <path d="M 0 374.4
L 648 374.4
L 648 0
L 0 0
z
" style="fill: #ffffff"/>
  </g>
  <g id="axes_1">
   <g id="patch_2">
    <path d="M 48.612154 304.772124
L 637.2 304.772124
L 637.2 10.8
L 48.612154 10.8
z
" style="fill: #ffffff"/>
   </g>
   <g id="patch_3">
    <path d="M 75.366147 304.772124
L 109.042501 304.772124
L 109.042501 205.927981
L 75.366147 205.927981
z
" clip-path="url(#pbac6f8fb96)" style="fill: #4472c4; stroke: #000000; stroke-linejoin: miter"/>
   </g>
   <g id="patch_4">
    <path d="M 168.911577 304.772124
L 202.587932 304.772124
L 202.587932 189.212624
L 168.911577 189.212624
z
" clip-path="url(#pbac6f8fb96)" style="fill: #4472c4; stroke: #000000; stroke-linejoin: miter"/>
   </g>
   <g id="patch_5">
    <path d="M 262.457007 304.772124
L 296.133362 304.772124
L 296.133362 180.166652
L 262.457007 180.166652
z
" clip-path="url(#pbac6f8fb96)" style="fill: #4472c4; stroke: #000000; stroke-linejoin: miter"/>
   </g>
   <g id="patch_6">
    <path d="M 356.002437 304.772124
L 389.678792 304.772124
L 389.678792 180.144778
L 356.002437 180.144778
z
" clip-path="url(#pbac6f8fb96)" style="fill: #4472c4; stroke: #000000; stroke-linejoin: miter"/>
   </g>
   <g id="patch_7">
    <path d="M 449.547867 304.772124
L 483.224222 304.772124
L 483.224222 189.751649
L 449.547867 189.751649
z
" clip-path="url(#pbac6f8fb96)" style="fill: #4472c4; stroke: #000000; stroke-linejoin: miter"/>
   </g>
   <g id="patch_8">
    <path d="M 543.093297 304.772124
L 576.769652 304.772124
L 576.769652 179.671486
L 543.093297 179.671486
z
" clip-path="url(#pbac6f8fb96)" style="fill: #4472c4; stroke: #000000; stroke-linejoin: miter"/>
   </g>
   <g id="patch_9">
    <path d="M 109.042501 304.772124
L 142.718856 304.772124
L 142.718856 66.752969
L 109.042501 66.752969
z
" clip-path="url(#pbac6f8fb96)" style="fill: #70ad47; stroke: #000000; stroke-linejoin: miter"/>
   </g>
   <g id="patch_10">
    <path d="M 202.587932 304.772124
L 236.264286 304.772124
L 236.264286 48.974698
L 202.587932 48.974698
z
" clip-path="url(#pbac6f8fb96)" style="fill: #70ad47; stroke: #000000; stroke-linejoin: miter"/>
   </g>
   <g id="patch_11">
    <path d="M 296.133362 304.772124
L 329.809717 304.772124
L 329.809717 44.978082
L 296.133362 44.978082
z
" clip-path="url(#pbac6f8fb96)" style="fill: #70ad47; stroke: #000000; stroke-linejoin: miter"/>
   </g>
   <g id="patch_12">
    <path d="M 389.678792 304.772124
L 423.355147 304.772124
L 423.355147 45.459544
L 389.678792 45.459544
z
" clip-path="url(#pbac6f8fb96)" style="fill: #70ad47; stroke: #000000; stroke-linejoin: miter"/>
   </g>
   <g id="patch_13">
    <path d="M 483.224222 304.772124
L 516.900577 304.772124
L 516.900577 50.711231
L 483.224222 50.711231
z
" clip-path="url(#pbac6f8fb96)" style="fill: #70ad47; stroke: #000000; stroke-linejoin: miter"/>
   </g>
   <g id="patch_14">
    <path d="M 576.769652 304.772124
L 610.446007 304.772124
L 610.446007 45.963652
L 576.769652 45.963652
z
" clip-path="url(#pbac6f8fb96)" style="fill: #70ad47; stroke: #000000; stroke-linejoin: miter"/>
   </g>
   <g id="matplotlib.axis_1">
    <g id="xtick_1">
     <g id="line2d_1">
      <defs>
       <path id="m01373fcf91" d="M 0 0
L 0 3.5
" style="stroke: #000000; stroke-width: 0.8"/>
      </defs>
      <g>
       <use xlink:href="#m01373fcf91" x="109.042501" y="304.772124" style="stroke: #000000; stroke-width: 0.8"/>
      </g>
     </g>
     <g id="text_1">
      <!-- RIME-common-init -->
      <g transform="translate(22.415404 350.183114) rotate(-20) scale(0.1 -0.1)">
       <defs>
        <path id="DejaVuSans-52" d="M 2841 2188
Q 3044 2119 3236 1894
Q 3428 1669 3622 1275
L 4263 0
L 3584 0
L 2988 1197
Q 2756 1666 2539 1819
Q 2322 1972 1947 1972
L 1259 1972
L 1259 0
L 628 0
L 628 4666
L 2053 4666
Q 2853 4666 3247 4331
Q 3641 3997 3641 3322
Q 3641 2881 3436 2590
Q 3231 2300 2841 2188
z
M 1259 4147
L 1259 2491
L 2053 2491
Q 2509 2491 2742 2702
Q 2975 2913 2975 3322
Q 2975 3731 2742 3939
Q 2509 4147 2053 4147
L 1259 4147
z
" transform="scale(0.015625)"/>
        <path id="DejaVuSans-49" d="M 628 4666
L 1259 4666
L 1259 0
L 628 0
L 628 4666
z
" transform="scale(0.015625)"/>
        <path id="DejaVuSans-4d" d="M 628 4666
L 1569 4666
L 2759 1491
L 3956 4666
L 4897 4666
L 4897 0
L 4281 0
L 4281 4097
L 3078 897
L 2444 897
L 1241 4097
L 1241 0
L 628 0
L 628 4666
z
" transform="scale(0.015625)"/>
        <path id="DejaVuSans-45" d="M 628 4666
L 3578 4666
L 3578 4134
L 1259 4134
L 1259 2753
L 3481 2753
L 3481 2222
L 1259 2222
L 1259 531
L 3634 531
L 3634 0
L 628 0
L 628 4666
z
" transform="scale(0.015625)"/>
        <path id="DejaVuSans-2d" d="M 313 2009
L 1997 2009
L 1997 1497
L 313 1497
L 313 2009
z
" transform="scale(0.015625)"/>
        <path id="DejaVuSans-63" d="M 3122 3366
L 3122 2828
Q 2878 2963 2633 3030
Q 2388 3097 2138 3097
Q 1578 3097 1268 2742
Q 959 2388 959 1747
Q 959 1106 1268 751
Q 1578 397 2138 397
Q 2388 397 2633 464
Q 2878 531 3122 666
L 3122 134
Q 2881 22 2623 -34
Q 2366 -91 2075 -91
Q 1284 -91 818 406
Q 353 903 353 1747
Q 353 2603 823 3093
Q 1294 3584 2113 3584
Q 2378 3584 2631 3529
Q 2884 3475 3122 3366
z
" transform="scale(0.015625)"/>
        <path id="DejaVuSans-6f" d="M 1959 3097
Q 1497 3097 1228 2736
Q 959 2375 959 1747
Q 959 1119 1226 758
Q 1494 397 1959 397
Q 2419 397 2687 759
Q 2956 1122 2956 1747
Q 2956 2369 2687 2733
Q 2419 3097 1959 3097
z
M 1959 3584
Q 2709 3584 3137 3096
Q 3566 2609 3566 1747
Q 3566 888 3137 398
Q 2709 -91 1959 -91
Q 1206 -91 779 398
Q 353 888 353 1747
Q 353 2609 779 3096
Q 1206 3584 1959 3584
z
" transform="scale(0.015625)"/>
        <path id="DejaVuSans-6d" d="M 3328 2828
Q 3544 3216 3844 3400
Q 4144 3584 4550 3584
Q 5097 3584 5394 3201
Q 5691 2819 5691 2113
L 5691 0
L 5113 0
L 5113 2094
Q 5113 2597 4934 2840
Q 4756 3084 4391 3084
Q 3944 3084 3684 2787
Q 3425 2491 3425 1978
L 3425 0
L 2847 0
L 2847 2094
Q 2847 2600 2669 2842
Q 2491 3084 2119 3084
Q 1678 3084 1418 2786
Q 1159 2488 1159 1978
L 1159 0
L 581 0
L 581 3500
L 1159 3500
L 1159 2956
Q 1356 3278 1631 3431
Q 1906 3584 2284 3584
Q 2666 3584 2933 3390
Q 3200 3197 3328 2828
z
" transform="scale(0.015625)"/>
        <path id="DejaVuSans-6e" d="M 3513 2113
L 3513 0
L 2938 0
L 2938 2094
Q 2938 2591 2744 2837
Q 2550 3084 2163 3084
Q 1697 3084 1428 2787
Q 1159 2491 1159 1978
L 1159 0
L 581 0
L 581 3500
L 1159 3500
L 1159 2956
Q 1366 3272 1645 3428
Q 1925 3584 2291 3584
Q 2894 3584 3203 3211
Q 3513 2838 3513 2113
z
" transform="scale(0.015625)"/>
        <path id="DejaVuSans-69" d="M 603 3500
L 1178 3500
L 1178 0
L 603 0
L 603 3500
z
M 603 4863
L 1178 4863
L 1178 4134
L 603 4134
L 603 4863
z
" transform="scale(0.015625)"/>
        <path id="DejaVuSans-74" d="M 1172 4494
L 1172 3500
L 2356 3500
L 2356 3053
L 1172 3053
L 1172 1153
Q 1172 725 1289 603
Q 1406 481 1766 481
L 2356 481
L 2356 0
L 1766 0
Q 1100 0 847 248
Q 594 497 594 1153
L 594 3053
L 172 3053
L 172 3500
L 594 3500
L 594 4494
L 1172 4494
z
" transform="scale(0.015625)"/>
       </defs>
       <use xlink:href="#DejaVuSans-52"/>
       <use xlink:href="#DejaVuSans-49" x="69.482422"/>
       <use xlink:href="#DejaVuSans-4d" x="98.974609"/>
       <use xlink:href="#DejaVuSans-45" x="185.253906"/>
       <use xlink:href="#DejaVuSans-2d" x="248.4375"/>
       <use xlink:href="#DejaVuSans-63" x="284.521484"/>
       <use xlink:href="#DejaVuSans-6f" x="339.501953"/>
       <use xlink:href="#DejaVuSans-6d" x="400.683594"/>
       <use xlink:href="#DejaVuSans-6d" x="498.095703"/>
       <use xlink:href="#DejaVuSans-6f" x="595.507812"/>
       <use xlink:href="#DejaVuSans-6e" x="656.689453"/>
       <use xlink:href="#DejaVuSans-2d" x="720.068359"/>
       <use xlink:href="#DejaVuSans-69" x="756.152344"/>
       <use xlink:href="#DejaVuSans-6e" x="783.935547"/>
       <use xlink:href="#DejaVuSans-69" x="847.314453"/>
       <use xlink:href="#DejaVuSans-74" x="875.097656"/>
      </g>
     </g>
    </g>
    <g id="xtick_2">
     <g id="line2d_2">
      <g>
       <use xlink:href="#m01373fcf91" x="202.587932" y="304.772124" style="stroke: #000000; stroke-width: 0.8"/>
      </g>
     </g>
     <g id="text_2">
      <!-- DBO-common-init -->
      <g transform="translate(118.133873 349.392193) rotate(-20) scale(0.1 -0.1)">
       <defs>
        <path id="DejaVuSans-44" d="M 1259 4147
L 1259 519
L 2022 519
Q 2988 519 3436 956
Q 3884 1394 3884 2338
Q 3884 3275 3436 3711
Q 2988 4147 2022 4147
L 1259 4147
z
M 628 4666
L 1925 4666
Q 3281 4666 3915 4102
Q 4550 3538 4550 2338
Q 4550 1131 3912 565
Q 3275 0 1925 0
L 628 0
L 628 4666
z
" transform="scale(0.015625)"/>
        <path id="DejaVuSans-42" d="M 1259 2228
L 1259 519
L 2272 519
Q 2781 519 3026 730
Q 3272 941 3272 1375
Q 3272 1813 3026 2020
Q 2781 2228 2272 2228
L 1259 2228
z
M 1259 4147
L 1259 2741
L 2194 2741
Q 2656 2741 2882 2914
Q 3109 3088 3109 3444
Q 3109 3797 2882 3972
Q 2656 4147 2194 4147
L 1259 4147
z
M 628 4666
L 2241 4666
Q 2963 4666 3353 4366
Q 3744 4066 3744 3513
Q 3744 3084 3544 2831
Q 3344 2578 2956 2516
Q 3422 2416 3680 2098
Q 3938 1781 3938 1306
Q 3938 681 3513 340
Q 3088 0 2303 0
L 628 0
L 628 4666
z
" transform="scale(0.015625)"/>
        <path id="DejaVuSans-4f" d="M 2522 4238
Q 1834 4238 1429 3725
Q 1025 3213 1025 2328
Q 1025 1447 1429 934
Q 1834 422 2522 422
Q 3209 422 3611 934
Q 4013 1447 4013 2328
Q 4013 3213 3611 3725
Q 3209 4238 2522 4238
z
M 2522 4750
Q 3503 4750 4090 4092
Q 4678 3434 4678 2328
Q 4678 1225 4090 567
Q 3503 -91 2522 -91
Q 1538 -91 948 565
Q 359 1222 359 2328
Q 359 3434 948 4092
Q 1538 4750 2522 4750
z
" transform="scale(0.015625)"/>
       </defs>
       <use xlink:href="#DejaVuSans-44"/>
       <use xlink:href="#DejaVuSans-42" x="77.001953"/>
       <use xlink:href="#DejaVuSans-4f" x="143.855469"/>
       <use xlink:href="#DejaVuSans-2d" x="225.316406"/>
       <use xlink:href="#DejaVuSans-63" x="261.400391"/>
       <use xlink:href="#DejaVuSans-6f" x="316.380859"/>
       <use xlink:href="#DejaVuSans-6d" x="377.5625"/>
       <use xlink:href="#DejaVuSans-6d" x="474.974609"/>
       <use xlink:href="#DejaVuSans-6f" x="572.386719"/>
       <use xlink:href="#DejaVuSans-6e" x="633.568359"/>
       <use xlink:href="#DejaVuSans-2d" x="696.947266"/>
       <use xlink:href="#DejaVuSans-69" x="733.03125"/>
       <use xlink:href="#DejaVuSans-6e" x="760.814453"/>
       <use xlink:href="#DejaVuSans-69" x="824.193359"/>
       <use xlink:href="#DejaVuSans-74" x="851.976562"/>
      </g>
     </g>
    </g>
    <g id="xtick_3">
     <g id="line2d_3">
      <g>
       <use xlink:href="#m01373fcf91" x="296.133362" y="304.772124" style="stroke: #000000; stroke-width: 0.8"/>
      </g>
     </g>
     <g id="text_3">
      <!-- RIME-common-init-refine -->
      <g transform="translate(179.026453 361.276858) rotate(-20) scale(0.1 -0.1)">
       <defs>
        <path id="DejaVuSans-72" d="M 2631 2963
Q 2534 3019 2420 3045
Q 2306 3072 2169 3072
Q 1681 3072 1420 2755
Q 1159 2438 1159 1844
L 1159 0
L 581 0
L 581 3500
L 1159 3500
L 1159 2956
Q 1341 3275 1631 3429
Q 1922 3584 2338 3584
Q 2397 3584 2469 3576
Q 2541 3569 2628 3553
L 2631 2963
z
" transform="scale(0.015625)"/>
        <path id="DejaVuSans-65" d="M 3597 1894
L 3597 1613
L 953 1613
Q 991 1019 1311 708
Q 1631 397 2203 397
Q 2534 397 2845 478
Q 3156 559 3463 722
L 3463 178
Q 3153 47 2828 -22
Q 2503 -91 2169 -91
Q 1331 -91 842 396
Q 353 884 353 1716
Q 353 2575 817 3079
Q 1281 3584 2069 3584
Q 2775 3584 3186 3129
Q 3597 2675 3597 1894
z
M 3022 2063
Q 3016 2534 2758 2815
Q 2500 3097 2075 3097
Q 1594 3097 1305 2825
Q 1016 2553 972 2059
L 3022 2063
z
" transform="scale(0.015625)"/>
        <path id="DejaVuSans-66" d="M 2375 4863
L 2375 4384
L 1825 4384
Q 1516 4384 1395 4259
Q 1275 4134 1275 3809
L 1275 3500
L 2222 3500
L 2222 3053
L 1275 3053
L 1275 0
L 697 0
L 697 3053
L 147 3053
L 147 3500
L 697 3500
L 697 3744
Q 697 4328 969 4595
Q 1241 4863 1831 4863
L 2375 4863
z
" transform="scale(0.015625)"/>
       </defs>
       <use xlink:href="#DejaVuSans-52"/>
       <use xlink:href="#DejaVuSans-49" x="69.482422"/>
       <use xlink:href="#DejaVuSans-4d" x="98.974609"/>
       <use xlink:href="#DejaVuSans-45" x="185.253906"/>
       <use xlink:href="#DejaVuSans-2d" x="248.4375"/>
       <use xlink:href="#DejaVuSans-63" x="284.521484"/>
       <use xlink:href="#DejaVuSans-6f" x="339.501953"/>
       <use xlink:href="#DejaVuSans-6d" x="400.683594"/>
       <use xlink:href="#DejaVuSans-6d" x="498.095703"/>
       <use xlink:href="#DejaVuSans-6f" x="595.507812"/>
       <use xlink:href="#DejaVuSans-6e" x="656.689453"/>
       <use xlink:href="#DejaVuSans-2d" x="720.068359"/>
       <use xlink:href="#DejaVuSans-69" x="756.152344"/>
       <use xlink:href="#DejaVuSans-6e" x="783.935547"/>
       <use xlink:href="#DejaVuSans-69" x="847.314453"/>
       <use xlink:href="#DejaVuSans-74" x="875.097656"/>
       <use xlink:href="#DejaVuSans-2d" x="914.306641"/>
       <use xlink:href="#DejaVuSans-72" x="950.390625"/>
       <use xlink:href="#DejaVuSans-65" x="989.253906"/>
       <use xlink:href="#DejaVuSans-66" x="1050.777344"/>
       <use xlink:href="#DejaVuSans-69" x="1085.982422"/>
       <use xlink:href="#DejaVuSans-6e" x="1113.765625"/>
       <use xlink:href="#DejaVuSans-65" x="1177.144531"/>
      </g>
     </g>
    </g>
    <g id="xtick_4">
     <g id="line2d_4">
      <g>
       <use xlink:href="#m01373fcf91" x="389.678792" y="304.772124" style="stroke: #000000; stroke-width: 0.8"/>
      </g>
     </g>
     <g id="text_4">
      <!-- DBO-common-init-refine -->
      <g transform="translate(274.744922 360.485937) rotate(-20) scale(0.1 -0.1)">
       <use xlink:href="#DejaVuSans-44"/>
       <use xlink:href="#DejaVuSans-42" x="77.001953"/>
       <use xlink:href="#DejaVuSans-4f" x="143.855469"/>
       <use xlink:href="#DejaVuSans-2d" x="225.316406"/>
       <use xlink:href="#DejaVuSans-63" x="261.400391"/>
       <use xlink:href="#DejaVuSans-6f" x="316.380859"/>
       <use xlink:href="#DejaVuSans-6d" x="377.5625"/>
       <use xlink:href="#DejaVuSans-6d" x="474.974609"/>
       <use xlink:href="#DejaVuSans-6f" x="572.386719"/>
       <use xlink:href="#DejaVuSans-6e" x="633.568359"/>
       <use xlink:href="#DejaVuSans-2d" x="696.947266"/>
       <use xlink:href="#DejaVuSans-69" x="733.03125"/>
       <use xlink:href="#DejaVuSans-6e" x="760.814453"/>
       <use xlink:href="#DejaVuSans-69" x="824.193359"/>
       <use xlink:href="#DejaVuSans-74" x="851.976562"/>
       <use xlink:href="#DejaVuSans-2d" x="891.185547"/>
       <use xlink:href="#DejaVuSans-72" x="927.269531"/>
       <use xlink:href="#DejaVuSans-65" x="966.132812"/>
       <use xlink:href="#DejaVuSans-66" x="1027.65625"/>
       <use xlink:href="#DejaVuSans-69" x="1062.861328"/>
       <use xlink:href="#DejaVuSans-6e" x="1090.644531"/>
       <use xlink:href="#DejaVuSans-65" x="1154.023438"/>
      </g>
     </g>
    </g>
    <g id="xtick_5">
     <g id="line2d_5">
      <g>
       <use xlink:href="#m01373fcf91" x="483.224222" y="304.772124" style="stroke: #000000; stroke-width: 0.8"/>
      </g>
     </g>
     <g id="text_5">
      <!-- RDHO-core -->
      <g transform="translate(430.285105 337.921692) rotate(-20) scale(0.1 -0.1)">
       <defs>
        <path id="DejaVuSans-48" d="M 628 4666
L 1259 4666
L 1259 2753
L 3553 2753
L 3553 4666
L 4184 4666
L 4184 0
L 3553 0
L 3553 2222
L 1259 2222
L 1259 0
L 628 0
L 628 4666
z
" transform="scale(0.015625)"/>
       </defs>
       <use xlink:href="#DejaVuSans-52"/>
       <use xlink:href="#DejaVuSans-44" x="69.482422"/>
       <use xlink:href="#DejaVuSans-48" x="146.484375"/>
       <use xlink:href="#DejaVuSans-4f" x="221.679688"/>
       <use xlink:href="#DejaVuSans-2d" x="303.140625"/>
       <use xlink:href="#DejaVuSans-63" x="339.224609"/>
       <use xlink:href="#DejaVuSans-6f" x="394.205078"/>
       <use xlink:href="#DejaVuSans-72" x="455.386719"/>
       <use xlink:href="#DejaVuSans-65" x="494.25"/>
      </g>
     </g>
    </g>
    <g id="xtick_6">
     <g id="line2d_6">
      <g>
       <use xlink:href="#m01373fcf91" x="576.769652" y="304.772124" style="stroke: #000000; stroke-width: 0.8"/>
      </g>
     </g>
     <g id="text_6">
      <!-- RDHO-full -->
      <g transform="translate(529.696272 335.786738) rotate(-20) scale(0.1 -0.1)">
       <defs>
        <path id="DejaVuSans-75" d="M 544 1381
L 544 3500
L 1119 3500
L 1119 1403
Q 1119 906 1312 657
Q 1506 409 1894 409
Q 2359 409 2629 706
Q 2900 1003 2900 1516
L 2900 3500
L 3475 3500
L 3475 0
L 2900 0
L 2900 538
Q 2691 219 2414 64
Q 2138 -91 1772 -91
Q 1169 -91 856 284
Q 544 659 544 1381
z
M 1991 3584
L 1991 3584
z
" transform="scale(0.015625)"/>
        <path id="DejaVuSans-6c" d="M 603 4863
L 1178 4863
L 1178 0
L 603 0
L 603 4863
z
" transform="scale(0.015625)"/>
       </defs>
       <use xlink:href="#DejaVuSans-52"/>
       <use xlink:href="#DejaVuSans-44" x="69.482422"/>
       <use xlink:href="#DejaVuSans-48" x="146.484375"/>
       <use xlink:href="#DejaVuSans-4f" x="221.679688"/>
       <use xlink:href="#DejaVuSans-2d" x="303.140625"/>
       <use xlink:href="#DejaVuSans-66" x="339.224609"/>
       <use xlink:href="#DejaVuSans-75" x="374.429688"/>
       <use xlink:href="#DejaVuSans-6c" x="437.808594"/>
       <use xlink:href="#DejaVuSans-6c" x="465.591797"/>
      </g>
     </g>
    </g>
   </g>
   <g id="matplotlib.axis_2">
    <g id="ytick_1">
     <g id="line2d_7">
      <path d="M 48.612154 304.772124
L 637.2 304.772124
" clip-path="url(#pbac6f8fb96)" style="fill: none; stroke: #b0b0b0; stroke-opacity: 0.25; stroke-width: 0.8; stroke-linecap: square"/>
     </g>
     <g id="line2d_8">
      <defs>
       <path id="m98c1dd8fdc" d="M 0 0
L -3.5 0
" style="stroke: #000000; stroke-width: 0.8"/>
      </defs>
      <g>
       <use xlink:href="#m98c1dd8fdc" x="48.612154" y="304.772124" style="stroke: #000000; stroke-width: 0.8"/>
      </g>
     </g>
     <g id="text_7">
      <!-- 0.0 -->
      <g transform="translate(25.709029 308.571343) scale(0.1 -0.1)">
       <defs>
        <path id="DejaVuSans-30" d="M 2034 4250
Q 1547 4250 1301 3770
Q 1056 3291 1056 2328
Q 1056 1369 1301 889
Q 1547 409 2034 409
Q 2525 409 2770 889
Q 3016 1369 3016 2328
Q 3016 3291 2770 3770
Q 2525 4250 2034 4250
z
M 2034 4750
Q 2819 4750 3233 4129
Q 3647 3509 3647 2328
Q 3647 1150 3233 529
Q 2819 -91 2034 -91
Q 1250 -91 836 529
Q 422 1150 422 2328
Q 422 3509 836 4129
Q 1250 4750 2034 4750
z
" transform="scale(0.015625)"/>
        <path id="DejaVuSans-2e" d="M 684 794
L 1344 794
L 1344 0
L 684 0
L 684 794
z
" transform="scale(0.015625)"/>
       </defs>
       <use xlink:href="#DejaVuSans-30"/>
       <use xlink:href="#DejaVuSans-2e" x="63.623047"/>
       <use xlink:href="#DejaVuSans-30" x="95.410156"/>
      </g>
     </g>
    </g>
    <g id="ytick_2">
     <g id="line2d_9">
      <path d="M 48.612154 248.777434
L 637.2 248.777434
" clip-path="url(#pbac6f8fb96)" style="fill: none; stroke: #b0b0b0; stroke-opacity: 0.25; stroke-width: 0.8; stroke-linecap: square"/>
     </g>
     <g id="line2d_10">
      <g>
       <use xlink:href="#m98c1dd8fdc" x="48.612154" y="248.777434" style="stroke: #000000; stroke-width: 0.8"/>
      </g>
     </g>
     <g id="text_8">
      <!-- 0.2 -->
      <g transform="translate(25.709029 252.576652) scale(0.1 -0.1)">
       <defs>
        <path id="DejaVuSans-32" d="M 1228 531
L 3431 531
L 3431 0
L 469 0
L 469 531
Q 828 903 1448 1529
Q 2069 2156 2228 2338
Q 2531 2678 2651 2914
Q 2772 3150 2772 3378
Q 2772 3750 2511 3984
Q 2250 4219 1831 4219
Q 1534 4219 1204 4116
Q 875 4013 500 3803
L 500 4441
Q 881 4594 1212 4672
Q 1544 4750 1819 4750
Q 2544 4750 2975 4387
Q 3406 4025 3406 3419
Q 3406 3131 3298 2873
Q 3191 2616 2906 2266
Q 2828 2175 2409 1742
Q 1991 1309 1228 531
z
" transform="scale(0.015625)"/>
       </defs>
       <use xlink:href="#DejaVuSans-30"/>
       <use xlink:href="#DejaVuSans-2e" x="63.623047"/>
       <use xlink:href="#DejaVuSans-32" x="95.410156"/>
      </g>
     </g>
    </g>
    <g id="ytick_3">
     <g id="line2d_11">
      <path d="M 48.612154 192.782743
L 637.2 192.782743
" clip-path="url(#pbac6f8fb96)" style="fill: none; stroke: #b0b0b0; stroke-opacity: 0.25; stroke-width: 0.8; stroke-linecap: square"/>
     </g>
     <g id="line2d_12">
      <g>
       <use xlink:href="#m98c1dd8fdc" x="48.612154" y="192.782743" style="stroke: #000000; stroke-width: 0.8"/>
      </g>
     </g>
     <g id="text_9">
      <!-- 0.4 -->
      <g transform="translate(25.709029 196.581962) scale(0.1 -0.1)">
       <defs>
        <path id="DejaVuSans-34" d="M 2419 4116
L 825 1625
L 2419 1625
L 2419 4116
z
M 2253 4666
L 3047 4666
L 3047 1625
L 3713 1625
L 3713 1100
L 3047 1100
L 3047 0
L 2419 0
L 2419 1100
L 313 1100
L 313 1709
L 2253 4666
z
" transform="scale(0.015625)"/>
       </defs>
       <use xlink:href="#DejaVuSans-30"/>
       <use xlink:href="#DejaVuSans-2e" x="63.623047"/>
       <use xlink:href="#DejaVuSans-34" x="95.410156"/>
      </g>
     </g>
    </g>
    <g id="ytick_4">
     <g id="line2d_13">
      <path d="M 48.612154 136.788053
L 637.2 136.788053
" clip-path="url(#pbac6f8fb96)" style="fill: none; stroke: #b0b0b0; stroke-opacity: 0.25; stroke-width: 0.8; stroke-linecap: square"/>
     </g>
     <g id="line2d_14">
      <g>
       <use xlink:href="#m98c1dd8fdc" x="48.612154" y="136.788053" style="stroke: #000000; stroke-width: 0.8"/>
      </g>
     </g>
     <g id="text_10">
      <!-- 0.6 -->
      <g transform="translate(25.709029 140.587272) scale(0.1 -0.1)">
       <defs>
        <path id="DejaVuSans-36" d="M 2113 2584
Q 1688 2584 1439 2293
Q 1191 2003 1191 1497
Q 1191 994 1439 701
Q 1688 409 2113 409
Q 2538 409 2786 701
Q 3034 994 3034 1497
Q 3034 2003 2786 2293
Q 2538 2584 2113 2584
z
M 3366 4563
L 3366 3988
Q 3128 4100 2886 4159
Q 2644 4219 2406 4219
Q 1781 4219 1451 3797
Q 1122 3375 1075 2522
Q 1259 2794 1537 2939
Q 1816 3084 2150 3084
Q 2853 3084 3261 2657
Q 3669 2231 3669 1497
Q 3669 778 3244 343
Q 2819 -91 2113 -91
Q 1303 -91 875 529
Q 447 1150 447 2328
Q 447 3434 972 4092
Q 1497 4750 2381 4750
Q 2619 4750 2861 4703
Q 3103 4656 3366 4563
z
" transform="scale(0.015625)"/>
       </defs>
       <use xlink:href="#DejaVuSans-30"/>
       <use xlink:href="#DejaVuSans-2e" x="63.623047"/>
       <use xlink:href="#DejaVuSans-36" x="95.410156"/>
      </g>
     </g>
    </g>
    <g id="ytick_5">
     <g id="line2d_15">
      <path d="M 48.612154 80.793363
L 637.2 80.793363
" clip-path="url(#pbac6f8fb96)" style="fill: none; stroke: #b0b0b0; stroke-opacity: 0.25; stroke-width: 0.8; stroke-linecap: square"/>
     </g>
     <g id="line2d_16">
      <g>
       <use xlink:href="#m98c1dd8fdc" x="48.612154" y="80.793363" style="stroke: #000000; stroke-width: 0.8"/>
      </g>
     </g>
     <g id="text_11">
      <!-- 0.8 -->
      <g transform="translate(25.709029 84.592582) scale(0.1 -0.1)">
       <defs>
        <path id="DejaVuSans-38" d="M 2034 2216
Q 1584 2216 1326 1975
Q 1069 1734 1069 1313
Q 1069 891 1326 650
Q 1584 409 2034 409
Q 2484 409 2743 651
Q 3003 894 3003 1313
Q 3003 1734 2745 1975
Q 2488 2216 2034 2216
z
M 1403 2484
Q 997 2584 770 2862
Q 544 3141 544 3541
Q 544 4100 942 4425
Q 1341 4750 2034 4750
Q 2731 4750 3128 4425
Q 3525 4100 3525 3541
Q 3525 3141 3298 2862
Q 3072 2584 2669 2484
Q 3125 2378 3379 2068
Q 3634 1759 3634 1313
Q 3634 634 3220 271
Q 2806 -91 2034 -91
Q 1263 -91 848 271
Q 434 634 434 1313
Q 434 1759 690 2068
Q 947 2378 1403 2484
z
M 1172 3481
Q 1172 3119 1398 2916
Q 1625 2713 2034 2713
Q 2441 2713 2670 2916
Q 2900 3119 2900 3481
Q 2900 3844 2670 4047
Q 2441 4250 2034 4250
Q 1625 4250 1398 4047
Q 1172 3844 1172 3481
z
" transform="scale(0.015625)"/>
       </defs>
       <use xlink:href="#DejaVuSans-30"/>
       <use xlink:href="#DejaVuSans-2e" x="63.623047"/>
       <use xlink:href="#DejaVuSans-38" x="95.410156"/>
      </g>
     </g>
    </g>
    <g id="ytick_6">
     <g id="line2d_17">
      <path d="M 48.612154 24.798673
L 637.2 24.798673
" clip-path="url(#pbac6f8fb96)" style="fill: none; stroke: #b0b0b0; stroke-opacity: 0.25; stroke-width: 0.8; stroke-linecap: square"/>
     </g>
     <g id="line2d_18">
      <g>
       <use xlink:href="#m98c1dd8fdc" x="48.612154" y="24.798673" style="stroke: #000000; stroke-width: 0.8"/>
      </g>
     </g>
     <g id="text_12">
      <!-- 1.0 -->
      <g transform="translate(25.709029 28.597891) scale(0.1 -0.1)">
       <defs>
        <path id="DejaVuSans-31" d="M 794 531
L 1825 531
L 1825 4091
L 703 3866
L 703 4441
L 1819 4666
L 2450 4666
L 2450 531
L 3481 531
L 3481 0
L 794 0
L 794 531
z
" transform="scale(0.015625)"/>
       </defs>
       <use xlink:href="#DejaVuSans-31"/>
       <use xlink:href="#DejaVuSans-2e" x="63.623047"/>
       <use xlink:href="#DejaVuSans-30" x="95.410156"/>
      </g>
     </g>
    </g>
    <g id="text_13">
     <!-- Score -->
     <g transform="translate(19.629341 171.788406) rotate(-90) scale(0.1 -0.1)">
      <defs>
       <path id="DejaVuSans-53" d="M 3425 4513
L 3425 3897
Q 3066 4069 2747 4153
Q 2428 4238 2131 4238
Q 1616 4238 1336 4038
Q 1056 3838 1056 3469
Q 1056 3159 1242 3001
Q 1428 2844 1947 2747
L 2328 2669
Q 3034 2534 3370 2195
Q 3706 1856 3706 1288
Q 3706 609 3251 259
Q 2797 -91 1919 -91
Q 1588 -91 1214 -16
Q 841 59 441 206
L 441 856
Q 825 641 1194 531
Q 1563 422 1919 422
Q 2459 422 2753 634
Q 3047 847 3047 1241
Q 3047 1584 2836 1778
Q 2625 1972 2144 2069
L 1759 2144
Q 1053 2284 737 2584
Q 422 2884 422 3419
Q 422 4038 858 4394
Q 1294 4750 2059 4750
Q 2388 4750 2728 4690
Q 3069 4631 3425 4513
z
" transform="scale(0.015625)"/>
      </defs>
      <use xlink:href="#DejaVuSans-53"/>
      <use xlink:href="#DejaVuSans-63" x="63.476562"/>
      <use xlink:href="#DejaVuSans-6f" x="118.457031"/>
      <use xlink:href="#DejaVuSans-72" x="179.638672"/>
      <use xlink:href="#DejaVuSans-65" x="218.501953"/>
     </g>
    </g>
   </g>
   <g id="LineCollection_1">
    <path d="M 92.204324 215.025055
L 92.204324 196.830908
" clip-path="url(#pbac6f8fb96)" style="fill: none; stroke: #000000; stroke-width: 1.5"/>
    <path d="M 185.749754 197.136435
L 185.749754 181.288813
" clip-path="url(#pbac6f8fb96)" style="fill: none; stroke: #000000; stroke-width: 1.5"/>
    <path d="M 279.295184 189.450714
L 279.295184 170.882589
" clip-path="url(#pbac6f8fb96)" style="fill: none; stroke: #000000; stroke-width: 1.5"/>
    <path d="M 372.840614 189.34409
L 372.840614 170.945466
" clip-path="url(#pbac6f8fb96)" style="fill: none; stroke: #000000; stroke-width: 1.5"/>
    <path d="M 466.386045 198.319865
L 466.386045 181.183432
" clip-path="url(#pbac6f8fb96)" style="fill: none; stroke: #000000; stroke-width: 1.5"/>
    <path d="M 559.931475 188.681057
L 559.931475 170.661916
" clip-path="url(#pbac6f8fb96)" style="fill: none; stroke: #000000; stroke-width: 1.5"/>
   </g>
   <g id="line2d_19">
    <defs>
     <path id="mf0c4810cd9" d="M 3 0
L -3 -0
" style="stroke: #000000"/>
    </defs>
    <g clip-path="url(#pbac6f8fb96)">
     <use xlink:href="#mf0c4810cd9" x="92.204324" y="215.025055" style="stroke: #000000"/>
     <use xlink:href="#mf0c4810cd9" x="185.749754" y="197.136435" style="stroke: #000000"/>
     <use xlink:href="#mf0c4810cd9" x="279.295184" y="189.450714" style="stroke: #000000"/>
     <use xlink:href="#mf0c4810cd9" x="372.840614" y="189.34409" style="stroke: #000000"/>
     <use xlink:href="#mf0c4810cd9" x="466.386045" y="198.319865" style="stroke: #000000"/>
     <use xlink:href="#mf0c4810cd9" x="559.931475" y="188.681057" style="stroke: #000000"/>
    </g>
   </g>
   <g id="line2d_20">
    <g clip-path="url(#pbac6f8fb96)">
     <use xlink:href="#mf0c4810cd9" x="92.204324" y="196.830908" style="stroke: #000000"/>
     <use xlink:href="#mf0c4810cd9" x="185.749754" y="181.288813" style="stroke: #000000"/>
     <use xlink:href="#mf0c4810cd9" x="279.295184" y="170.882589" style="stroke: #000000"/>
     <use xlink:href="#mf0c4810cd9" x="372.840614" y="170.945466" style="stroke: #000000"/>
     <use xlink:href="#mf0c4810cd9" x="466.386045" y="181.183432" style="stroke: #000000"/>
     <use xlink:href="#mf0c4810cd9" x="559.931475" y="170.661916" style="stroke: #000000"/>
    </g>
   </g>
   <g id="LineCollection_2">
    <path d="M 125.880679 77.290397
L 125.880679 56.215541
" clip-path="url(#pbac6f8fb96)" style="fill: none; stroke: #000000; stroke-width: 1.5"/>
    <path d="M 219.426109 57.567532
L 219.426109 40.381864
" clip-path="url(#pbac6f8fb96)" style="fill: none; stroke: #000000; stroke-width: 1.5"/>
    <path d="M 312.971539 50.623744
L 312.971539 39.332419
" clip-path="url(#pbac6f8fb96)" style="fill: none; stroke: #000000; stroke-width: 1.5"/>
    <path d="M 406.516969 51.306656
L 406.516969 39.612431
" clip-path="url(#pbac6f8fb96)" style="fill: none; stroke: #000000; stroke-width: 1.5"/>
    <path d="M 500.062399 58.08908
L 500.062399 43.333383
" clip-path="url(#pbac6f8fb96)" style="fill: none; stroke: #000000; stroke-width: 1.5"/>
    <path d="M 593.60783 51.690481
L 593.60783 40.236823
" clip-path="url(#pbac6f8fb96)" style="fill: none; stroke: #000000; stroke-width: 1.5"/>
   </g>
   <g id="line2d_21">
    <g clip-path="url(#pbac6f8fb96)">
     <use xlink:href="#mf0c4810cd9" x="125.880679" y="77.290397" style="stroke: #000000"/>
     <use xlink:href="#mf0c4810cd9" x="219.426109" y="57.567532" style="stroke: #000000"/>
     <use xlink:href="#mf0c4810cd9" x="312.971539" y="50.623744" style="stroke: #000000"/>
     <use xlink:href="#mf0c4810cd9" x="406.516969" y="51.306656" style="stroke: #000000"/>
     <use xlink:href="#mf0c4810cd9" x="500.062399" y="58.08908" style="stroke: #000000"/>
     <use xlink:href="#mf0c4810cd9" x="593.60783" y="51.690481" style="stroke: #000000"/>
    </g>
   </g>
   <g id="line2d_22">
    <g clip-path="url(#pbac6f8fb96)">
     <use xlink:href="#mf0c4810cd9" x="125.880679" y="56.215541" style="stroke: #000000"/>
     <use xlink:href="#mf0c4810cd9" x="219.426109" y="40.381864" style="stroke: #000000"/>
     <use xlink:href="#mf0c4810cd9" x="312.971539" y="39.332419" style="stroke: #000000"/>
     <use xlink:href="#mf0c4810cd9" x="406.516969" y="39.612431" style="stroke: #000000"/>
     <use xlink:href="#mf0c4810cd9" x="500.062399" y="43.333383" style="stroke: #000000"/>
     <use xlink:href="#mf0c4810cd9" x="593.60783" y="40.236823" style="stroke: #000000"/>
    </g>
   </g>
   <g id="patch_15">
    <path d="M 48.612154 304.772124
L 48.612154 10.8
" style="fill: none; stroke: #000000; stroke-width: 0.8; stroke-linejoin: miter; stroke-linecap: square"/>
   </g>
   <g id="patch_16">
    <path d="M 637.2 304.772124
L 637.2 10.8
" style="fill: none; stroke: #000000; stroke-width: 0.8; stroke-linejoin: miter; stroke-linecap: square"/>
   </g>
   <g id="patch_17">
    <path d="M 48.612154 304.772124
L 637.2 304.772124
" style="fill: none; stroke: #000000; stroke-width: 0.8; stroke-linejoin: miter; stroke-linecap: square"/>
   </g>
   <g id="patch_18">
    <path d="M 48.612154 10.8
L 637.2 10.8
" style="fill: none; stroke: #000000; stroke-width: 0.8; stroke-linejoin: miter; stroke-linecap: square"/>
   </g>
   <g id="legend_1">
    <g id="patch_19">
     <path d="M 55.612154 48.15625
L 194.262154 48.15625
Q 196.262154 48.15625 196.262154 46.15625
L 196.262154 17.8
Q 196.262154 15.8 194.262154 15.8
L 55.612154 15.8
Q 53.612154 15.8 53.612154 17.8
L 53.612154 46.15625
Q 53.612154 48.15625 55.612154 48.15625
z
" style="fill: #ffffff; opacity: 0.8; stroke: #cccccc; stroke-linejoin: miter"/>
    </g>
    <g id="patch_20">
     <path d="M 57.612154 27.398438
L 77.612154 27.398438
L 77.612154 20.398438
L 57.612154 20.398438
z
" style="fill: #4472c4; stroke: #000000; stroke-linejoin: miter"/>
    </g>
    <g id="text_14">
     <!-- QoE -->
     <g transform="translate(85.612154 27.398438) scale(0.1 -0.1)">
      <defs>
       <path id="DejaVuSans-51" d="M 2522 4238
Q 1834 4238 1429 3725
Q 1025 3213 1025 2328
Q 1025 1447 1429 934
Q 1834 422 2522 422
Q 3209 422 3611 934
Q 4013 1447 4013 2328
Q 4013 3213 3611 3725
Q 3209 4238 2522 4238
z
M 3406 84
L 4238 -825
L 3475 -825
L 2784 -78
Q 2681 -84 2626 -87
Q 2572 -91 2522 -91
Q 1538 -91 948 567
Q 359 1225 359 2328
Q 359 3434 948 4092
Q 1538 4750 2522 4750
Q 3503 4750 4090 4092
Q 4678 3434 4678 2328
Q 4678 1516 4351 937
Q 4025 359 3406 84
z
" transform="scale(0.015625)"/>
      </defs>
      <use xlink:href="#DejaVuSans-51"/>
      <use xlink:href="#DejaVuSans-6f" x="78.710938"/>
      <use xlink:href="#DejaVuSans-45" x="139.892578"/>
     </g>
    </g>
    <g id="patch_21">
     <path d="M 57.612154 42.076563
L 77.612154 42.076563
L 77.612154 35.076563
L 57.612154 35.076563
z
" style="fill: #70ad47; stroke: #000000; stroke-linejoin: miter"/>
    </g>
    <g id="text_15">
     <!-- Per-user QoE fairness -->
     <g transform="translate(85.612154 42.076563) scale(0.1 -0.1)">
      <defs>
       <path id="DejaVuSans-50" d="M 1259 4147
L 1259 2394
L 2053 2394
Q 2494 2394 2734 2622
Q 2975 2850 2975 3272
Q 2975 3691 2734 3919
Q 2494 4147 2053 4147
L 1259 4147
z
M 628 4666
L 2053 4666
Q 2838 4666 3239 4311
Q 3641 3956 3641 3272
Q 3641 2581 3239 2228
Q 2838 1875 2053 1875
L 1259 1875
L 1259 0
L 628 0
L 628 4666
z
" transform="scale(0.015625)"/>
       <path id="DejaVuSans-73" d="M 2834 3397
L 2834 2853
Q 2591 2978 2328 3040
Q 2066 3103 1784 3103
Q 1356 3103 1142 2972
Q 928 2841 928 2578
Q 928 2378 1081 2264
Q 1234 2150 1697 2047
L 1894 2003
Q 2506 1872 2764 1633
Q 3022 1394 3022 966
Q 3022 478 2636 193
Q 2250 -91 1575 -91
Q 1294 -91 989 -36
Q 684 19 347 128
L 347 722
Q 666 556 975 473
Q 1284 391 1588 391
Q 1994 391 2212 530
Q 2431 669 2431 922
Q 2431 1156 2273 1281
Q 2116 1406 1581 1522
L 1381 1569
Q 847 1681 609 1914
Q 372 2147 372 2553
Q 372 3047 722 3315
Q 1072 3584 1716 3584
Q 2034 3584 2315 3537
Q 2597 3491 2834 3397
z
" transform="scale(0.015625)"/>
       <path id="DejaVuSans-20" transform="scale(0.015625)"/>
       <path id="DejaVuSans-61" d="M 2194 1759
Q 1497 1759 1228 1600
Q 959 1441 959 1056
Q 959 750 1161 570
Q 1363 391 1709 391
Q 2188 391 2477 730
Q 2766 1069 2766 1631
L 2766 1759
L 2194 1759
z
M 3341 1997
L 3341 0
L 2766 0
L 2766 531
Q 2569 213 2275 61
Q 1981 -91 1556 -91
Q 1019 -91 701 211
Q 384 513 384 1019
Q 384 1609 779 1909
Q 1175 2209 1959 2209
L 2766 2209
L 2766 2266
Q 2766 2663 2505 2880
Q 2244 3097 1772 3097
Q 1472 3097 1187 3025
Q 903 2953 641 2809
L 641 3341
Q 956 3463 1253 3523
Q 1550 3584 1831 3584
Q 2591 3584 2966 3190
Q 3341 2797 3341 1997
z
" transform="scale(0.015625)"/>
      </defs>
      <use xlink:href="#DejaVuSans-50"/>
      <use xlink:href="#DejaVuSans-65" x="56.677734"/>
      <use xlink:href="#DejaVuSans-72" x="118.201172"/>
      <use xlink:href="#DejaVuSans-2d" x="152.939453"/>
      <use xlink:href="#DejaVuSans-75" x="189.023438"/>
      <use xlink:href="#DejaVuSans-73" x="252.402344"/>
      <use xlink:href="#DejaVuSans-65" x="304.501953"/>
      <use xlink:href="#DejaVuSans-72" x="366.025391"/>
      <use xlink:href="#DejaVuSans-20" x="407.138672"/>
      <use xlink:href="#DejaVuSans-51" x="438.925781"/>
      <use xlink:href="#DejaVuSans-6f" x="517.636719"/>
      <use xlink:href="#DejaVuSans-45" x="578.818359"/>
      <use xlink:href="#DejaVuSans-20" x="642.001953"/>
      <use xlink:href="#DejaVuSans-66" x="673.789062"/>
      <use xlink:href="#DejaVuSans-61" x="708.994141"/>
      <use xlink:href="#DejaVuSans-69" x="770.273438"/>
      <use xlink:href="#DejaVuSans-72" x="798.056641"/>
      <use xlink:href="#DejaVuSans-6e" x="837.419922"/>
      <use xlink:href="#DejaVuSans-65" x="900.798828"/>
      <use xlink:href="#DejaVuSans-73" x="962.322266"/>
      <use xlink:href="#DejaVuSans-73" x="1014.421875"/>
     </g>
    </g>
   </g>
  </g>
 </g>
 <defs>
  <clipPath id="pbac6f8fb96">
   <rect x="48.612154" y="10.8" width="588.587846" height="293.972124"/>
  </clipPath>
 </defs>
</svg>
