<?xml version="1.0" encoding="utf-8" standalone="no"?>
<!DOCTYPE svg PUBLIC "-//W3C//DTD SVG 1.1//EN"
  "http://www.w3.org/Graphics/SVG/1.1/DTD/svg11.dtd">
<svg xmlns:xlink="http://www.w3.org/1999/xlink" width="612pt" height="374.4pt" viewBox="0 0 612 374.4" xmlns="http://www.w3.org/2000/svg" version="1.1">
 <metadata>
  <rdf:RDF xmlns:dc="http://purl.org/dc/elements/1.1/" xmlns:cc="http://creativecommons.org/ns#" xmlns:rdf="http://www.w3.org/1999/02/22-rdf-syntax-ns#">
   <cc:Work>
    <dc:type rdf:resource="http://purl.org/dc/dcmitype/StillImage"/>
    <dc:date>2026-07-23T16:44:36.074948</dc:date>
    <dc:format>image/svg+xml</dc:format>
    <dc:creator>
     <cc:Agent>
      <dc:title>Matplotlib v3.9.4, https://matplotlib.org/</dc:title>
     </cc:Agent>
    </dc:creator>
   </cc:Work>
  </rdf:RDF>
 </metadata>
 <defs>
  <style type="text/css">*{stroke-linejoin: round; stroke-linecap: butt}</style>
 </defs>
 <g id="figure_1">
  <g id="patch_1">
   <path d="M 0 374.4
L 612 374.4
L 612 0
L 0 0
z
" style="fill: #ffffff"/>
  </g>
  <g id="axes_1">
   <g id="patch_2">
    <path d="M 54.2 332.44
L 601.2 332.44
L 601.2 11.687075
L 54.2 11.687075
z
" style="fill: #ffffff"/>
   </g>
   <g id="matplotlib.axis_1">
    <g id="xtick_1">
     <g id="line2d_1">
      <path d="M 79.063636 332.44
L 79.063636 11.687075
" clip-path="url(#peb476fb65d)" style="fill: none; stroke: #b0b0b0; stroke-opacity: 0.25; stroke-width: 0.8; stroke-linecap: square"/>
     </g>
     <g id="line2d_2">
      <defs>
       <path id="m44c1a26d29" d="M 0 0
L 0 3.5
" style="stroke: #000000; stroke-width: 0.8"/>
      </defs>
      <g>
       <use xlink:href="#m44c1a26d29" x="79.063636" y="332.44" style="stroke: #000000; stroke-width: 0.8"/>
      </g>
     </g>
     <g id="text_1">
      <!-- 0 -->
      <g transform="translate(75.882386 347.038438) scale(0.1 -0.1)">
       <defs>
        <path id="DejaVuSans-30" d="M 2034 4250
Q 1547 4250 1301 3770
Q 1056 3291 1056 2328
Q 1056 1369 1301 889
Q 1547 409 2034 409
Q 2525 409 2770 889
Q 3016 1369 3016 2328
Q 3016 3291 2770 3770
Q 2525 4250 2034 4250
z
M 2034 4750
Q 2819 4750 3233 4129
Q 3647 3509 3647 2328
Q 3647 1150 3233 529
Q 2819 -91 2034 -91
Q 1250 -91 836 529
Q 422 1150 422 2328
Q 422 3509 836 4129
Q 1250 4750 2034 4750
z
" transform="scale(0.015625)"/>
       </defs>
       <use xlink:href="#DejaVuSans-30"/>
      </g>
     </g>
    </g>
    <g id="xtick_2">
     <g id="line2d_3">
      <path d="M 145.366667 332.44
L 145.366667 11.687075
" clip-path="url(#peb476fb65d)" style="fill: none; stroke: #b0b0b0; stroke-opacity: 0.25; stroke-width: 0.8; stroke-linecap: square"/>
     </g>
     <g id="line2d_4">
      <g>
       <use xlink:href="#m44c1a26d29" x="145.366667" y="332.44" style="stroke: #000000; stroke-width: 0.8"/>
      </g>
     </g>
     <g id="text_2">
      <!-- 20 -->
      <g transform="translate(139.004167 347.038438) scale(0.1 -0.1)">
       <defs>
        <path id="DejaVuSans-32" d="M 1228 531
L 3431 531
L 3431 0
L 469 0
L 469 531
Q 828 903 1448 1529
Q 2069 2156 2228 2338
Q 2531 2678 2651 2914
Q 2772 3150 2772 3378
Q 2772 3750 2511 3984
Q 2250 4219 1831 4219
Q 1534 4219 1204 4116
Q 875 4013 500 3803
L 500 4441
Q 881 4594 1212 4672
Q 1544 4750 1819 4750
Q 2544 4750 2975 4387
Q 3406 4025 3406 3419
Q 3406 3131 3298 2873
Q 3191 2616 2906 2266
Q 2828 2175 2409 1742
Q 1991 1309 1228 531
z
" transform="scale(0.015625)"/>
       </defs>
       <use xlink:href="#DejaVuSans-32"/>
       <use xlink:href="#DejaVuSans-30" x="63.623047"/>
      </g>
     </g>
    </g>
    <g id="xtick_3">
     <g id="line2d_5">
      <path d="M 211.669697 332.44
L 211.669697 11.687075
" clip-path="url(#peb476fb65d)" style="fill: none; stroke: #b0b0b0; stroke-opacity: 0.25; stroke-width: 0.8; stroke-linecap: square"/>
     </g>
     <g id="line2d_6">
      <g>
       <use xlink:href="#m44c1a26d29" x="211.669697" y="332.44" style="stroke: #000000; stroke-width: 0.8"/>
      </g>
     </g>
     <g id="text_3">
      <!-- 40 -->
      <g transform="translate(205.307197 347.038438) scale(0.1 -0.1)">
       <defs>
        <path id="DejaVuSans-34" d="M 2419 4116
L 825 1625
L 2419 1625
L 2419 4116
z
M 2253 4666
L 3047 4666
L 3047 1625
L 3713 1625
L 3713 1100
L 3047 1100
L 3047 0
L 2419 0
L 2419 1100
L 313 1100
L 313 1709
L 2253 4666
z
" transform="scale(0.015625)"/>
       </defs>
       <use xlink:href="#DejaVuSans-34"/>
       <use xlink:href="#DejaVuSans-30" x="63.623047"/>
      </g>
     </g>
    </g>
    <g id="xtick_4">
     <g id="line2d_7">
      <path d="M 277.972727 332.44
L 277.972727 11.687075
" clip-path="url(#peb476fb65d)" style="fill: none; stroke: #b0b0b0; stroke-opacity: 0.25; stroke-width: 0.8; stroke-linecap: square"/>
     </g>
     <g id="line2d_8">
      <g>
       <use xlink:href="#m44c1a26d29" x="277.972727" y="332.44" style="stroke: #000000; stroke-width: 0.8"/>
      </g>
     </g>
     <g id="text_4">
      <!-- 60 -->
      <g transform="translate(271.610227 347.038438) scale(0.1 -0.1)">
       <defs>
        <path id="DejaVuSans-36" d="M 2113 2584
Q 1688 2584 1439 2293
Q 1191 2003 1191 1497
Q 1191 994 1439 701
Q 1688 409 2113 409
Q 2538 409 2786 701
Q 3034 994 3034 1497
Q 3034 2003 2786 2293
Q 2538 2584 2113 2584
z
M 3366 4563
L 3366 3988
Q 3128 4100 2886 4159
Q 2644 4219 2406 4219
Q 1781 4219 1451 3797
Q 1122 3375 1075 2522
Q 1259 2794 1537 2939
Q 1816 3084 2150 3084
Q 2853 3084 3261 2657
Q 3669 2231 3669 1497
Q 3669 778 3244 343
Q 2819 -91 2113 -91
Q 1303 -91 875 529
Q 447 1150 447 2328
Q 447 3434 972 4092
Q 1497 4750 2381 4750
Q 2619 4750 2861 4703
Q 3103 4656 3366 4563
z
" transform="scale(0.015625)"/>
       </defs>
       <use xlink:href="#DejaVuSans-36"/>
       <use xlink:href="#DejaVuSans-30" x="63.623047"/>
      </g>
     </g>
    </g>
    <g id="xtick_5">
     <g id="line2d_9">
      <path d="M 344.275758 332.44
L 344.275758 11.687075
" clip-path="url(#peb476fb65d)" style="fill: none; stroke: #b0b0b0; stroke-opacity: 0.25; stroke-width: 0.8; stroke-linecap: square"/>
     </g>
     <g id="line2d_10">
      <g>
       <use xlink:href="#m44c1a26d29" x="344.275758" y="332.44" style="stroke: #000000; stroke-width: 0.8"/>
      </g>
     </g>
     <g id="text_5">
      <!-- 80 -->
      <g transform="translate(337.913258 347.038438) scale(0.1 -0.1)">
       <defs>
        <path id="DejaVuSans-38" d="M 2034 2216
Q 1584 2216 1326 1975
Q 1069 1734 1069 1313
Q 1069 891 1326 650
Q 1584 409 2034 409
Q 2484 409 2743 651
Q 3003 894 3003 1313
Q 3003 1734 2745 1975
Q 2488 2216 2034 2216
z
M 1403 2484
Q 997 2584 770 2862
Q 544 3141 544 3541
Q 544 4100 942 4425
Q 1341 4750 2034 4750
Q 2731 4750 3128 4425
Q 3525 4100 3525 3541
Q 3525 3141 3298 2862
Q 3072 2584 2669 2484
Q 3125 2378 3379 2068
Q 3634 1759 3634 1313
Q 3634 634 3220 271
Q 2806 -91 2034 -91
Q 1263 -91 848 271
Q 434 634 434 1313
Q 434 1759 690 2068
Q 947 2378 1403 2484
z
M 1172 3481
Q 1172 3119 1398 2916
Q 1625 2713 2034 2713
Q 2441 2713 2670 2916
Q 2900 3119 2900 3481
Q 2900 3844 2670 4047
Q 2441 4250 2034 4250
Q 1625 4250 1398 4047
Q 1172 3844 1172 3481
z
" transform="scale(0.015625)"/>
       </defs>
       <use xlink:href="#DejaVuSans-38"/>
       <use xlink:href="#DejaVuSans-30" x="63.623047"/>
      </g>
     </g>
    </g>
    <g id="xtick_6">
     <g id="line2d_11">
      <path d="M 410.578788 332.44
L 410.578788 11.687075
" clip-path="url(#peb476fb65d)" style="fill: none; stroke: #b0b0b0; stroke-opacity: 0.25; stroke-width: 0.8; stroke-linecap: square"/>
     </g>
     <g id="line2d_12">
      <g>
       <use xlink:href="#m44c1a26d29" x="410.578788" y="332.44" style="stroke: #000000; stroke-width: 0.8"/>
      </g>
     </g>
     <g id="text_6">
      <!-- 100 -->
      <g transform="translate(401.035038 347.038438) scale(0.1 -0.1)">
       <defs>
        <path id="DejaVuSans-31" d="M 794 531
L 1825 531
L 1825 4091
L 703 3866
L 703 4441
L 1819 4666
L 2450 4666
L 2450 531
L 3481 531
L 3481 0
L 794 0
L 794 531
z
" transform="scale(0.015625)"/>
       </defs>
       <use xlink:href="#DejaVuSans-31"/>
       <use xlink:href="#DejaVuSans-30" x="63.623047"/>
       <use xlink:href="#DejaVuSans-30" x="127.246094"/>
      </g>
     </g>
    </g>
    <g id="xtick_7">
     <g id="line2d_13">
      <path d="M 476.881818 332.44
L 476.881818 11.687075
" clip-path="url(#peb476fb65d)" style="fill: none; stroke: #b0b0b0; stroke-opacity: 0.25; stroke-width: 0.8; stroke-linecap: square"/>
     </g>
     <g id="line2d_14">
      <g>
       <use xlink:href="#m44c1a26d29" x="476.881818" y="332.44" style="stroke: #000000; stroke-width: 0.8"/>
      </g>
     </g>
     <g id="text_7">
      <!-- 120 -->
      <g transform="translate(467.338068 347.038438) scale(0.1 -0.1)">
       <use xlink:href="#DejaVuSans-31"/>
       <use xlink:href="#DejaVuSans-32" x="63.623047"/>
       <use xlink:href="#DejaVuSans-30" x="127.246094"/>
      </g>
     </g>
    </g>
    <g id="xtick_8">
     <g id="line2d_15">
      <path d="M 543.184848 332.44
L 543.184848 11.687075
" clip-path="url(#peb476fb65d)" style="fill: none; stroke: #b0b0b0; stroke-opacity: 0.25; stroke-width: 0.8; stroke-linecap: square"/>
     </g>
     <g id="line2d_16">
      <g>
       <use xlink:href="#m44c1a26d29" x="543.184848" y="332.44" style="stroke: #000000; stroke-width: 0.8"/>
      </g>
     </g>
     <g id="text_8">
      <!-- 140 -->
      <g transform="translate(533.641098 347.038438) scale(0.1 -0.1)">
       <use xlink:href="#DejaVuSans-31"/>
       <use xlink:href="#DejaVuSans-34" x="63.623047"/>
       <use xlink:href="#DejaVuSans-30" x="127.246094"/>
      </g>
     </g>
    </g>
    <g id="text_9">
     <!-- Iteration -->
     <g transform="translate(306.491406 360.716563) scale(0.1 -0.1)">
      <defs>
       <path id="DejaVuSans-49" d="M 628 4666
L 1259 4666
L 1259 0
L 628 0
L 628 4666
z
" transform="scale(0.015625)"/>
       <path id="DejaVuSans-74" d="M 1172 4494
L 1172 3500
L 2356 3500
L 2356 3053
L 1172 3053
L 1172 1153
Q 1172 725 1289 603
Q 1406 481 1766 481
L 2356 481
L 2356 0
L 1766 0
Q 1100 0 847 248
Q 594 497 594 1153
L 594 3053
L 172 3053
L 172 3500
L 594 3500
L 594 4494
L 1172 4494
z
" transform="scale(0.015625)"/>
       <path id="DejaVuSans-65" d="M 3597 1894
L 3597 1613
L 953 1613
Q 991 1019 1311 708
Q 1631 397 2203 397
Q 2534 397 2845 478
Q 3156 559 3463 722
L 3463 178
Q 3153 47 2828 -22
Q 2503 -91 2169 -91
Q 1331 -91 842 396
Q 353 884 353 1716
Q 353 2575 817 3079
Q 1281 3584 2069 3584
Q 2775 3584 3186 3129
Q 3597 2675 3597 1894
z
M 3022 2063
Q 3016 2534 2758 2815
Q 2500 3097 2075 3097
Q 1594 3097 1305 2825
Q 1016 2553 972 2059
L 3022 2063
z
" transform="scale(0.015625)"/>
       <path id="DejaVuSans-72" d="M 2631 2963
Q 2534 3019 2420 3045
Q 2306 3072 2169 3072
Q 1681 3072 1420 2755
Q 1159 2438 1159 1844
L 1159 0
L 581 0
L 581 3500
L 1159 3500
L 1159 2956
Q 1341 3275 1631 3429
Q 1922 3584 2338 3584
Q 2397 3584 2469 3576
Q 2541 3569 2628 3553
L 2631 2963
z
" transform="scale(0.015625)"/>
       <path id="DejaVuSans-61" d="M 2194 1759
Q 1497 1759 1228 1600
Q 959 1441 959 1056
Q 959 750 1161 570
Q 1363 391 1709 391
Q 2188 391 2477 730
Q 2766 1069 2766 1631
L 2766 1759
L 2194 1759
z
M 3341 1997
L 3341 0
L 2766 0
L 2766 531
Q 2569 213 2275 61
Q 1981 -91 1556 -91
Q 1019 -91 701 211
Q 384 513 384 1019
Q 384 1609 779 1909
Q 1175 2209 1959 2209
L 2766 2209
L 2766 2266
Q 2766 2663 2505 2880
Q 2244 3097 1772 3097
Q 1472 3097 1187 3025
Q 903 2953 641 2809
L 641 3341
Q 956 3463 1253 3523
Q 1550 3584 1831 3584
Q 2591 3584 2966 3190
Q 3341 2797 3341 1997
z
" transform="scale(0.015625)"/>
       <path id="DejaVuSans-69" d="M 603 3500
L 1178 3500
L 1178 0
L 603 0
L 603 3500
z
M 603 4863
L 1178 4863
L 1178 4134
L 603 4134
L 603 4863
z
" transform="scale(0.015625)"/>
       <path id="DejaVuSans-6f" d="M 1959 3097
Q 1497 3097 1228 2736
Q 959 2375 959 1747
Q 959 1119 1226 758
Q 1494 397 1959 397
Q 2419 397 2687 759
Q 2956 1122 2956 1747
Q 2956 2369 2687 2733
Q 2419 3097 1959 3097
z
M 1959 3584
Q 2709 3584 3137 3096
Q 3566 2609 3566 1747
Q 3566 888 3137 398
Q 2709 -91 1959 -91
Q 1206 -91 779 398
Q 353 888 353 1747
Q 353 2609 779 3096
Q 1206 3584 1959 3584
z
" transform="scale(0.015625)"/>
       <path id="DejaVuSans-6e" d="M 3513 2113
L 3513 0
L 2938 0
L 2938 2094
Q 2938 2591 2744 2837
Q 2550 3084 2163 3084
Q 1697 3084 1428 2787
Q 1159 2491 1159 1978
L 1159 0
L 581 0
L 581 3500
L 1159 3500
L 1159 2956
Q 1366 3272 1645 3428
Q 1925 3584 2291 3584
Q 2894 3584 3203 3211
Q 3513 2838 3513 2113
z
" transform="scale(0.015625)"/>
      </defs>
      <use xlink:href="#DejaVuSans-49"/>
      <use xlink:href="#DejaVuSans-74" x="29.492188"/>
      <use xlink:href="#DejaVuSans-65" x="68.701172"/>
      <use xlink:href="#DejaVuSans-72" x="130.224609"/>
      <use xlink:href="#DejaVuSans-61" x="171.337891"/>
      <use xlink:href="#DejaVuSans-74" x="232.617188"/>
      <use xlink:href="#DejaVuSans-69" x="271.826172"/>
      <use xlink:href="#DejaVuSans-6f" x="299.609375"/>
      <use xlink:href="#DejaVuSans-6e" x="360.791016"/>
     </g>
    </g>
   </g>
   <g id="matplotlib.axis_2">
    <g id="ytick_1">
     <g id="line2d_17">
      <path d="M 54.2 316.947656
L 601.2 316.947656
" clip-path="url(#peb476fb65d)" style="fill: none; stroke: #b0b0b0; stroke-opacity: 0.25; stroke-width: 0.8; stroke-linecap: square"/>
     </g>
     <g id="line2d_18">
      <defs>
       <path id="mbb21858735" d="M 0 0
L -3.5 0
" style="stroke: #000000; stroke-width: 0.8"/>
      </defs>
      <g>
       <use xlink:href="#mbb21858735" x="54.2" y="316.947656" style="stroke: #000000; stroke-width: 0.8"/>
      </g>
     </g>
     <g id="text_10">
      <!-- 1.00 -->
      <g transform="translate(24.934375 320.746875) scale(0.1 -0.1)">
       <defs>
        <path id="DejaVuSans-2e" d="M 684 794
L 1344 794
L 1344 0
L 684 0
L 684 794
z
" transform="scale(0.015625)"/>
       </defs>
       <use xlink:href="#DejaVuSans-31"/>
       <use xlink:href="#DejaVuSans-2e" x="63.623047"/>
       <use xlink:href="#DejaVuSans-30" x="95.410156"/>
       <use xlink:href="#DejaVuSans-30" x="159.033203"/>
      </g>
     </g>
    </g>
    <g id="ytick_2">
     <g id="line2d_19">
      <path d="M 54.2 273.827427
L 601.2 273.827427
" clip-path="url(#peb476fb65d)" style="fill: none; stroke: #b0b0b0; stroke-opacity: 0.25; stroke-width: 0.8; stroke-linecap: square"/>
     </g>
     <g id="line2d_20">
      <g>
       <use xlink:href="#mbb21858735" x="54.2" y="273.827427" style="stroke: #000000; stroke-width: 0.8"/>
      </g>
     </g>
     <g id="text_11">
      <!-- 1.25 -->
      <g transform="translate(24.934375 277.626646) scale(0.1 -0.1)">
       <defs>
        <path id="DejaVuSans-35" d="M 691 4666
L 3169 4666
L 3169 4134
L 1269 4134
L 1269 2991
Q 1406 3038 1543 3061
Q 1681 3084 1819 3084
Q 2600 3084 3056 2656
Q 3513 2228 3513 1497
Q 3513 744 3044 326
Q 2575 -91 1722 -91
Q 1428 -91 1123 -41
Q 819 9 494 109
L 494 744
Q 775 591 1075 516
Q 1375 441 1709 441
Q 2250 441 2565 725
Q 2881 1009 2881 1497
Q 2881 1984 2565 2268
Q 2250 2553 1709 2553
Q 1456 2553 1204 2497
Q 953 2441 691 2322
L 691 4666
z
" transform="scale(0.015625)"/>
       </defs>
       <use xlink:href="#DejaVuSans-31"/>
       <use xlink:href="#DejaVuSans-2e" x="63.623047"/>
       <use xlink:href="#DejaVuSans-32" x="95.410156"/>
       <use xlink:href="#DejaVuSans-35" x="159.033203"/>
      </g>
     </g>
    </g>
    <g id="ytick_3">
     <g id="line2d_21">
      <path d="M 54.2 230.707198
L 601.2 230.707198
" clip-path="url(#peb476fb65d)" style="fill: none; stroke: #b0b0b0; stroke-opacity: 0.25; stroke-width: 0.8; stroke-linecap: square"/>
     </g>
     <g id="line2d_22">
      <g>
       <use xlink:href="#mbb21858735" x="54.2" y="230.707198" style="stroke: #000000; stroke-width: 0.8"/>
      </g>
     </g>
     <g id="text_12">
      <!-- 1.50 -->
      <g transform="translate(24.934375 234.506416) scale(0.1 -0.1)">
       <use xlink:href="#DejaVuSans-31"/>
       <use xlink:href="#DejaVuSans-2e" x="63.623047"/>
       <use xlink:href="#DejaVuSans-35" x="95.410156"/>
       <use xlink:href="#DejaVuSans-30" x="159.033203"/>
      </g>
     </g>
    </g>
    <g id="ytick_4">
     <g id="line2d_23">
      <path d="M 54.2 187.586968
L 601.2 187.586968
" clip-path="url(#peb476fb65d)" style="fill: none; stroke: #b0b0b0; stroke-opacity: 0.25; stroke-width: 0.8; stroke-linecap: square"/>
     </g>
     <g id="line2d_24">
      <g>
       <use xlink:href="#mbb21858735" x="54.2" y="187.586968" style="stroke: #000000; stroke-width: 0.8"/>
      </g>
     </g>
     <g id="text_13">
      <!-- 1.75 -->
      <g transform="translate(24.934375 191.386187) scale(0.1 -0.1)">
       <defs>
        <path id="DejaVuSans-37" d="M 525 4666
L 3525 4666
L 3525 4397
L 1831 0
L 1172 0
L 2766 4134
L 525 4134
L 525 4666
z
" transform="scale(0.015625)"/>
       </defs>
       <use xlink:href="#DejaVuSans-31"/>
       <use xlink:href="#DejaVuSans-2e" x="63.623047"/>
       <use xlink:href="#DejaVuSans-37" x="95.410156"/>
       <use xlink:href="#DejaVuSans-35" x="159.033203"/>
      </g>
     </g>
    </g>
    <g id="ytick_5">
     <g id="line2d_25">
      <path d="M 54.2 144.466739
L 601.2 144.466739
" clip-path="url(#peb476fb65d)" style="fill: none; stroke: #b0b0b0; stroke-opacity: 0.25; stroke-width: 0.8; stroke-linecap: square"/>
     </g>
     <g id="line2d_26">
      <g>
       <use xlink:href="#mbb21858735" x="54.2" y="144.466739" style="stroke: #000000; stroke-width: 0.8"/>
      </g>
     </g>
     <g id="text_14">
      <!-- 2.00 -->
      <g transform="translate(24.934375 148.265958) scale(0.1 -0.1)">
       <use xlink:href="#DejaVuSans-32"/>
       <use xlink:href="#DejaVuSans-2e" x="63.623047"/>
       <use xlink:href="#DejaVuSans-30" x="95.410156"/>
       <use xlink:href="#DejaVuSans-30" x="159.033203"/>
      </g>
     </g>
    </g>
    <g id="ytick_6">
     <g id="line2d_27">
      <path d="M 54.2 101.34651
L 601.2 101.34651
" clip-path="url(#peb476fb65d)" style="fill: none; stroke: #b0b0b0; stroke-opacity: 0.25; stroke-width: 0.8; stroke-linecap: square"/>
     </g>
     <g id="line2d_28">
      <g>
       <use xlink:href="#mbb21858735" x="54.2" y="101.34651" style="stroke: #000000; stroke-width: 0.8"/>
      </g>
     </g>
     <g id="text_15">
      <!-- 2.25 -->
      <g transform="translate(24.934375 105.145728) scale(0.1 -0.1)">
       <use xlink:href="#DejaVuSans-32"/>
       <use xlink:href="#DejaVuSans-2e" x="63.623047"/>
       <use xlink:href="#DejaVuSans-32" x="95.410156"/>
       <use xlink:href="#DejaVuSans-35" x="159.033203"/>
      </g>
     </g>
    </g>
    <g id="ytick_7">
     <g id="line2d_29">
      <path d="M 54.2 58.22628
L 601.2 58.22628
" clip-path="url(#peb476fb65d)" style="fill: none; stroke: #b0b0b0; stroke-opacity: 0.25; stroke-width: 0.8; stroke-linecap: square"/>
     </g>
     <g id="line2d_30">
      <g>
       <use xlink:href="#mbb21858735" x="54.2" y="58.22628" style="stroke: #000000; stroke-width: 0.8"/>
      </g>
     </g>
     <g id="text_16">
      <!-- 2.50 -->
      <g transform="translate(24.934375 62.025499) scale(0.1 -0.1)">
       <use xlink:href="#DejaVuSans-32"/>
       <use xlink:href="#DejaVuSans-2e" x="63.623047"/>
       <use xlink:href="#DejaVuSans-35" x="95.410156"/>
       <use xlink:href="#DejaVuSans-30" x="159.033203"/>
      </g>
     </g>
    </g>
    <g id="ytick_8">
     <g id="line2d_31">
      <path d="M 54.2 15.106051
L 601.2 15.106051
" clip-path="url(#peb476fb65d)" style="fill: none; stroke: #b0b0b0; stroke-opacity: 0.25; stroke-width: 0.8; stroke-linecap: square"/>
     </g>
     <g id="line2d_32">
      <g>
       <use xlink:href="#mbb21858735" x="54.2" y="15.106051" style="stroke: #000000; stroke-width: 0.8"/>
      </g>
     </g>
     <g id="text_17">
      <!-- 2.75 -->
      <g transform="translate(24.934375 18.90527) scale(0.1 -0.1)">
       <use xlink:href="#DejaVuSans-32"/>
       <use xlink:href="#DejaVuSans-2e" x="63.623047"/>
       <use xlink:href="#DejaVuSans-37" x="95.410156"/>
       <use xlink:href="#DejaVuSans-35" x="159.033203"/>
      </g>
     </g>
    </g>
    <g id="text_18">
     <!-- Fixed-reference reporting fitness -->
     <g transform="translate(18.854688 253.436975) rotate(-90) scale(0.1 -0.1)">
      <defs>
       <path id="DejaVuSans-46" d="M 628 4666
L 3309 4666
L 3309 4134
L 1259 4134
L 1259 2759
L 3109 2759
L 3109 2228
L 1259 2228
L 1259 0
L 628 0
L 628 4666
z
" transform="scale(0.015625)"/>
       <path id="DejaVuSans-78" d="M 3513 3500
L 2247 1797
L 3578 0
L 2900 0
L 1881 1375
L 863 0
L 184 0
L 1544 1831
L 300 3500
L 978 3500
L 1906 2253
L 2834 3500
L 3513 3500
z
" transform="scale(0.015625)"/>
       <path id="DejaVuSans-64" d="M 2906 2969
L 2906 4863
L 3481 4863
L 3481 0
L 2906 0
L 2906 525
Q 2725 213 2448 61
Q 2172 -91 1784 -91
Q 1150 -91 751 415
Q 353 922 353 1747
Q 353 2572 751 3078
Q 1150 3584 1784 3584
Q 2172 3584 2448 3432
Q 2725 3281 2906 2969
z
M 947 1747
Q 947 1113 1208 752
Q 1469 391 1925 391
Q 2381 391 2643 752
Q 2906 1113 2906 1747
Q 2906 2381 2643 2742
Q 2381 3103 1925 3103
Q 1469 3103 1208 2742
Q 947 2381 947 1747
z
" transform="scale(0.015625)"/>
       <path id="DejaVuSans-2d" d="M 313 2009
L 1997 2009
L 1997 1497
L 313 1497
L 313 2009
z
" transform="scale(0.015625)"/>
       <path id="DejaVuSans-66" d="M 2375 4863
L 2375 4384
L 1825 4384
Q 1516 4384 1395 4259
Q 1275 4134 1275 3809
L 1275 3500
L 2222 3500
L 2222 3053
L 1275 3053
L 1275 0
L 697 0
L 697 3053
L 147 3053
L 147 3500
L 697 3500
L 697 3744
Q 697 4328 969 4595
Q 1241 4863 1831 4863
L 2375 4863
z
" transform="scale(0.015625)"/>
       <path id="DejaVuSans-63" d="M 3122 3366
L 3122 2828
Q 2878 2963 2633 3030
Q 2388 3097 2138 3097
Q 1578 3097 1268 2742
Q 959 2388 959 1747
Q 959 1106 1268 751
Q 1578 397 2138 397
Q 2388 397 2633 464
Q 2878 531 3122 666
L 3122 134
Q 2881 22 2623 -34
Q 2366 -91 2075 -91
Q 1284 -91 818 406
Q 353 903 353 1747
Q 353 2603 823 3093
Q 1294 3584 2113 3584
Q 2378 3584 2631 3529
Q 2884 3475 3122 3366
z
" transform="scale(0.015625)"/>
       <path id="DejaVuSans-20" transform="scale(0.015625)"/>
       <path id="DejaVuSans-70" d="M 1159 525
L 1159 -1331
L 581 -1331
L 581 3500
L 1159 3500
L 1159 2969
Q 1341 3281 1617 3432
Q 1894 3584 2278 3584
Q 2916 3584 3314 3078
Q 3713 2572 3713 1747
Q 3713 922 3314 415
Q 2916 -91 2278 -91
Q 1894 -91 1617 61
Q 1341 213 1159 525
z
M 3116 1747
Q 3116 2381 2855 2742
Q 2594 3103 2138 3103
Q 1681 3103 1420 2742
Q 1159 2381 1159 1747
Q 1159 1113 1420 752
Q 1681 391 2138 391
Q 2594 391 2855 752
Q 3116 1113 3116 1747
z
" transform="scale(0.015625)"/>
       <path id="DejaVuSans-67" d="M 2906 1791
Q 2906 2416 2648 2759
Q 2391 3103 1925 3103
Q 1463 3103 1205 2759
Q 947 2416 947 1791
Q 947 1169 1205 825
Q 1463 481 1925 481
Q 2391 481 2648 825
Q 2906 1169 2906 1791
z
M 3481 434
Q 3481 -459 3084 -895
Q 2688 -1331 1869 -1331
Q 1566 -1331 1297 -1286
Q 1028 -1241 775 -1147
L 775 -588
Q 1028 -725 1275 -790
Q 1522 -856 1778 -856
Q 2344 -856 2625 -561
Q 2906 -266 2906 331
L 2906 616
Q 2728 306 2450 153
Q 2172 0 1784 0
Q 1141 0 747 490
Q 353 981 353 1791
Q 353 2603 747 3093
Q 1141 3584 1784 3584
Q 2172 3584 2450 3431
Q 2728 3278 2906 2969
L 2906 3500
L 3481 3500
L 3481 434
z
" transform="scale(0.015625)"/>
       <path id="DejaVuSans-73" d="M 2834 3397
L 2834 2853
Q 2591 2978 2328 3040
Q 2066 3103 1784 3103
Q 1356 3103 1142 2972
Q 928 2841 928 2578
Q 928 2378 1081 2264
Q 1234 2150 1697 2047
L 1894 2003
Q 2506 1872 2764 1633
Q 3022 1394 3022 966
Q 3022 478 2636 193
Q 2250 -91 1575 -91
Q 1294 -91 989 -36
Q 684 19 347 128
L 347 722
Q 666 556 975 473
Q 1284 391 1588 391
Q 1994 391 2212 530
Q 2431 669 2431 922
Q 2431 1156 2273 1281
Q 2116 1406 1581 1522
L 1381 1569
Q 847 1681 609 1914
Q 372 2147 372 2553
Q 372 3047 722 3315
Q 1072 3584 1716 3584
Q 2034 3584 2315 3537
Q 2597 3491 2834 3397
z
" transform="scale(0.015625)"/>
      </defs>
      <use xlink:href="#DejaVuSans-46"/>
      <use xlink:href="#DejaVuSans-69" x="50.269531"/>
      <use xlink:href="#DejaVuSans-78" x="78.052734"/>
      <use xlink:href="#DejaVuSans-65" x="134.107422"/>
      <use xlink:href="#DejaVuSans-64" x="195.630859"/>
      <use xlink:href="#DejaVuSans-2d" x="259.107422"/>
      <use xlink:href="#DejaVuSans-72" x="295.191406"/>
      <use xlink:href="#DejaVuSans-65" x="334.054688"/>
      <use xlink:href="#DejaVuSans-66" x="395.578125"/>
      <use xlink:href="#DejaVuSans-65" x="430.783203"/>
      <use xlink:href="#DejaVuSans-72" x="492.306641"/>
      <use xlink:href="#DejaVuSans-65" x="531.169922"/>
      <use xlink:href="#DejaVuSans-6e" x="592.693359"/>
      <use xlink:href="#DejaVuSans-63" x="656.072266"/>
      <use xlink:href="#DejaVuSans-65" x="711.052734"/>
      <use xlink:href="#DejaVuSans-20" x="772.576172"/>
      <use xlink:href="#DejaVuSans-72" x="804.363281"/>
      <use xlink:href="#DejaVuSans-65" x="843.226562"/>
      <use xlink:href="#DejaVuSans-70" x="904.75"/>
      <use xlink:href="#DejaVuSans-6f" x="968.226562"/>
      <use xlink:href="#DejaVuSans-72" x="1029.408203"/>
      <use xlink:href="#DejaVuSans-74" x="1070.521484"/>
      <use xlink:href="#DejaVuSans-69" x="1109.730469"/>
      <use xlink:href="#DejaVuSans-6e" x="1137.513672"/>
      <use xlink:href="#DejaVuSans-67" x="1200.892578"/>
      <use xlink:href="#DejaVuSans-20" x="1264.369141"/>
      <use xlink:href="#DejaVuSans-66" x="1296.15625"/>
      <use xlink:href="#DejaVuSans-69" x="1331.361328"/>
      <use xlink:href="#DejaVuSans-74" x="1359.144531"/>
      <use xlink:href="#DejaVuSans-6e" x="1398.353516"/>
      <use xlink:href="#DejaVuSans-65" x="1461.732422"/>
      <use xlink:href="#DejaVuSans-73" x="1523.255859"/>
      <use xlink:href="#DejaVuSans-73" x="1575.355469"/>
     </g>
    </g>
   </g>
   <g id="line2d_33">
    <path d="M 79.063636 300.864545
L 98.954545 300.864545
L 102.269697 301.224946
L 108.9 301.224946
L 112.215152 301.43073
L 115.530303 301.512081
L 122.160606 301.960792
L 125.475758 303.497954
L 128.790909 303.905148
L 132.106061 304.773796
L 135.421212 305.322775
L 138.736364 305.71529
L 142.051515 306.467779
L 145.366667 307.501732
L 158.627273 309.928908
L 161.942424 310.435601
L 165.257576 311.152827
L 178.518182 312.826636
L 188.463636 313.298315
L 191.778788 313.484294
L 195.093939 313.851638
L 198.409091 314.037707
L 201.724242 314.345949
L 208.354545 314.706074
L 211.669697 315.067319
L 224.930303 315.374088
L 244.821212 315.890453
L 251.451515 315.99403
L 268.027273 316.200006
L 271.342424 316.213038
L 274.657576 316.427436
L 277.972727 316.444918
L 281.287879 316.747507
L 287.918182 316.856041
L 331.015152 317.034372
L 337.645455 317.204959
L 413.893939 317.390565
L 529.924242 317.672462
L 546.5 317.720897
L 576.336364 317.860322
L 576.336364 317.860322
" clip-path="url(#peb476fb65d)" style="fill: none; stroke: #1f4e79; stroke-width: 2; stroke-linecap: square"/>
   </g>
   <g id="line2d_34">
    <path d="M 79.063636 26.266753
L 82.378788 104.521138
L 85.693939 128.535509
L 89.009091 143.007368
L 92.324242 156.152848
L 95.639394 162.482319
L 98.954545 167.756818
L 102.269697 172.135383
L 105.584848 174.961133
L 115.530303 182.365861
L 118.845455 184.273982
L 125.475758 186.792076
L 128.790909 187.777766
L 132.106061 189.075974
L 135.421212 189.644028
L 138.736364 190.626452
L 145.366667 192.819332
L 151.99697 194.137156
L 158.627273 196.324075
L 161.942424 197.093664
L 165.257576 197.707053
L 168.572727 198.562002
L 171.887879 199.131385
L 178.518182 199.933221
L 188.463636 201.326719
L 191.778788 201.577332
L 201.724242 202.751298
L 205.039394 203.008684
L 211.669697 203.22264
L 218.3 203.858581
L 221.615152 204.015515
L 228.245455 204.64007
L 231.560606 204.790543
L 244.821212 205.87068
L 251.451515 206.321373
L 261.39697 206.595405
L 271.342424 207.755611
L 277.972727 208.300513
L 284.60303 208.707498
L 287.918182 208.826882
L 291.233333 209.142254
L 321.069697 210.672311
L 357.536364 212.015116
L 374.112121 212.471592
L 400.633333 213.371699
L 430.469697 213.944495
L 443.730303 214.217443
L 456.990909 214.42074
L 470.251515 214.708953
L 480.19697 214.847857
L 486.827273 214.994993
L 493.457576 215.150474
L 516.663636 215.456581
L 533.239394 215.752852
L 576.336364 216.081677
L 576.336364 216.081677
" clip-path="url(#peb476fb65d)" style="fill: none; stroke: #ed7d31; stroke-width: 2; stroke-linecap: square"/>
   </g>
   <g id="line2d_35">
    <path d="M 79.063636 73.601318
L 82.378788 136.123332
L 85.693939 162.296873
L 89.009091 178.439087
L 92.324242 190.20971
L 95.639394 195.563706
L 98.954545 200.535244
L 102.269697 205.265473
L 108.9 212.031514
L 112.215152 215.845412
L 115.530303 220.392504
L 118.845455 223.170277
L 122.160606 226.463185
L 125.475758 229.117277
L 128.790909 231.389216
L 132.106061 233.325617
L 135.421212 234.979036
L 138.736364 236.958267
L 145.366667 239.524822
L 148.681818 240.688398
L 151.99697 241.123376
L 155.312121 242.249028
L 158.627273 243.663594
L 161.942424 244.792383
L 168.572727 246.061716
L 175.20303 248.244555
L 178.518182 249.678017
L 181.833333 250.86524
L 185.148485 252.301025
L 188.463636 252.816769
L 195.093939 255.052356
L 198.409091 255.714876
L 201.724242 256.238469
L 205.039394 257.228373
L 208.354545 257.541884
L 211.669697 258.059248
L 214.984848 259.329832
L 218.3 259.802594
L 224.930303 260.524426
L 228.245455 261.04431
L 234.875758 261.743493
L 248.136364 263.265284
L 254.766667 264.047858
L 258.081818 264.212324
L 261.39697 264.808227
L 264.712121 265.545774
L 268.027273 266.084088
L 274.657576 266.670976
L 277.972727 267.095823
L 284.60303 267.676489
L 287.918182 268.332611
L 297.863636 269.375419
L 301.178788 269.568177
L 304.493939 270.064708
L 324.384848 271.427212
L 337.645455 272.750846
L 340.960606 273.231982
L 344.275758 273.310904
L 360.851515 274.255746
L 367.481818 274.503691
L 374.112121 275.135188
L 384.057576 275.806781
L 387.372727 276.162408
L 430.469697 278.639106
L 433.784848 278.98459
L 447.045455 279.9137
L 453.675758 280.418701
L 456.990909 280.664108
L 460.306061 280.742544
L 463.621212 281.072434
L 473.566667 281.437313
L 490.142424 282.074138
L 493.457576 282.152559
L 500.087879 282.584344
L 510.033333 282.950874
L 523.293939 283.259193
L 529.924242 283.561206
L 536.554545 283.701962
L 549.815152 284.254284
L 563.075758 284.673995
L 573.021212 285.139544
L 576.336364 285.271232
L 576.336364 285.271232
" clip-path="url(#peb476fb65d)" style="fill: none; stroke: #5b9bd5; stroke-width: 2; stroke-linecap: square"/>
   </g>
   <g id="line2d_36">
    <path d="M 79.063636 74.228788
L 82.378788 119.685562
L 85.693939 140.138173
L 89.009091 151.535287
L 92.324242 162.333926
L 95.639394 170.419651
L 98.954545 181.251286
L 102.269697 189.316327
L 105.584848 196.168217
L 108.9 201.116549
L 112.215152 206.679503
L 115.530303 211.068201
L 118.845455 216.774923
L 122.160606 219.106908
L 125.475758 222.827164
L 128.790909 227.215689
L 132.106061 230.942627
L 135.421212 233.204529
L 138.736364 235.111492
L 142.051515 236.585312
L 145.366667 238.583821
L 148.681818 240.183439
L 151.99697 241.933016
L 155.312121 242.964697
L 158.627273 244.614078
L 161.942424 246.927844
L 165.257576 248.466545
L 168.572727 249.1789
L 171.887879 250.426512
L 175.20303 251.166255
L 185.148485 254.20252
L 191.778788 255.580803
L 195.093939 256.626094
L 198.409091 257.493227
L 201.724242 258.035004
L 205.039394 258.819958
L 208.354545 259.36413
L 214.984848 260.13706
L 218.3 260.867536
L 224.930303 261.872899
L 228.245455 262.495016
L 234.875758 263.502968
L 238.190909 263.964802
L 241.506061 264.633063
L 244.821212 265.150247
L 251.451515 265.897701
L 258.081818 266.214797
L 261.39697 266.843284
L 264.712121 267.082509
L 274.657576 268.058795
L 294.548485 269.362142
L 297.863636 269.453738
L 301.178788 269.769196
L 314.439394 270.365242
L 317.754545 270.645119
L 327.7 271.082841
L 334.330303 271.547836
L 344.275758 271.926963
L 347.590909 272.111217
L 367.481818 272.618661
L 370.79697 272.796926
L 380.742424 273.032929
L 384.057576 273.262318
L 394.00303 273.543598
L 400.633333 273.725896
L 403.948485 273.976281
L 413.893939 274.279772
L 417.209091 274.634251
L 427.154545 274.994143
L 433.784848 275.123307
L 440.415152 275.398491
L 470.251515 276.082628
L 493.457576 276.726362
L 533.239394 277.345139
L 553.130303 277.593904
L 576.336364 277.914393
L 576.336364 277.914393
" clip-path="url(#peb476fb65d)" style="fill: none; stroke: #c55a11; stroke-width: 2; stroke-linecap: square"/>
   </g>
   <g id="line2d_37">
    <path d="M 79.063636 38.14729
L 82.378788 52.782075
L 85.693939 76.608175
L 92.324242 99.19661
L 98.954545 125.717756
L 102.269697 131.345157
L 105.584848 136.505605
L 108.9 142.190524
L 112.215152 146.717141
L 115.530303 149.995392
L 118.845455 155.521926
L 122.160606 158.794303
L 125.475758 166.600856
L 128.790909 169.780586
L 132.106061 173.925783
L 135.421212 177.39501
L 138.736364 178.931217
L 145.366667 187.036223
L 151.99697 192.422143
L 155.312121 193.770904
L 158.627273 195.436174
L 161.942424 196.952171
L 175.20303 201.173039
L 178.518182 203.480488
L 181.833333 203.803204
L 185.148485 204.328506
L 188.463636 205.380808
L 191.778788 207.901591
L 195.093939 209.309232
L 198.409091 211.182756
L 201.724242 212.721776
L 205.039394 212.839694
L 208.354545 214.314389
L 211.669697 215.323049
L 214.984848 215.886983
L 218.3 216.097512
L 221.615152 217.074479
L 224.930303 217.329701
L 231.560606 218.813135
L 234.875758 220.283638
L 238.190909 220.518366
L 241.506061 221.597555
L 244.821212 222.309788
L 248.136364 222.364072
L 251.451515 222.69927
L 258.081818 222.872676
L 261.39697 222.872676
L 264.712121 223.81623
L 268.027273 224.027855
L 271.342424 224.611529
L 274.657576 224.917666
L 277.972727 225.929661
L 284.60303 226.913187
L 287.918182 227.734742
L 294.548485 228.869669
L 297.863636 229.945565
L 301.178788 230.778336
L 304.493939 230.816896
L 307.809091 232.336402
L 314.439394 232.827473
L 317.754545 234.091119
L 321.069697 235.010608
L 324.384848 235.464276
L 327.7 236.136268
L 334.330303 236.715729
L 337.645455 237.604467
L 340.960606 237.809636
L 344.275758 238.226979
L 347.590909 239.325907
L 357.536364 239.917198
L 360.851515 240.378584
L 364.166667 240.578587
L 367.481818 241.237644
L 370.79697 242.440253
L 374.112121 242.876709
L 380.742424 243.40464
L 384.057576 243.787391
L 397.318182 246.432264
L 407.263636 247.775323
L 413.893939 248.437012
L 417.209091 249.641719
L 420.524242 249.680236
L 423.839394 249.981046
L 427.154545 250.915367
L 430.469697 252.19214
L 433.784848 253.122139
L 437.1 254.331996
L 443.730303 255.149784
L 447.045455 255.407697
L 450.360606 256.17129
L 453.675758 256.314566
L 456.990909 256.937684
L 460.306061 257.424944
L 473.566667 258.758013
L 476.881818 259.543971
L 480.19697 259.959338
L 483.512121 260.242966
L 486.827273 260.99899
L 490.142424 261.526672
L 493.457576 262.292053
L 496.772727 262.59321
L 500.087879 262.739807
L 503.40303 263.243409
L 506.718182 263.860087
L 510.033333 264.744277
L 513.348485 265.77838
L 516.663636 266.551722
L 519.978788 266.954496
L 526.609091 268.594535
L 533.239394 269.552052
L 536.554545 270.415794
L 549.815152 272.081524
L 556.445455 273.02543
L 569.706061 274.16464
L 573.021212 274.288945
L 576.336364 274.288945
L 576.336364 274.288945
" clip-path="url(#peb476fb65d)" style="fill: none; stroke: #70ad47; stroke-width: 2; stroke-linecap: square"/>
   </g>
   <g id="line2d_38">
    <path d="M 79.063636 300.864545
" clip-path="url(#peb476fb65d)" style="fill: none; stroke: #8064a2; stroke-width: 2; stroke-linecap: square"/>
   </g>
   <g id="patch_3">
    <path d="M 54.2 332.44
L 54.2 11.687075
" style="fill: none; stroke: #000000; stroke-width: 0.8; stroke-linejoin: miter; stroke-linecap: square"/>
   </g>
   <g id="patch_4">
    <path d="M 601.2 332.44
L 601.2 11.687075
" style="fill: none; stroke: #000000; stroke-width: 0.8; stroke-linejoin: miter; stroke-linecap: square"/>
   </g>
   <g id="patch_5">
    <path d="M 54.2 332.44
L 601.2 332.44
" style="fill: none; stroke: #000000; stroke-width: 0.8; stroke-linejoin: miter; stroke-linecap: square"/>
   </g>
   <g id="patch_6">
    <path d="M 54.2 11.687075
L 601.2 11.687075
" style="fill: none; stroke: #000000; stroke-width: 0.8; stroke-linejoin: miter; stroke-linecap: square"/>
   </g>
   <g id="legend_1">
    <g id="patch_7">
     <path d="M 454.00625 107.755825
L 594.2 107.755825
Q 596.2 107.755825 596.2 105.755825
L 596.2 18.687075
Q 596.2 16.687075 594.2 16.687075
L 454.00625 16.687075
Q 452.00625 16.687075 452.00625 18.687075
L 452.00625 105.755825
Q 452.00625 107.755825 454.00625 107.755825
z
" style="fill: #ffffff; opacity: 0.8; stroke: #cccccc; stroke-linejoin: miter"/>
    </g>
    <g id="line2d_39">
     <path d="M 456.00625 24.785512
L 466.00625 24.785512
L 476.00625 24.785512
" style="fill: none; stroke: #1f4e79; stroke-width: 2; stroke-linecap: square"/>
    </g>
    <g id="text_19">
     <!-- RDHO pre-refinement -->
     <g transform="translate(484.00625 28.285512) scale(0.1 -0.1)">
      <defs>
       <path id="DejaVuSans-52" d="M 2841 2188
Q 3044 2119 3236 1894
Q 3428 1669 3622 1275
L 4263 0
L 3584 0
L 2988 1197
Q 2756 1666 2539 1819
Q 2322 1972 1947 1972
L 1259 1972
L 1259 0
L 628 0
L 628 4666
L 2053 4666
Q 2853 4666 3247 4331
Q 3641 3997 3641 3322
Q 3641 2881 3436 2590
Q 3231 2300 2841 2188
z
M 1259 4147
L 1259 2491
L 2053 2491
Q 2509 2491 2742 2702
Q 2975 2913 2975 3322
Q 2975 3731 2742 3939
Q 2509 4147 2053 4147
L 1259 4147
z
" transform="scale(0.015625)"/>
       <path id="DejaVuSans-44" d="M 1259 4147
L 1259 519
L 2022 519
Q 2988 519 3436 956
Q 3884 1394 3884 2338
Q 3884 3275 3436 3711
Q 2988 4147 2022 4147
L 1259 4147
z
M 628 4666
L 1925 4666
Q 3281 4666 3915 4102
Q 4550 3538 4550 2338
Q 4550 1131 3912 565
Q 3275 0 1925 0
L 628 0
L 628 4666
z
" transform="scale(0.015625)"/>
       <path id="DejaVuSans-48" d="M 628 4666
L 1259 4666
L 1259 2753
L 3553 2753
L 3553 4666
L 4184 4666
L 4184 0
L 3553 0
L 3553 2222
L 1259 2222
L 1259 0
L 628 0
L 628 4666
z
" transform="scale(0.015625)"/>
       <path id="DejaVuSans-4f" d="M 2522 4238
Q 1834 4238 1429 3725
Q 1025 3213 1025 2328
Q 1025 1447 1429 934
Q 1834 422 2522 422
Q 3209 422 3611 934
Q 4013 1447 4013 2328
Q 4013 3213 3611 3725
Q 3209 4238 2522 4238
z
M 2522 4750
Q 3503 4750 4090 4092
Q 4678 3434 4678 2328
Q 4678 1225 4090 567
Q 3503 -91 2522 -91
Q 1538 -91 948 565
Q 359 1222 359 2328
Q 359 3434 948 4092
Q 1538 4750 2522 4750
z
" transform="scale(0.015625)"/>
       <path id="DejaVuSans-6d" d="M 3328 2828
Q 3544 3216 3844 3400
Q 4144 3584 4550 3584
Q 5097 3584 5394 3201
Q 5691 2819 5691 2113
L 5691 0
L 5113 0
L 5113 2094
Q 5113 2597 4934 2840
Q 4756 3084 4391 3084
Q 3944 3084 3684 2787
Q 3425 2491 3425 1978
L 3425 0
L 2847 0
L 2847 2094
Q 2847 2600 2669 2842
Q 2491 3084 2119 3084
Q 1678 3084 1418 2786
Q 1159 2488 1159 1978
L 1159 0
L 581 0
L 581 3500
L 1159 3500
L 1159 2956
Q 1356 3278 1631 3431
Q 1906 3584 2284 3584
Q 2666 3584 2933 3390
Q 3200 3197 3328 2828
z
" transform="scale(0.015625)"/>
      </defs>
      <use xlink:href="#DejaVuSans-52"/>
      <use xlink:href="#DejaVuSans-44" x="69.482422"/>
      <use xlink:href="#DejaVuSans-48" x="146.484375"/>
      <use xlink:href="#DejaVuSans-4f" x="221.679688"/>
      <use xlink:href="#DejaVuSans-20" x="300.390625"/>
      <use xlink:href="#DejaVuSans-70" x="332.177734"/>
      <use xlink:href="#DejaVuSans-72" x="395.654297"/>
      <use xlink:href="#DejaVuSans-65" x="434.517578"/>
      <use xlink:href="#DejaVuSans-2d" x="496.041016"/>
      <use xlink:href="#DejaVuSans-72" x="532.125"/>
      <use xlink:href="#DejaVuSans-65" x="570.988281"/>
      <use xlink:href="#DejaVuSans-66" x="632.511719"/>
      <use xlink:href="#DejaVuSans-69" x="667.716797"/>
      <use xlink:href="#DejaVuSans-6e" x="695.5"/>
      <use xlink:href="#DejaVuSans-65" x="758.878906"/>
      <use xlink:href="#DejaVuSans-6d" x="820.402344"/>
      <use xlink:href="#DejaVuSans-65" x="917.814453"/>
      <use xlink:href="#DejaVuSans-6e" x="979.337891"/>
      <use xlink:href="#DejaVuSans-74" x="1042.716797"/>
     </g>
    </g>
    <g id="line2d_40">
     <path d="M 456.00625 39.463637
L 466.00625 39.463637
L 476.00625 39.463637
" style="fill: none; stroke: #ed7d31; stroke-width: 2; stroke-linecap: square"/>
    </g>
    <g id="text_20">
     <!-- RIME -->
     <g transform="translate(484.00625 42.963637) scale(0.1 -0.1)">
      <defs>
       <path id="DejaVuSans-4d" d="M 628 4666
L 1569 4666
L 2759 1491
L 3956 4666
L 4897 4666
L 4897 0
L 4281 0
L 4281 4097
L 3078 897
L 2444 897
L 1241 4097
L 1241 0
L 628 0
L 628 4666
z
" transform="scale(0.015625)"/>
       <path id="DejaVuSans-45" d="M 628 4666
L 3578 4666
L 3578 4134
L 1259 4134
L 1259 2753
L 3481 2753
L 3481 2222
L 1259 2222
L 1259 531
L 3634 531
L 3634 0
L 628 0
L 628 4666
z
" transform="scale(0.015625)"/>
      </defs>
      <use xlink:href="#DejaVuSans-52"/>
      <use xlink:href="#DejaVuSans-49" x="69.482422"/>
      <use xlink:href="#DejaVuSans-4d" x="98.974609"/>
      <use xlink:href="#DejaVuSans-45" x="185.253906"/>
     </g>
    </g>
    <g id="line2d_41">
     <path d="M 456.00625 54.141762
L 466.00625 54.141762
L 476.00625 54.141762
" style="fill: none; stroke: #5b9bd5; stroke-width: 2; stroke-linecap: square"/>
    </g>
    <g id="text_21">
     <!-- DBO -->
     <g transform="translate(484.00625 57.641762) scale(0.1 -0.1)">
      <defs>
       <path id="DejaVuSans-42" d="M 1259 2228
L 1259 519
L 2272 519
Q 2781 519 3026 730
Q 3272 941 3272 1375
Q 3272 1813 3026 2020
Q 2781 2228 2272 2228
L 1259 2228
z
M 1259 4147
L 1259 2741
L 2194 2741
Q 2656 2741 2882 2914
Q 3109 3088 3109 3444
Q 3109 3797 2882 3972
Q 2656 4147 2194 4147
L 1259 4147
z
M 628 4666
L 2241 4666
Q 2963 4666 3353 4366
Q 3744 4066 3744 3513
Q 3744 3084 3544 2831
Q 3344 2578 2956 2516
Q 3422 2416 3680 2098
Q 3938 1781 3938 1306
Q 3938 681 3513 340
Q 3088 0 2303 0
L 628 0
L 628 4666
z
" transform="scale(0.015625)"/>
      </defs>
      <use xlink:href="#DejaVuSans-44"/>
      <use xlink:href="#DejaVuSans-42" x="77.001953"/>
      <use xlink:href="#DejaVuSans-4f" x="143.855469"/>
     </g>
    </g>
    <g id="line2d_42">
     <path d="M 456.00625 68.819887
L 466.00625 68.819887
L 476.00625 68.819887
" style="fill: none; stroke: #c55a11; stroke-width: 2; stroke-linecap: square"/>
    </g>
    <g id="text_22">
     <!-- TLBO-HHO -->
     <g transform="translate(484.00625 72.319887) scale(0.1 -0.1)">
      <defs>
       <path id="DejaVuSans-54" d="M -19 4666
L 3928 4666
L 3928 4134
L 2272 4134
L 2272 0
L 1638 0
L 1638 4134
L -19 4134
L -19 4666
z
" transform="scale(0.015625)"/>
       <path id="DejaVuSans-4c" d="M 628 4666
L 1259 4666
L 1259 531
L 3531 531
L 3531 0
L 628 0
L 628 4666
z
" transform="scale(0.015625)"/>
      </defs>
      <use xlink:href="#DejaVuSans-54"/>
      <use xlink:href="#DejaVuSans-4c" x="61.083984"/>
      <use xlink:href="#DejaVuSans-42" x="116.796875"/>
      <use xlink:href="#DejaVuSans-4f" x="183.650391"/>
      <use xlink:href="#DejaVuSans-2d" x="265.111328"/>
      <use xlink:href="#DejaVuSans-48" x="301.195312"/>
      <use xlink:href="#DejaVuSans-48" x="376.390625"/>
      <use xlink:href="#DejaVuSans-4f" x="451.585938"/>
     </g>
    </g>
    <g id="line2d_43">
     <path d="M 456.00625 83.498012
L 466.00625 83.498012
L 476.00625 83.498012
" style="fill: none; stroke: #70ad47; stroke-width: 2; stroke-linecap: square"/>
    </g>
    <g id="text_23">
     <!-- CWTSSA -->
     <g transform="translate(484.00625 86.998012) scale(0.1 -0.1)">
      <defs>
       <path id="DejaVuSans-43" d="M 4122 4306
L 4122 3641
Q 3803 3938 3442 4084
Q 3081 4231 2675 4231
Q 1875 4231 1450 3742
Q 1025 3253 1025 2328
Q 1025 1406 1450 917
Q 1875 428 2675 428
Q 3081 428 3442 575
Q 3803 722 4122 1019
L 4122 359
Q 3791 134 3420 21
Q 3050 -91 2638 -91
Q 1578 -91 968 557
Q 359 1206 359 2328
Q 359 3453 968 4101
Q 1578 4750 2638 4750
Q 3056 4750 3426 4639
Q 3797 4528 4122 4306
z
" transform="scale(0.015625)"/>
       <path id="DejaVuSans-57" d="M 213 4666
L 850 4666
L 1831 722
L 2809 4666
L 3519 4666
L 4500 722
L 5478 4666
L 6119 4666
L 4947 0
L 4153 0
L 3169 4050
L 2175 0
L 1381 0
L 213 4666
z
" transform="scale(0.015625)"/>
       <path id="DejaVuSans-53" d="M 3425 4513
L 3425 3897
Q 3066 4069 2747 4153
Q 2428 4238 2131 4238
Q 1616 4238 1336 4038
Q 1056 3838 1056 3469
Q 1056 3159 1242 3001
Q 1428 2844 1947 2747
L 2328 2669
Q 3034 2534 3370 2195
Q 3706 1856 3706 1288
Q 3706 609 3251 259
Q 2797 -91 1919 -91
Q 1588 -91 1214 -16
Q 841 59 441 206
L 441 856
Q 825 641 1194 531
Q 1563 422 1919 422
Q 2459 422 2753 634
Q 3047 847 3047 1241
Q 3047 1584 2836 1778
Q 2625 1972 2144 2069
L 1759 2144
Q 1053 2284 737 2584
Q 422 2884 422 3419
Q 422 4038 858 4394
Q 1294 4750 2059 4750
Q 2388 4750 2728 4690
Q 3069 4631 3425 4513
z
" transform="scale(0.015625)"/>
       <path id="DejaVuSans-41" d="M 2188 4044
L 1331 1722
L 3047 1722
L 2188 4044
z
M 1831 4666
L 2547 4666
L 4325 0
L 3669 0
L 3244 1197
L 1141 1197
L 716 0
L 50 0
L 1831 4666
z
" transform="scale(0.015625)"/>
      </defs>
      <use xlink:href="#DejaVuSans-43"/>
      <use xlink:href="#DejaVuSans-57" x="69.824219"/>
      <use xlink:href="#DejaVuSans-54" x="168.701172"/>
      <use xlink:href="#DejaVuSans-53" x="229.785156"/>
      <use xlink:href="#DejaVuSans-53" x="293.261719"/>
      <use xlink:href="#DejaVuSans-41" x="358.613281"/>
     </g>
    </g>
    <g id="line2d_44">
     <path d="M 456.00625 98.176137
L 466.00625 98.176137
L 476.00625 98.176137
" style="fill: none; stroke: #8064a2; stroke-width: 2; stroke-linecap: square"/>
    </g>
    <g id="text_24">
     <!-- Greedy-ED reference -->
     <g transform="translate(484.00625 101.676137) scale(0.1 -0.1)">
      <defs>
       <path id="DejaVuSans-47" d="M 3809 666
L 3809 1919
L 2778 1919
L 2778 2438
L 4434 2438
L 4434 434
Q 4069 175 3628 42
Q 3188 -91 2688 -91
Q 1594 -91 976 548
Q 359 1188 359 2328
Q 359 3472 976 4111
Q 1594 4750 2688 4750
Q 3144 4750 3555 4637
Q 3966 4525 4313 4306
L 4313 3634
Q 3963 3931 3569 4081
Q 3175 4231 2741 4231
Q 1884 4231 1454 3753
Q 1025 3275 1025 2328
Q 1025 1384 1454 906
Q 1884 428 2741 428
Q 3075 428 3337 486
Q 3600 544 3809 666
z
" transform="scale(0.015625)"/>
       <path id="DejaVuSans-79" d="M 2059 -325
Q 1816 -950 1584 -1140
Q 1353 -1331 966 -1331
L 506 -1331
L 506 -850
L 844 -850
Q 1081 -850 1212 -737
Q 1344 -625 1503 -206
L 1606 56
L 191 3500
L 800 3500
L 1894 763
L 2988 3500
L 3597 3500
L 2059 -325
z
" transform="scale(0.015625)"/>
      </defs>
      <use xlink:href="#DejaVuSans-47"/>
      <use xlink:href="#DejaVuSans-72" x="77.490234"/>
      <use xlink:href="#DejaVuSans-65" x="116.353516"/>
      <use xlink:href="#DejaVuSans-65" x="177.876953"/>
      <use xlink:href="#DejaVuSans-64" x="239.400391"/>
      <use xlink:href="#DejaVuSans-79" x="302.876953"/>
      <use xlink:href="#DejaVuSans-2d" x="360.306641"/>
      <use xlink:href="#DejaVuSans-45" x="396.390625"/>
      <use xlink:href="#DejaVuSans-44" x="459.574219"/>
      <use xlink:href="#DejaVuSans-20" x="536.576172"/>
      <use xlink:href="#DejaVuSans-72" x="568.363281"/>
      <use xlink:href="#DejaVuSans-65" x="607.226562"/>
      <use xlink:href="#DejaVuSans-66" x="668.75"/>
      <use xlink:href="#DejaVuSans-65" x="703.955078"/>
      <use xlink:href="#DejaVuSans-72" x="765.478516"/>
      <use xlink:href="#DejaVuSans-65" x="804.341797"/>
      <use xlink:href="#DejaVuSans-6e" x="865.865234"/>
      <use xlink:href="#DejaVuSans-63" x="929.244141"/>
      <use xlink:href="#DejaVuSans-65" x="984.224609"/>
     </g>
    </g>
   </g>
  </g>
 </g>
 <defs>
  <clipPath id="peb476fb65d">
   <rect x="54.2" y="11.687075" width="547" height="320.752925"/>
  </clipPath>
 </defs>
</svg>
