<?xml version="1.0" encoding="utf-8" standalone="no"?>
<!DOCTYPE svg PUBLIC "-//W3C//DTD SVG 1.1//EN"
  "http://www.w3.org/Graphics/SVG/1.1/DTD/svg11.dtd">
<svg xmlns:xlink="http://www.w3.org/1999/xlink" width="612pt" height="374.4pt" viewBox="0 0 612 374.4" xmlns="http://www.w3.org/2000/svg" version="1.1">
 <metadata>
  <rdf:RDF xmlns:dc="http://purl.org/dc/elements/1.1/" xmlns:cc="http://creativecommons.org/ns#" xmlns:rdf="http://www.w3.org/1999/02/22-rdf-syntax-ns#">
   <cc:Work>
    <dc:type rdf:resource="http://purl.org/dc/dcmitype/StillImage"/>
    <dc:date>2026-07-23T16:44:37.403482</dc:date>
    <dc:format>image/svg+xml</dc:format>
    <dc:creator>
     <cc:Agent>
      <dc:title>Matplotlib v3.9.4, https://matplotlib.org/</dc:title>
     </cc:Agent>
    </dc:creator>
   </cc:Work>
  </rdf:RDF>
 </metadata>
 <defs>
  <style type="text/css">*{stroke-linejoin: round; stroke-linecap: butt}</style>
 </defs>
 <g id="figure_1">
  <g id="patch_1">
   <path d="M 0 374.4
L 612 374.4
L 612 0
L 0 0
z
" style="fill: #ffffff"/>
  </g>
  <g id="axes_1">
   <g id="patch_2">
    <path d="M 47.81 332.44
L 601.2 332.44
L 601.2 10.8
L 47.81 10.8
z
" style="fill: #ffffff"/>
   </g>
   <g id="matplotlib.axis_1">
    <g id="xtick_1">
     <g id="line2d_1">
      <path d="M 72.964091 332.44
L 72.964091 10.8
" clip-path="url(#pc73ce3d880)" style="fill: none; stroke: #b0b0b0; stroke-opacity: 0.25; stroke-width: 0.8; stroke-linecap: square"/>
     </g>
     <g id="line2d_2">
      <defs>
       <path id="m7f0818dfa9" d="M 0 0
L 0 3.5
" style="stroke: #000000; stroke-width: 0.8"/>
      </defs>
      <g>
       <use xlink:href="#m7f0818dfa9" x="72.964091" y="332.44" style="stroke: #000000; stroke-width: 0.8"/>
      </g>
     </g>
     <g id="text_1">
      <!-- 0 -->
      <g transform="translate(69.782841 347.038437) scale(0.1 -0.1)">
       <defs>
        <path id="DejaVuSans-30" d="M 2034 4250
Q 1547 4250 1301 3770
Q 1056 3291 1056 2328
Q 1056 1369 1301 889
Q 1547 409 2034 409
Q 2525 409 2770 889
Q 3016 1369 3016 2328
Q 3016 3291 2770 3770
Q 2525 4250 2034 4250
z
M 2034 4750
Q 2819 4750 3233 4129
Q 3647 3509 3647 2328
Q 3647 1150 3233 529
Q 2819 -91 2034 -91
Q 1250 -91 836 529
Q 422 1150 422 2328
Q 422 3509 836 4129
Q 1250 4750 2034 4750
z
" transform="scale(0.015625)"/>
       </defs>
       <use xlink:href="#DejaVuSans-30"/>
      </g>
     </g>
    </g>
    <g id="xtick_2">
     <g id="line2d_3">
      <path d="M 140.041667 332.44
L 140.041667 10.8
" clip-path="url(#pc73ce3d880)" style="fill: none; stroke: #b0b0b0; stroke-opacity: 0.25; stroke-width: 0.8; stroke-linecap: square"/>
     </g>
     <g id="line2d_4">
      <g>
       <use xlink:href="#m7f0818dfa9" x="140.041667" y="332.44" style="stroke: #000000; stroke-width: 0.8"/>
      </g>
     </g>
     <g id="text_2">
      <!-- 20 -->
      <g transform="translate(133.679167 347.038437) scale(0.1 -0.1)">
       <defs>
        <path id="DejaVuSans-32" d="M 1228 531
L 3431 531
L 3431 0
L 469 0
L 469 531
Q 828 903 1448 1529
Q 2069 2156 2228 2338
Q 2531 2678 2651 2914
Q 2772 3150 2772 3378
Q 2772 3750 2511 3984
Q 2250 4219 1831 4219
Q 1534 4219 1204 4116
Q 875 4013 500 3803
L 500 4441
Q 881 4594 1212 4672
Q 1544 4750 1819 4750
Q 2544 4750 2975 4387
Q 3406 4025 3406 3419
Q 3406 3131 3298 2873
Q 3191 2616 2906 2266
Q 2828 2175 2409 1742
Q 1991 1309 1228 531
z
" transform="scale(0.015625)"/>
       </defs>
       <use xlink:href="#DejaVuSans-32"/>
       <use xlink:href="#DejaVuSans-30" x="63.623047"/>
      </g>
     </g>
    </g>
    <g id="xtick_3">
     <g id="line2d_5">
      <path d="M 207.119242 332.44
L 207.119242 10.8
" clip-path="url(#pc73ce3d880)" style="fill: none; stroke: #b0b0b0; stroke-opacity: 0.25; stroke-width: 0.8; stroke-linecap: square"/>
     </g>
     <g id="line2d_6">
      <g>
       <use xlink:href="#m7f0818dfa9" x="207.119242" y="332.44" style="stroke: #000000; stroke-width: 0.8"/>
      </g>
     </g>
     <g id="text_3">
      <!-- 40 -->
      <g transform="translate(200.756742 347.038437) scale(0.1 -0.1)">
       <defs>
        <path id="DejaVuSans-34" d="M 2419 4116
L 825 1625
L 2419 1625
L 2419 4116
z
M 2253 4666
L 3047 4666
L 3047 1625
L 3713 1625
L 3713 1100
L 3047 1100
L 3047 0
L 2419 0
L 2419 1100
L 313 1100
L 313 1709
L 2253 4666
z
" transform="scale(0.015625)"/>
       </defs>
       <use xlink:href="#DejaVuSans-34"/>
       <use xlink:href="#DejaVuSans-30" x="63.623047"/>
      </g>
     </g>
    </g>
    <g id="xtick_4">
     <g id="line2d_7">
      <path d="M 274.196818 332.44
L 274.196818 10.8
" clip-path="url(#pc73ce3d880)" style="fill: none; stroke: #b0b0b0; stroke-opacity: 0.25; stroke-width: 0.8; stroke-linecap: square"/>
     </g>
     <g id="line2d_8">
      <g>
       <use xlink:href="#m7f0818dfa9" x="274.196818" y="332.44" style="stroke: #000000; stroke-width: 0.8"/>
      </g>
     </g>
     <g id="text_4">
      <!-- 60 -->
      <g transform="translate(267.834318 347.038437) scale(0.1 -0.1)">
       <defs>
        <path id="DejaVuSans-36" d="M 2113 2584
Q 1688 2584 1439 2293
Q 1191 2003 1191 1497
Q 1191 994 1439 701
Q 1688 409 2113 409
Q 2538 409 2786 701
Q 3034 994 3034 1497
Q 3034 2003 2786 2293
Q 2538 2584 2113 2584
z
M 3366 4563
L 3366 3988
Q 3128 4100 2886 4159
Q 2644 4219 2406 4219
Q 1781 4219 1451 3797
Q 1122 3375 1075 2522
Q 1259 2794 1537 2939
Q 1816 3084 2150 3084
Q 2853 3084 3261 2657
Q 3669 2231 3669 1497
Q 3669 778 3244 343
Q 2819 -91 2113 -91
Q 1303 -91 875 529
Q 447 1150 447 2328
Q 447 3434 972 4092
Q 1497 4750 2381 4750
Q 2619 4750 2861 4703
Q 3103 4656 3366 4563
z
" transform="scale(0.015625)"/>
       </defs>
       <use xlink:href="#DejaVuSans-36"/>
       <use xlink:href="#DejaVuSans-30" x="63.623047"/>
      </g>
     </g>
    </g>
    <g id="xtick_5">
     <g id="line2d_9">
      <path d="M 341.274394 332.44
L 341.274394 10.8
" clip-path="url(#pc73ce3d880)" style="fill: none; stroke: #b0b0b0; stroke-opacity: 0.25; stroke-width: 0.8; stroke-linecap: square"/>
     </g>
     <g id="line2d_10">
      <g>
       <use xlink:href="#m7f0818dfa9" x="341.274394" y="332.44" style="stroke: #000000; stroke-width: 0.8"/>
      </g>
     </g>
     <g id="text_5">
      <!-- 80 -->
      <g transform="translate(334.911894 347.038437) scale(0.1 -0.1)">
       <defs>
        <path id="DejaVuSans-38" d="M 2034 2216
Q 1584 2216 1326 1975
Q 1069 1734 1069 1313
Q 1069 891 1326 650
Q 1584 409 2034 409
Q 2484 409 2743 651
Q 3003 894 3003 1313
Q 3003 1734 2745 1975
Q 2488 2216 2034 2216
z
M 1403 2484
Q 997 2584 770 2862
Q 544 3141 544 3541
Q 544 4100 942 4425
Q 1341 4750 2034 4750
Q 2731 4750 3128 4425
Q 3525 4100 3525 3541
Q 3525 3141 3298 2862
Q 3072 2584 2669 2484
Q 3125 2378 3379 2068
Q 3634 1759 3634 1313
Q 3634 634 3220 271
Q 2806 -91 2034 -91
Q 1263 -91 848 271
Q 434 634 434 1313
Q 434 1759 690 2068
Q 947 2378 1403 2484
z
M 1172 3481
Q 1172 3119 1398 2916
Q 1625 2713 2034 2713
Q 2441 2713 2670 2916
Q 2900 3119 2900 3481
Q 2900 3844 2670 4047
Q 2441 4250 2034 4250
Q 1625 4250 1398 4047
Q 1172 3844 1172 3481
z
" transform="scale(0.015625)"/>
       </defs>
       <use xlink:href="#DejaVuSans-38"/>
       <use xlink:href="#DejaVuSans-30" x="63.623047"/>
      </g>
     </g>
    </g>
    <g id="xtick_6">
     <g id="line2d_11">
      <path d="M 408.35197 332.44
L 408.35197 10.8
" clip-path="url(#pc73ce3d880)" style="fill: none; stroke: #b0b0b0; stroke-opacity: 0.25; stroke-width: 0.8; stroke-linecap: square"/>
     </g>
     <g id="line2d_12">
      <g>
       <use xlink:href="#m7f0818dfa9" x="408.35197" y="332.44" style="stroke: #000000; stroke-width: 0.8"/>
      </g>
     </g>
     <g id="text_6">
      <!-- 100 -->
      <g transform="translate(398.80822 347.038437) scale(0.1 -0.1)">
       <defs>
        <path id="DejaVuSans-31" d="M 794 531
L 1825 531
L 1825 4091
L 703 3866
L 703 4441
L 1819 4666
L 2450 4666
L 2450 531
L 3481 531
L 3481 0
L 794 0
L 794 531
z
" transform="scale(0.015625)"/>
       </defs>
       <use xlink:href="#DejaVuSans-31"/>
       <use xlink:href="#DejaVuSans-30" x="63.623047"/>
       <use xlink:href="#DejaVuSans-30" x="127.246094"/>
      </g>
     </g>
    </g>
    <g id="xtick_7">
     <g id="line2d_13">
      <path d="M 475.429545 332.44
L 475.429545 10.8
" clip-path="url(#pc73ce3d880)" style="fill: none; stroke: #b0b0b0; stroke-opacity: 0.25; stroke-width: 0.8; stroke-linecap: square"/>
     </g>
     <g id="line2d_14">
      <g>
       <use xlink:href="#m7f0818dfa9" x="475.429545" y="332.44" style="stroke: #000000; stroke-width: 0.8"/>
      </g>
     </g>
     <g id="text_7">
      <!-- 120 -->
      <g transform="translate(465.885795 347.038437) scale(0.1 -0.1)">
       <use xlink:href="#DejaVuSans-31"/>
       <use xlink:href="#DejaVuSans-32" x="63.623047"/>
       <use xlink:href="#DejaVuSans-30" x="127.246094"/>
      </g>
     </g>
    </g>
    <g id="xtick_8">
     <g id="line2d_15">
      <path d="M 542.507121 332.44
L 542.507121 10.8
" clip-path="url(#pc73ce3d880)" style="fill: none; stroke: #b0b0b0; stroke-opacity: 0.25; stroke-width: 0.8; stroke-linecap: square"/>
     </g>
     <g id="line2d_16">
      <g>
       <use xlink:href="#m7f0818dfa9" x="542.507121" y="332.44" style="stroke: #000000; stroke-width: 0.8"/>
      </g>
     </g>
     <g id="text_8">
      <!-- 140 -->
      <g transform="translate(532.963371 347.038437) scale(0.1 -0.1)">
       <use xlink:href="#DejaVuSans-31"/>
       <use xlink:href="#DejaVuSans-34" x="63.623047"/>
       <use xlink:href="#DejaVuSans-30" x="127.246094"/>
      </g>
     </g>
    </g>
    <g id="text_9">
     <!-- Iteration -->
     <g transform="translate(303.296406 360.716563) scale(0.1 -0.1)">
      <defs>
       <path id="DejaVuSans-49" d="M 628 4666
L 1259 4666
L 1259 0
L 628 0
L 628 4666
z
" transform="scale(0.015625)"/>
       <path id="DejaVuSans-74" d="M 1172 4494
L 1172 3500
L 2356 3500
L 2356 3053
L 1172 3053
L 1172 1153
Q 1172 725 1289 603
Q 1406 481 1766 481
L 2356 481
L 2356 0
L 1766 0
Q 1100 0 847 248
Q 594 497 594 1153
L 594 3053
L 172 3053
L 172 3500
L 594 3500
L 594 4494
L 1172 4494
z
" transform="scale(0.015625)"/>
       <path id="DejaVuSans-65" d="M 3597 1894
L 3597 1613
L 953 1613
Q 991 1019 1311 708
Q 1631 397 2203 397
Q 2534 397 2845 478
Q 3156 559 3463 722
L 3463 178
Q 3153 47 2828 -22
Q 2503 -91 2169 -91
Q 1331 -91 842 396
Q 353 884 353 1716
Q 353 2575 817 3079
Q 1281 3584 2069 3584
Q 2775 3584 3186 3129
Q 3597 2675 3597 1894
z
M 3022 2063
Q 3016 2534 2758 2815
Q 2500 3097 2075 3097
Q 1594 3097 1305 2825
Q 1016 2553 972 2059
L 3022 2063
z
" transform="scale(0.015625)"/>
       <path id="DejaVuSans-72" d="M 2631 2963
Q 2534 3019 2420 3045
Q 2306 3072 2169 3072
Q 1681 3072 1420 2755
Q 1159 2438 1159 1844
L 1159 0
L 581 0
L 581 3500
L 1159 3500
L 1159 2956
Q 1341 3275 1631 3429
Q 1922 3584 2338 3584
Q 2397 3584 2469 3576
Q 2541 3569 2628 3553
L 2631 2963
z
" transform="scale(0.015625)"/>
       <path id="DejaVuSans-61" d="M 2194 1759
Q 1497 1759 1228 1600
Q 959 1441 959 1056
Q 959 750 1161 570
Q 1363 391 1709 391
Q 2188 391 2477 730
Q 2766 1069 2766 1631
L 2766 1759
L 2194 1759
z
M 3341 1997
L 3341 0
L 2766 0
L 2766 531
Q 2569 213 2275 61
Q 1981 -91 1556 -91
Q 1019 -91 701 211
Q 384 513 384 1019
Q 384 1609 779 1909
Q 1175 2209 1959 2209
L 2766 2209
L 2766 2266
Q 2766 2663 2505 2880
Q 2244 3097 1772 3097
Q 1472 3097 1187 3025
Q 903 2953 641 2809
L 641 3341
Q 956 3463 1253 3523
Q 1550 3584 1831 3584
Q 2591 3584 2966 3190
Q 3341 2797 3341 1997
z
" transform="scale(0.015625)"/>
       <path id="DejaVuSans-69" d="M 603 3500
L 1178 3500
L 1178 0
L 603 0
L 603 3500
z
M 603 4863
L 1178 4863
L 1178 4134
L 603 4134
L 603 4863
z
" transform="scale(0.015625)"/>
       <path id="DejaVuSans-6f" d="M 1959 3097
Q 1497 3097 1228 2736
Q 959 2375 959 1747
Q 959 1119 1226 758
Q 1494 397 1959 397
Q 2419 397 2687 759
Q 2956 1122 2956 1747
Q 2956 2369 2687 2733
Q 2419 3097 1959 3097
z
M 1959 3584
Q 2709 3584 3137 3096
Q 3566 2609 3566 1747
Q 3566 888 3137 398
Q 2709 -91 1959 -91
Q 1206 -91 779 398
Q 353 888 353 1747
Q 353 2609 779 3096
Q 1206 3584 1959 3584
z
" transform="scale(0.015625)"/>
       <path id="DejaVuSans-6e" d="M 3513 2113
L 3513 0
L 2938 0
L 2938 2094
Q 2938 2591 2744 2837
Q 2550 3084 2163 3084
Q 1697 3084 1428 2787
Q 1159 2491 1159 1978
L 1159 0
L 581 0
L 581 3500
L 1159 3500
L 1159 2956
Q 1366 3272 1645 3428
Q 1925 3584 2291 3584
Q 2894 3584 3203 3211
Q 3513 2838 3513 2113
z
" transform="scale(0.015625)"/>
      </defs>
      <use xlink:href="#DejaVuSans-49"/>
      <use xlink:href="#DejaVuSans-74" x="29.492188"/>
      <use xlink:href="#DejaVuSans-65" x="68.701172"/>
      <use xlink:href="#DejaVuSans-72" x="130.224609"/>
      <use xlink:href="#DejaVuSans-61" x="171.337891"/>
      <use xlink:href="#DejaVuSans-74" x="232.617188"/>
      <use xlink:href="#DejaVuSans-69" x="271.826172"/>
      <use xlink:href="#DejaVuSans-6f" x="299.609375"/>
      <use xlink:href="#DejaVuSans-6e" x="360.791016"/>
     </g>
    </g>
   </g>
   <g id="matplotlib.axis_2">
    <g id="ytick_1">
     <g id="line2d_17">
      <path d="M 47.81 316.764519
L 601.2 316.764519
" clip-path="url(#pc73ce3d880)" style="fill: none; stroke: #b0b0b0; stroke-opacity: 0.25; stroke-width: 0.8; stroke-linecap: square"/>
     </g>
     <g id="line2d_18">
      <defs>
       <path id="m27151c3e76" d="M 0 0
L -3.5 0
" style="stroke: #000000; stroke-width: 0.8"/>
      </defs>
      <g>
       <use xlink:href="#m27151c3e76" x="47.81" y="316.764519" style="stroke: #000000; stroke-width: 0.8"/>
      </g>
     </g>
     <g id="text_10">
      <!-- 1.0 -->
      <g transform="translate(24.906875 320.563738) scale(0.1 -0.1)">
       <defs>
        <path id="DejaVuSans-2e" d="M 684 794
L 1344 794
L 1344 0
L 684 0
L 684 794
z
" transform="scale(0.015625)"/>
       </defs>
       <use xlink:href="#DejaVuSans-31"/>
       <use xlink:href="#DejaVuSans-2e" x="63.623047"/>
       <use xlink:href="#DejaVuSans-30" x="95.410156"/>
      </g>
     </g>
    </g>
    <g id="ytick_2">
     <g id="line2d_19">
      <path d="M 47.81 276.870291
L 601.2 276.870291
" clip-path="url(#pc73ce3d880)" style="fill: none; stroke: #b0b0b0; stroke-opacity: 0.25; stroke-width: 0.8; stroke-linecap: square"/>
     </g>
     <g id="line2d_20">
      <g>
       <use xlink:href="#m27151c3e76" x="47.81" y="276.870291" style="stroke: #000000; stroke-width: 0.8"/>
      </g>
     </g>
     <g id="text_11">
      <!-- 1.2 -->
      <g transform="translate(24.906875 280.66951) scale(0.1 -0.1)">
       <use xlink:href="#DejaVuSans-31"/>
       <use xlink:href="#DejaVuSans-2e" x="63.623047"/>
       <use xlink:href="#DejaVuSans-32" x="95.410156"/>
      </g>
     </g>
    </g>
    <g id="ytick_3">
     <g id="line2d_21">
      <path d="M 47.81 236.976064
L 601.2 236.976064
" clip-path="url(#pc73ce3d880)" style="fill: none; stroke: #b0b0b0; stroke-opacity: 0.25; stroke-width: 0.8; stroke-linecap: square"/>
     </g>
     <g id="line2d_22">
      <g>
       <use xlink:href="#m27151c3e76" x="47.81" y="236.976064" style="stroke: #000000; stroke-width: 0.8"/>
      </g>
     </g>
     <g id="text_12">
      <!-- 1.4 -->
      <g transform="translate(24.906875 240.775282) scale(0.1 -0.1)">
       <use xlink:href="#DejaVuSans-31"/>
       <use xlink:href="#DejaVuSans-2e" x="63.623047"/>
       <use xlink:href="#DejaVuSans-34" x="95.410156"/>
      </g>
     </g>
    </g>
    <g id="ytick_4">
     <g id="line2d_23">
      <path d="M 47.81 197.081836
L 601.2 197.081836
" clip-path="url(#pc73ce3d880)" style="fill: none; stroke: #b0b0b0; stroke-opacity: 0.25; stroke-width: 0.8; stroke-linecap: square"/>
     </g>
     <g id="line2d_24">
      <g>
       <use xlink:href="#m27151c3e76" x="47.81" y="197.081836" style="stroke: #000000; stroke-width: 0.8"/>
      </g>
     </g>
     <g id="text_13">
      <!-- 1.6 -->
      <g transform="translate(24.906875 200.881055) scale(0.1 -0.1)">
       <use xlink:href="#DejaVuSans-31"/>
       <use xlink:href="#DejaVuSans-2e" x="63.623047"/>
       <use xlink:href="#DejaVuSans-36" x="95.410156"/>
      </g>
     </g>
    </g>
    <g id="ytick_5">
     <g id="line2d_25">
      <path d="M 47.81 157.187608
L 601.2 157.187608
" clip-path="url(#pc73ce3d880)" style="fill: none; stroke: #b0b0b0; stroke-opacity: 0.25; stroke-width: 0.8; stroke-linecap: square"/>
     </g>
     <g id="line2d_26">
      <g>
       <use xlink:href="#m27151c3e76" x="47.81" y="157.187608" style="stroke: #000000; stroke-width: 0.8"/>
      </g>
     </g>
     <g id="text_14">
      <!-- 1.8 -->
      <g transform="translate(24.906875 160.986827) scale(0.1 -0.1)">
       <use xlink:href="#DejaVuSans-31"/>
       <use xlink:href="#DejaVuSans-2e" x="63.623047"/>
       <use xlink:href="#DejaVuSans-38" x="95.410156"/>
      </g>
     </g>
    </g>
    <g id="ytick_6">
     <g id="line2d_27">
      <path d="M 47.81 117.293381
L 601.2 117.293381
" clip-path="url(#pc73ce3d880)" style="fill: none; stroke: #b0b0b0; stroke-opacity: 0.25; stroke-width: 0.8; stroke-linecap: square"/>
     </g>
     <g id="line2d_28">
      <g>
       <use xlink:href="#m27151c3e76" x="47.81" y="117.293381" style="stroke: #000000; stroke-width: 0.8"/>
      </g>
     </g>
     <g id="text_15">
      <!-- 2.0 -->
      <g transform="translate(24.906875 121.092599) scale(0.1 -0.1)">
       <use xlink:href="#DejaVuSans-32"/>
       <use xlink:href="#DejaVuSans-2e" x="63.623047"/>
       <use xlink:href="#DejaVuSans-30" x="95.410156"/>
      </g>
     </g>
    </g>
    <g id="ytick_7">
     <g id="line2d_29">
      <path d="M 47.81 77.399153
L 601.2 77.399153
" clip-path="url(#pc73ce3d880)" style="fill: none; stroke: #b0b0b0; stroke-opacity: 0.25; stroke-width: 0.8; stroke-linecap: square"/>
     </g>
     <g id="line2d_30">
      <g>
       <use xlink:href="#m27151c3e76" x="47.81" y="77.399153" style="stroke: #000000; stroke-width: 0.8"/>
      </g>
     </g>
     <g id="text_16">
      <!-- 2.2 -->
      <g transform="translate(24.906875 81.198372) scale(0.1 -0.1)">
       <use xlink:href="#DejaVuSans-32"/>
       <use xlink:href="#DejaVuSans-2e" x="63.623047"/>
       <use xlink:href="#DejaVuSans-32" x="95.410156"/>
      </g>
     </g>
    </g>
    <g id="ytick_8">
     <g id="line2d_31">
      <path d="M 47.81 37.504925
L 601.2 37.504925
" clip-path="url(#pc73ce3d880)" style="fill: none; stroke: #b0b0b0; stroke-opacity: 0.25; stroke-width: 0.8; stroke-linecap: square"/>
     </g>
     <g id="line2d_32">
      <g>
       <use xlink:href="#m27151c3e76" x="47.81" y="37.504925" style="stroke: #000000; stroke-width: 0.8"/>
      </g>
     </g>
     <g id="text_17">
      <!-- 2.4 -->
      <g transform="translate(24.906875 41.304144) scale(0.1 -0.1)">
       <use xlink:href="#DejaVuSans-32"/>
       <use xlink:href="#DejaVuSans-2e" x="63.623047"/>
       <use xlink:href="#DejaVuSans-34" x="95.410156"/>
      </g>
     </g>
    </g>
    <g id="text_18">
     <!-- Fixed-reference reporting fitness -->
     <g transform="translate(18.827188 252.993438) rotate(-90) scale(0.1 -0.1)">
      <defs>
       <path id="DejaVuSans-46" d="M 628 4666
L 3309 4666
L 3309 4134
L 1259 4134
L 1259 2759
L 3109 2759
L 3109 2228
L 1259 2228
L 1259 0
L 628 0
L 628 4666
z
" transform="scale(0.015625)"/>
       <path id="DejaVuSans-78" d="M 3513 3500
L 2247 1797
L 3578 0
L 2900 0
L 1881 1375
L 863 0
L 184 0
L 1544 1831
L 300 3500
L 978 3500
L 1906 2253
L 2834 3500
L 3513 3500
z
" transform="scale(0.015625)"/>
       <path id="DejaVuSans-64" d="M 2906 2969
L 2906 4863
L 3481 4863
L 3481 0
L 2906 0
L 2906 525
Q 2725 213 2448 61
Q 2172 -91 1784 -91
Q 1150 -91 751 415
Q 353 922 353 1747
Q 353 2572 751 3078
Q 1150 3584 1784 3584
Q 2172 3584 2448 3432
Q 2725 3281 2906 2969
z
M 947 1747
Q 947 1113 1208 752
Q 1469 391 1925 391
Q 2381 391 2643 752
Q 2906 1113 2906 1747
Q 2906 2381 2643 2742
Q 2381 3103 1925 3103
Q 1469 3103 1208 2742
Q 947 2381 947 1747
z
" transform="scale(0.015625)"/>
       <path id="DejaVuSans-2d" d="M 313 2009
L 1997 2009
L 1997 1497
L 313 1497
L 313 2009
z
" transform="scale(0.015625)"/>
       <path id="DejaVuSans-66" d="M 2375 4863
L 2375 4384
L 1825 4384
Q 1516 4384 1395 4259
Q 1275 4134 1275 3809
L 1275 3500
L 2222 3500
L 2222 3053
L 1275 3053
L 1275 0
L 697 0
L 697 3053
L 147 3053
L 147 3500
L 697 3500
L 697 3744
Q 697 4328 969 4595
Q 1241 4863 1831 4863
L 2375 4863
z
" transform="scale(0.015625)"/>
       <path id="DejaVuSans-63" d="M 3122 3366
L 3122 2828
Q 2878 2963 2633 3030
Q 2388 3097 2138 3097
Q 1578 3097 1268 2742
Q 959 2388 959 1747
Q 959 1106 1268 751
Q 1578 397 2138 397
Q 2388 397 2633 464
Q 2878 531 3122 666
L 3122 134
Q 2881 22 2623 -34
Q 2366 -91 2075 -91
Q 1284 -91 818 406
Q 353 903 353 1747
Q 353 2603 823 3093
Q 1294 3584 2113 3584
Q 2378 3584 2631 3529
Q 2884 3475 3122 3366
z
" transform="scale(0.015625)"/>
       <path id="DejaVuSans-20" transform="scale(0.015625)"/>
       <path id="DejaVuSans-70" d="M 1159 525
L 1159 -1331
L 581 -1331
L 581 3500
L 1159 3500
L 1159 2969
Q 1341 3281 1617 3432
Q 1894 3584 2278 3584
Q 2916 3584 3314 3078
Q 3713 2572 3713 1747
Q 3713 922 3314 415
Q 2916 -91 2278 -91
Q 1894 -91 1617 61
Q 1341 213 1159 525
z
M 3116 1747
Q 3116 2381 2855 2742
Q 2594 3103 2138 3103
Q 1681 3103 1420 2742
Q 1159 2381 1159 1747
Q 1159 1113 1420 752
Q 1681 391 2138 391
Q 2594 391 2855 752
Q 3116 1113 3116 1747
z
" transform="scale(0.015625)"/>
       <path id="DejaVuSans-67" d="M 2906 1791
Q 2906 2416 2648 2759
Q 2391 3103 1925 3103
Q 1463 3103 1205 2759
Q 947 2416 947 1791
Q 947 1169 1205 825
Q 1463 481 1925 481
Q 2391 481 2648 825
Q 2906 1169 2906 1791
z
M 3481 434
Q 3481 -459 3084 -895
Q 2688 -1331 1869 -1331
Q 1566 -1331 1297 -1286
Q 1028 -1241 775 -1147
L 775 -588
Q 1028 -725 1275 -790
Q 1522 -856 1778 -856
Q 2344 -856 2625 -561
Q 2906 -266 2906 331
L 2906 616
Q 2728 306 2450 153
Q 2172 0 1784 0
Q 1141 0 747 490
Q 353 981 353 1791
Q 353 2603 747 3093
Q 1141 3584 1784 3584
Q 2172 3584 2450 3431
Q 2728 3278 2906 2969
L 2906 3500
L 3481 3500
L 3481 434
z
" transform="scale(0.015625)"/>
       <path id="DejaVuSans-73" d="M 2834 3397
L 2834 2853
Q 2591 2978 2328 3040
Q 2066 3103 1784 3103
Q 1356 3103 1142 2972
Q 928 2841 928 2578
Q 928 2378 1081 2264
Q 1234 2150 1697 2047
L 1894 2003
Q 2506 1872 2764 1633
Q 3022 1394 3022 966
Q 3022 478 2636 193
Q 2250 -91 1575 -91
Q 1294 -91 989 -36
Q 684 19 347 128
L 347 722
Q 666 556 975 473
Q 1284 391 1588 391
Q 1994 391 2212 530
Q 2431 669 2431 922
Q 2431 1156 2273 1281
Q 2116 1406 1581 1522
L 1381 1569
Q 847 1681 609 1914
Q 372 2147 372 2553
Q 372 3047 722 3315
Q 1072 3584 1716 3584
Q 2034 3584 2315 3537
Q 2597 3491 2834 3397
z
" transform="scale(0.015625)"/>
      </defs>
      <use xlink:href="#DejaVuSans-46"/>
      <use xlink:href="#DejaVuSans-69" x="50.269531"/>
      <use xlink:href="#DejaVuSans-78" x="78.052734"/>
      <use xlink:href="#DejaVuSans-65" x="134.107422"/>
      <use xlink:href="#DejaVuSans-64" x="195.630859"/>
      <use xlink:href="#DejaVuSans-2d" x="259.107422"/>
      <use xlink:href="#DejaVuSans-72" x="295.191406"/>
      <use xlink:href="#DejaVuSans-65" x="334.054688"/>
      <use xlink:href="#DejaVuSans-66" x="395.578125"/>
      <use xlink:href="#DejaVuSans-65" x="430.783203"/>
      <use xlink:href="#DejaVuSans-72" x="492.306641"/>
      <use xlink:href="#DejaVuSans-65" x="531.169922"/>
      <use xlink:href="#DejaVuSans-6e" x="592.693359"/>
      <use xlink:href="#DejaVuSans-63" x="656.072266"/>
      <use xlink:href="#DejaVuSans-65" x="711.052734"/>
      <use xlink:href="#DejaVuSans-20" x="772.576172"/>
      <use xlink:href="#DejaVuSans-72" x="804.363281"/>
      <use xlink:href="#DejaVuSans-65" x="843.226562"/>
      <use xlink:href="#DejaVuSans-70" x="904.75"/>
      <use xlink:href="#DejaVuSans-6f" x="968.226562"/>
      <use xlink:href="#DejaVuSans-72" x="1029.408203"/>
      <use xlink:href="#DejaVuSans-74" x="1070.521484"/>
      <use xlink:href="#DejaVuSans-69" x="1109.730469"/>
      <use xlink:href="#DejaVuSans-6e" x="1137.513672"/>
      <use xlink:href="#DejaVuSans-67" x="1200.892578"/>
      <use xlink:href="#DejaVuSans-20" x="1264.369141"/>
      <use xlink:href="#DejaVuSans-66" x="1296.15625"/>
      <use xlink:href="#DejaVuSans-69" x="1331.361328"/>
      <use xlink:href="#DejaVuSans-74" x="1359.144531"/>
      <use xlink:href="#DejaVuSans-6e" x="1398.353516"/>
      <use xlink:href="#DejaVuSans-65" x="1461.732422"/>
      <use xlink:href="#DejaVuSans-73" x="1523.255859"/>
      <use xlink:href="#DejaVuSans-73" x="1575.355469"/>
     </g>
    </g>
   </g>
   <g id="line2d_33">
    <path d="M 72.964091 25.42
L 76.31797 70.170902
L 79.671848 97.982707
L 83.025727 114.24312
L 86.379606 123.185773
L 89.733485 130.865166
L 96.441242 140.121219
L 99.795121 142.931014
L 103.149 146.514533
L 106.502879 149.592484
L 109.856758 151.798565
L 113.210636 154.354401
L 116.564515 155.415279
L 119.918394 156.797228
L 123.272273 157.962768
L 126.626152 158.836837
L 129.98003 159.897998
L 140.041667 162.395238
L 143.395545 162.992936
L 146.749424 164.364131
L 150.103303 165.26516
L 153.457182 165.869671
L 156.811061 166.869832
L 163.518818 167.556136
L 166.872697 168.365915
L 173.580455 169.527034
L 183.642091 170.833313
L 186.99597 171.755018
L 190.349848 172.223784
L 193.703727 173.043019
L 197.057606 173.294165
L 200.411485 173.696787
L 203.765364 174.30892
L 210.473121 174.7967
L 213.827 175.212801
L 223.888636 177.070815
L 230.596394 177.523377
L 240.65803 178.655975
L 244.011909 178.854454
L 247.365788 179.885073
L 250.719667 180.147186
L 254.073545 180.543971
L 257.427424 181.336524
L 267.489061 181.949527
L 270.842939 182.45948
L 277.550697 182.820276
L 280.904576 183.16796
L 284.258455 183.285873
L 290.966212 183.77805
L 301.027848 184.348006
L 321.151121 185.381233
L 368.105424 187.517563
L 378.167061 187.689397
L 388.228697 188.146102
L 415.059727 188.912644
L 418.413606 189.375333
L 431.829121 189.838608
L 445.244636 190.337215
L 482.137303 191.094906
L 492.198939 191.276555
L 522.383848 191.619947
L 525.737727 191.765132
L 542.507121 192.038641
L 555.922636 192.168615
L 576.045909 192.364359
L 576.045909 192.364359
" clip-path="url(#pc73ce3d880)" style="fill: none; stroke: #666666; stroke-width: 2; stroke-linecap: square"/>
   </g>
   <g id="line2d_34">
    <path d="M 72.964091 25.42
L 76.31797 99.382638
L 79.671848 131.436971
L 83.025727 148.741253
L 86.379606 162.59964
L 89.733485 169.213583
L 96.441242 183.298862
L 99.795121 189.759706
L 103.149 194.98129
L 106.502879 198.863638
L 109.856758 205.518335
L 116.564515 216.127599
L 119.918394 218.434089
L 123.272273 221.444008
L 126.626152 223.715027
L 129.98003 225.085983
L 133.333909 227.582143
L 140.041667 231.492203
L 143.395545 232.568232
L 146.749424 234.476272
L 150.103303 235.908063
L 153.457182 237.209346
L 156.811061 238.883196
L 160.164939 239.915577
L 163.518818 241.806784
L 166.872697 242.43625
L 173.580455 244.461971
L 176.934333 245.092922
L 180.288212 245.935173
L 183.642091 246.899966
L 186.99597 248.304784
L 193.703727 250.0142
L 197.057606 250.699651
L 203.765364 251.578275
L 207.119242 251.954581
L 210.473121 252.641041
L 217.180879 253.543747
L 220.534758 254.330188
L 227.242515 255.03829
L 230.596394 255.859978
L 233.950273 256.315179
L 237.304152 256.647217
L 240.65803 257.247903
L 247.365788 257.756156
L 250.719667 258.852773
L 260.781303 260.230019
L 264.135182 260.396401
L 267.489061 260.702365
L 270.842939 260.848366
L 274.196818 261.603756
L 280.904576 261.856948
L 284.258455 262.17419
L 287.612333 262.318353
L 290.966212 262.586148
L 297.67397 263.608585
L 304.381727 263.959733
L 307.735606 264.29305
L 311.089485 264.916921
L 314.443364 265.241924
L 321.151121 265.635973
L 324.505 266.119393
L 334.566636 266.853812
L 344.628273 267.475664
L 354.689909 268.102844
L 368.105424 268.570008
L 374.813182 268.867286
L 401.644212 269.856282
L 404.998091 270.209187
L 411.705848 270.484816
L 418.413606 270.839272
L 425.121364 271.311427
L 435.183 271.94321
L 445.244636 272.585857
L 451.952394 272.72482
L 465.367909 273.382431
L 475.429545 273.603703
L 482.137303 273.993249
L 508.968333 274.767375
L 515.676091 274.905453
L 525.737727 275.449719
L 532.445485 275.614397
L 535.799364 275.855469
L 539.153242 275.960205
L 542.507121 276.201625
L 552.568758 276.459001
L 572.69203 277.017364
L 576.045909 277.174737
L 576.045909 277.174737
" clip-path="url(#pc73ce3d880)" style="fill: none; stroke: #666666; stroke-width: 2; stroke-linecap: square"/>
   </g>
   <g id="line2d_35">
    <path d="M 72.964091 25.42
L 76.31797 76.969638
L 79.671848 105.698936
L 83.025727 117.906324
L 86.379606 125.37833
L 89.733485 131.863099
L 93.087364 137.302147
L 99.795121 143.289272
L 103.149 145.921663
L 106.502879 148.407402
L 109.856758 149.581613
L 113.210636 151.181034
L 116.564515 152.553348
L 119.918394 154.555194
L 123.272273 155.196485
L 126.626152 156.390236
L 129.98003 158.786875
L 136.687788 161.01454
L 140.041667 162.286094
L 143.395545 163.377275
L 146.749424 164.162906
L 150.103303 164.817205
L 153.457182 165.681306
L 166.872697 168.202398
L 170.226576 168.942461
L 173.580455 169.816187
L 176.934333 170.952019
L 193.703727 172.645333
L 197.057606 173.275056
L 203.765364 173.80914
L 217.180879 174.609594
L 227.242515 175.753473
L 230.596394 175.867083
L 244.011909 177.204698
L 250.719667 177.536127
L 254.073545 177.947027
L 257.427424 178.201279
L 260.781303 178.303571
L 264.135182 178.576177
L 267.489061 178.689295
L 270.842939 179.11312
L 290.966212 180.24649
L 294.320091 180.680816
L 301.027848 181.020806
L 311.089485 181.621389
L 314.443364 181.791992
L 321.151121 181.904016
L 347.982152 182.988226
L 358.043788 183.477852
L 361.397667 183.69995
L 374.813182 184.018904
L 381.520939 184.303919
L 391.582576 184.521655
L 394.936455 184.724081
L 404.998091 184.878055
L 428.475242 185.291653
L 435.183 185.485875
L 448.598515 185.770413
L 455.306273 185.908363
L 512.322212 186.953101
L 555.922636 187.464426
L 576.045909 187.525301
L 576.045909 187.525301
" clip-path="url(#pc73ce3d880)" style="fill: none; stroke: #666666; stroke-width: 2; stroke-linecap: square"/>
   </g>
   <g id="line2d_36">
    <path d="M 72.964091 25.42
L 76.31797 97.866596
L 79.671848 131.428976
L 83.025727 149.895104
L 86.379606 165.516924
L 89.733485 174.951826
L 93.087364 180.49656
L 96.441242 187.047664
L 99.795121 192.607208
L 103.149 196.104812
L 106.502879 202.048615
L 109.856758 206.371717
L 113.210636 211.176124
L 116.564515 214.154932
L 123.272273 217.525463
L 126.626152 220.080938
L 129.98003 221.923352
L 133.333909 223.16237
L 136.687788 225.409907
L 140.041667 227.185164
L 143.395545 228.61432
L 146.749424 230.890479
L 150.103303 232.474838
L 156.811061 234.080759
L 160.164939 235.411499
L 163.518818 236.518681
L 166.872697 237.457273
L 170.226576 239.194299
L 173.580455 240.160749
L 176.934333 241.822817
L 180.288212 242.28573
L 186.99597 244.292937
L 190.349848 244.829307
L 193.703727 245.133447
L 197.057606 246.782236
L 200.411485 247.979905
L 203.765364 248.502951
L 207.119242 249.15221
L 210.473121 249.657826
L 213.827 250.684165
L 217.180879 251.245
L 223.888636 252.817388
L 230.596394 254.189576
L 233.950273 254.851928
L 237.304152 255.650544
L 240.65803 256.570756
L 244.011909 257.236514
L 247.365788 257.645925
L 250.719667 258.6034
L 254.073545 259.134177
L 260.781303 259.739493
L 270.842939 261.302789
L 274.196818 262.142833
L 277.550697 262.810702
L 280.904576 263.307638
L 284.258455 263.683791
L 294.320091 265.306964
L 297.67397 265.943374
L 304.381727 266.60716
L 307.735606 267.060883
L 311.089485 267.294856
L 321.151121 268.441243
L 327.858879 269.156709
L 331.212758 269.319935
L 334.566636 269.605084
L 337.920515 269.72481
L 341.274394 270.036071
L 351.33603 270.502749
L 354.689909 270.796028
L 361.397667 271.759757
L 374.813182 272.73929
L 381.520939 273.082293
L 394.936455 273.983155
L 408.35197 274.47795
L 411.705848 274.898876
L 425.121364 275.556928
L 428.475242 275.887156
L 431.829121 276.060336
L 435.183 276.397865
L 455.306273 277.224551
L 458.660152 277.298025
L 462.01403 278.035037
L 465.367909 278.357012
L 475.429545 278.825688
L 478.783424 279.134463
L 485.491182 279.345738
L 488.845061 279.756042
L 495.552818 280.199153
L 508.968333 280.509295
L 515.676091 280.766112
L 522.383848 281.149432
L 535.799364 281.799801
L 545.861 282.369379
L 549.214879 282.586048
L 555.922636 282.725932
L 562.630394 283.148366
L 565.984273 283.337308
L 572.69203 283.541086
L 576.045909 283.718521
L 576.045909 283.718521
" clip-path="url(#pc73ce3d880)" style="fill: none; stroke: #666666; stroke-width: 2; stroke-linecap: square"/>
   </g>
   <g id="line2d_37">
    <path d="M 72.964091 25.42
L 76.31797 38.915573
L 79.671848 47.759058
L 83.025727 60.773504
L 86.379606 68.938621
L 89.733485 78.095583
L 93.087364 87.682133
L 96.441242 94.655041
L 99.795121 103.35245
L 103.149 110.980028
L 109.856758 129.989064
L 113.210636 135.999375
L 116.564515 144.98734
L 119.918394 149.880229
L 123.272273 155.622087
L 126.626152 163.680984
L 129.98003 168.6855
L 133.333909 176.283552
L 136.687788 181.331914
L 140.041667 187.452016
L 146.749424 197.318896
L 150.103303 204.036109
L 153.457182 207.254241
L 156.811061 212.487136
L 160.164939 215.951195
L 170.226576 225.39865
L 173.580455 227.932943
L 176.934333 232.568231
L 180.288212 234.367465
L 183.642091 237.346284
L 186.99597 239.831229
L 193.703727 242.561727
L 197.057606 243.612904
L 200.411485 246.237999
L 207.119242 249.609046
L 213.827 252.252926
L 217.180879 253.125608
L 220.534758 254.542893
L 223.888636 255.619275
L 230.596394 257.129218
L 233.950273 257.592847
L 237.304152 258.307237
L 240.65803 258.650796
L 244.011909 259.253085
L 247.365788 260.009544
L 250.719667 260.441434
L 257.427424 261.561969
L 264.135182 262.175435
L 270.842939 262.958081
L 274.196818 263.084399
L 277.550697 263.568045
L 284.258455 263.675085
L 287.612333 264.088369
L 294.320091 264.364497
L 304.381727 264.504099
L 307.735606 264.562602
L 314.443364 265.246498
L 317.797242 265.246498
L 321.151121 265.574701
L 324.505 265.574701
L 347.982152 266.481044
L 358.043788 266.559894
L 364.751545 266.660582
L 381.520939 267.120809
L 384.874818 267.120809
L 388.228697 267.36783
L 394.936455 267.438905
L 404.998091 267.480458
L 438.536879 267.562243
L 458.660152 267.885228
L 462.01403 268.095066
L 475.429545 268.204856
L 519.02997 268.52026
L 522.383848 268.769532
L 559.276515 268.866071
L 572.69203 268.970167
L 576.045909 268.970167
L 576.045909 268.970167
" clip-path="url(#pc73ce3d880)" style="fill: none; stroke: #666666; stroke-width: 2; stroke-linecap: square"/>
   </g>
   <g id="line2d_38">
    <path d="M 72.964091 298.164684
L 93.087364 298.164684
L 96.441242 298.581482
L 103.149 298.581482
L 106.502879 298.819467
L 109.856758 298.913548
L 116.564515 299.432475
L 119.918394 301.210175
L 123.272273 301.681089
L 126.626152 302.685664
L 129.98003 303.320549
L 133.333909 303.774485
L 136.687788 304.644726
L 140.041667 305.840474
L 146.749424 307.296319
L 150.103303 307.857495
L 153.457182 308.64746
L 156.811061 309.233442
L 160.164939 310.062901
L 173.580455 311.998632
L 183.642091 312.544119
L 186.99597 312.759201
L 190.349848 313.184028
L 193.703727 313.399214
L 197.057606 313.75569
L 203.765364 314.172168
L 207.119242 314.589942
L 220.534758 314.944715
L 237.304152 315.498406
L 267.489061 315.914945
L 270.842939 316.162893
L 274.196818 316.18311
L 277.550697 316.533049
L 284.258455 316.658567
L 317.797242 316.819718
L 354.689909 317.100207
L 381.520939 317.198453
L 388.228697 317.267693
L 505.614455 317.49105
L 512.322212 317.55224
L 552.568758 317.688478
L 576.045909 317.82
L 576.045909 317.82
" clip-path="url(#pc73ce3d880)" style="fill: none; stroke: #666666; stroke-width: 2; stroke-linecap: square"/>
   </g>
   <g id="patch_3">
    <path d="M 47.81 332.44
L 47.81 10.8
" style="fill: none; stroke: #000000; stroke-width: 0.8; stroke-linejoin: miter; stroke-linecap: square"/>
   </g>
   <g id="patch_4">
    <path d="M 601.2 332.44
L 601.2 10.8
" style="fill: none; stroke: #000000; stroke-width: 0.8; stroke-linejoin: miter; stroke-linecap: square"/>
   </g>
   <g id="patch_5">
    <path d="M 47.81 332.44
L 601.2 332.44
" style="fill: none; stroke: #000000; stroke-width: 0.8; stroke-linejoin: miter; stroke-linecap: square"/>
   </g>
   <g id="patch_6">
    <path d="M 47.81 10.8
L 601.2 10.8
" style="fill: none; stroke: #000000; stroke-width: 0.8; stroke-linejoin: miter; stroke-linecap: square"/>
   </g>
   <g id="legend_1">
    <g id="patch_7">
     <path d="M 438.334375 106.86875
L 594.2 106.86875
Q 596.2 106.86875 596.2 104.86875
L 596.2 17.8
Q 596.2 15.8 594.2 15.8
L 438.334375 15.8
Q 436.334375 15.8 436.334375 17.8
L 436.334375 104.86875
Q 436.334375 106.86875 438.334375 106.86875
z
" style="fill: #ffffff; opacity: 0.8; stroke: #cccccc; stroke-linejoin: miter"/>
    </g>
    <g id="line2d_39">
     <path d="M 440.334375 23.898438
L 450.334375 23.898438
L 460.334375 23.898438
" style="fill: none; stroke: #666666; stroke-width: 2; stroke-linecap: square"/>
    </g>
    <g id="text_19">
     <!-- RIME-common-init -->
     <g transform="translate(468.334375 27.398438) scale(0.1 -0.1)">
      <defs>
       <path id="DejaVuSans-52" d="M 2841 2188
Q 3044 2119 3236 1894
Q 3428 1669 3622 1275
L 4263 0
L 3584 0
L 2988 1197
Q 2756 1666 2539 1819
Q 2322 1972 1947 1972
L 1259 1972
L 1259 0
L 628 0
L 628 4666
L 2053 4666
Q 2853 4666 3247 4331
Q 3641 3997 3641 3322
Q 3641 2881 3436 2590
Q 3231 2300 2841 2188
z
M 1259 4147
L 1259 2491
L 2053 2491
Q 2509 2491 2742 2702
Q 2975 2913 2975 3322
Q 2975 3731 2742 3939
Q 2509 4147 2053 4147
L 1259 4147
z
" transform="scale(0.015625)"/>
       <path id="DejaVuSans-4d" d="M 628 4666
L 1569 4666
L 2759 1491
L 3956 4666
L 4897 4666
L 4897 0
L 4281 0
L 4281 4097
L 3078 897
L 2444 897
L 1241 4097
L 1241 0
L 628 0
L 628 4666
z
" transform="scale(0.015625)"/>
       <path id="DejaVuSans-45" d="M 628 4666
L 3578 4666
L 3578 4134
L 1259 4134
L 1259 2753
L 3481 2753
L 3481 2222
L 1259 2222
L 1259 531
L 3634 531
L 3634 0
L 628 0
L 628 4666
z
" transform="scale(0.015625)"/>
       <path id="DejaVuSans-6d" d="M 3328 2828
Q 3544 3216 3844 3400
Q 4144 3584 4550 3584
Q 5097 3584 5394 3201
Q 5691 2819 5691 2113
L 5691 0
L 5113 0
L 5113 2094
Q 5113 2597 4934 2840
Q 4756 3084 4391 3084
Q 3944 3084 3684 2787
Q 3425 2491 3425 1978
L 3425 0
L 2847 0
L 2847 2094
Q 2847 2600 2669 2842
Q 2491 3084 2119 3084
Q 1678 3084 1418 2786
Q 1159 2488 1159 1978
L 1159 0
L 581 0
L 581 3500
L 1159 3500
L 1159 2956
Q 1356 3278 1631 3431
Q 1906 3584 2284 3584
Q 2666 3584 2933 3390
Q 3200 3197 3328 2828
z
" transform="scale(0.015625)"/>
      </defs>
      <use xlink:href="#DejaVuSans-52"/>
      <use xlink:href="#DejaVuSans-49" x="69.482422"/>
      <use xlink:href="#DejaVuSans-4d" x="98.974609"/>
      <use xlink:href="#DejaVuSans-45" x="185.253906"/>
      <use xlink:href="#DejaVuSans-2d" x="248.4375"/>
      <use xlink:href="#DejaVuSans-63" x="284.521484"/>
      <use xlink:href="#DejaVuSans-6f" x="339.501953"/>
      <use xlink:href="#DejaVuSans-6d" x="400.683594"/>
      <use xlink:href="#DejaVuSans-6d" x="498.095703"/>
      <use xlink:href="#DejaVuSans-6f" x="595.507812"/>
      <use xlink:href="#DejaVuSans-6e" x="656.689453"/>
      <use xlink:href="#DejaVuSans-2d" x="720.068359"/>
      <use xlink:href="#DejaVuSans-69" x="756.152344"/>
      <use xlink:href="#DejaVuSans-6e" x="783.935547"/>
      <use xlink:href="#DejaVuSans-69" x="847.314453"/>
      <use xlink:href="#DejaVuSans-74" x="875.097656"/>
     </g>
    </g>
    <g id="line2d_40">
     <path d="M 440.334375 38.576563
L 450.334375 38.576563
L 460.334375 38.576563
" style="fill: none; stroke: #666666; stroke-width: 2; stroke-linecap: square"/>
    </g>
    <g id="text_20">
     <!-- DBO-common-init -->
     <g transform="translate(468.334375 42.076563) scale(0.1 -0.1)">
      <defs>
       <path id="DejaVuSans-44" d="M 1259 4147
L 1259 519
L 2022 519
Q 2988 519 3436 956
Q 3884 1394 3884 2338
Q 3884 3275 3436 3711
Q 2988 4147 2022 4147
L 1259 4147
z
M 628 4666
L 1925 4666
Q 3281 4666 3915 4102
Q 4550 3538 4550 2338
Q 4550 1131 3912 565
Q 3275 0 1925 0
L 628 0
L 628 4666
z
" transform="scale(0.015625)"/>
       <path id="DejaVuSans-42" d="M 1259 2228
L 1259 519
L 2272 519
Q 2781 519 3026 730
Q 3272 941 3272 1375
Q 3272 1813 3026 2020
Q 2781 2228 2272 2228
L 1259 2228
z
M 1259 4147
L 1259 2741
L 2194 2741
Q 2656 2741 2882 2914
Q 3109 3088 3109 3444
Q 3109 3797 2882 3972
Q 2656 4147 2194 4147
L 1259 4147
z
M 628 4666
L 2241 4666
Q 2963 4666 3353 4366
Q 3744 4066 3744 3513
Q 3744 3084 3544 2831
Q 3344 2578 2956 2516
Q 3422 2416 3680 2098
Q 3938 1781 3938 1306
Q 3938 681 3513 340
Q 3088 0 2303 0
L 628 0
L 628 4666
z
" transform="scale(0.015625)"/>
       <path id="DejaVuSans-4f" d="M 2522 4238
Q 1834 4238 1429 3725
Q 1025 3213 1025 2328
Q 1025 1447 1429 934
Q 1834 422 2522 422
Q 3209 422 3611 934
Q 4013 1447 4013 2328
Q 4013 3213 3611 3725
Q 3209 4238 2522 4238
z
M 2522 4750
Q 3503 4750 4090 4092
Q 4678 3434 4678 2328
Q 4678 1225 4090 567
Q 3503 -91 2522 -91
Q 1538 -91 948 565
Q 359 1222 359 2328
Q 359 3434 948 4092
Q 1538 4750 2522 4750
z
" transform="scale(0.015625)"/>
      </defs>
      <use xlink:href="#DejaVuSans-44"/>
      <use xlink:href="#DejaVuSans-42" x="77.001953"/>
      <use xlink:href="#DejaVuSans-4f" x="143.855469"/>
      <use xlink:href="#DejaVuSans-2d" x="225.316406"/>
      <use xlink:href="#DejaVuSans-63" x="261.400391"/>
      <use xlink:href="#DejaVuSans-6f" x="316.380859"/>
      <use xlink:href="#DejaVuSans-6d" x="377.5625"/>
      <use xlink:href="#DejaVuSans-6d" x="474.974609"/>
      <use xlink:href="#DejaVuSans-6f" x="572.386719"/>
      <use xlink:href="#DejaVuSans-6e" x="633.568359"/>
      <use xlink:href="#DejaVuSans-2d" x="696.947266"/>
      <use xlink:href="#DejaVuSans-69" x="733.03125"/>
      <use xlink:href="#DejaVuSans-6e" x="760.814453"/>
      <use xlink:href="#DejaVuSans-69" x="824.193359"/>
      <use xlink:href="#DejaVuSans-74" x="851.976562"/>
     </g>
    </g>
    <g id="line2d_41">
     <path d="M 440.334375 53.254688
L 450.334375 53.254688
L 460.334375 53.254688
" style="fill: none; stroke: #666666; stroke-width: 2; stroke-linecap: square"/>
    </g>
    <g id="text_21">
     <!-- RIME-common-init-refine -->
     <g transform="translate(468.334375 56.754688) scale(0.1 -0.1)">
      <use xlink:href="#DejaVuSans-52"/>
      <use xlink:href="#DejaVuSans-49" x="69.482422"/>
      <use xlink:href="#DejaVuSans-4d" x="98.974609"/>
      <use xlink:href="#DejaVuSans-45" x="185.253906"/>
      <use xlink:href="#DejaVuSans-2d" x="248.4375"/>
      <use xlink:href="#DejaVuSans-63" x="284.521484"/>
      <use xlink:href="#DejaVuSans-6f" x="339.501953"/>
      <use xlink:href="#DejaVuSans-6d" x="400.683594"/>
      <use xlink:href="#DejaVuSans-6d" x="498.095703"/>
      <use xlink:href="#DejaVuSans-6f" x="595.507812"/>
      <use xlink:href="#DejaVuSans-6e" x="656.689453"/>
      <use xlink:href="#DejaVuSans-2d" x="720.068359"/>
      <use xlink:href="#DejaVuSans-69" x="756.152344"/>
      <use xlink:href="#DejaVuSans-6e" x="783.935547"/>
      <use xlink:href="#DejaVuSans-69" x="847.314453"/>
      <use xlink:href="#DejaVuSans-74" x="875.097656"/>
      <use xlink:href="#DejaVuSans-2d" x="914.306641"/>
      <use xlink:href="#DejaVuSans-72" x="950.390625"/>
      <use xlink:href="#DejaVuSans-65" x="989.253906"/>
      <use xlink:href="#DejaVuSans-66" x="1050.777344"/>
      <use xlink:href="#DejaVuSans-69" x="1085.982422"/>
      <use xlink:href="#DejaVuSans-6e" x="1113.765625"/>
      <use xlink:href="#DejaVuSans-65" x="1177.144531"/>
     </g>
    </g>
    <g id="line2d_42">
     <path d="M 440.334375 67.932813
L 450.334375 67.932813
L 460.334375 67.932813
" style="fill: none; stroke: #666666; stroke-width: 2; stroke-linecap: square"/>
    </g>
    <g id="text_22">
     <!-- DBO-common-init-refine -->
     <g transform="translate(468.334375 71.432813) scale(0.1 -0.1)">
      <use xlink:href="#DejaVuSans-44"/>
      <use xlink:href="#DejaVuSans-42" x="77.001953"/>
      <use xlink:href="#DejaVuSans-4f" x="143.855469"/>
      <use xlink:href="#DejaVuSans-2d" x="225.316406"/>
      <use xlink:href="#DejaVuSans-63" x="261.400391"/>
      <use xlink:href="#DejaVuSans-6f" x="316.380859"/>
      <use xlink:href="#DejaVuSans-6d" x="377.5625"/>
      <use xlink:href="#DejaVuSans-6d" x="474.974609"/>
      <use xlink:href="#DejaVuSans-6f" x="572.386719"/>
      <use xlink:href="#DejaVuSans-6e" x="633.568359"/>
      <use xlink:href="#DejaVuSans-2d" x="696.947266"/>
      <use xlink:href="#DejaVuSans-69" x="733.03125"/>
      <use xlink:href="#DejaVuSans-6e" x="760.814453"/>
      <use xlink:href="#DejaVuSans-69" x="824.193359"/>
      <use xlink:href="#DejaVuSans-74" x="851.976562"/>
      <use xlink:href="#DejaVuSans-2d" x="891.185547"/>
      <use xlink:href="#DejaVuSans-72" x="927.269531"/>
      <use xlink:href="#DejaVuSans-65" x="966.132812"/>
      <use xlink:href="#DejaVuSans-66" x="1027.65625"/>
      <use xlink:href="#DejaVuSans-69" x="1062.861328"/>
      <use xlink:href="#DejaVuSans-6e" x="1090.644531"/>
      <use xlink:href="#DejaVuSans-65" x="1154.023438"/>
     </g>
    </g>
    <g id="line2d_43">
     <path d="M 440.334375 82.610938
L 450.334375 82.610938
L 460.334375 82.610938
" style="fill: none; stroke: #666666; stroke-width: 2; stroke-linecap: square"/>
    </g>
    <g id="text_23">
     <!-- RDHO-core -->
     <g transform="translate(468.334375 86.110938) scale(0.1 -0.1)">
      <defs>
       <path id="DejaVuSans-48" d="M 628 4666
L 1259 4666
L 1259 2753
L 3553 2753
L 3553 4666
L 4184 4666
L 4184 0
L 3553 0
L 3553 2222
L 1259 2222
L 1259 0
L 628 0
L 628 4666
z
" transform="scale(0.015625)"/>
      </defs>
      <use xlink:href="#DejaVuSans-52"/>
      <use xlink:href="#DejaVuSans-44" x="69.482422"/>
      <use xlink:href="#DejaVuSans-48" x="146.484375"/>
      <use xlink:href="#DejaVuSans-4f" x="221.679688"/>
      <use xlink:href="#DejaVuSans-2d" x="303.140625"/>
      <use xlink:href="#DejaVuSans-63" x="339.224609"/>
      <use xlink:href="#DejaVuSans-6f" x="394.205078"/>
      <use xlink:href="#DejaVuSans-72" x="455.386719"/>
      <use xlink:href="#DejaVuSans-65" x="494.25"/>
     </g>
    </g>
    <g id="line2d_44">
     <path d="M 440.334375 97.289063
L 450.334375 97.289063
L 460.334375 97.289063
" style="fill: none; stroke: #666666; stroke-width: 2; stroke-linecap: square"/>
    </g>
    <g id="text_24">
     <!-- RDHO-full -->
     <g transform="translate(468.334375 100.789063) scale(0.1 -0.1)">
      <defs>
       <path id="DejaVuSans-75" d="M 544 1381
L 544 3500
L 1119 3500
L 1119 1403
Q 1119 906 1312 657
Q 1506 409 1894 409
Q 2359 409 2629 706
Q 2900 1003 2900 1516
L 2900 3500
L 3475 3500
L 3475 0
L 2900 0
L 2900 538
Q 2691 219 2414 64
Q 2138 -91 1772 -91
Q 1169 -91 856 284
Q 544 659 544 1381
z
M 1991 3584
L 1991 3584
z
" transform="scale(0.015625)"/>
       <path id="DejaVuSans-6c" d="M 603 4863
L 1178 4863
L 1178 0
L 603 0
L 603 4863
z
" transform="scale(0.015625)"/>
      </defs>
      <use xlink:href="#DejaVuSans-52"/>
      <use xlink:href="#DejaVuSans-44" x="69.482422"/>
      <use xlink:href="#DejaVuSans-48" x="146.484375"/>
      <use xlink:href="#DejaVuSans-4f" x="221.679688"/>
      <use xlink:href="#DejaVuSans-2d" x="303.140625"/>
      <use xlink:href="#DejaVuSans-66" x="339.224609"/>
      <use xlink:href="#DejaVuSans-75" x="374.429688"/>
      <use xlink:href="#DejaVuSans-6c" x="437.808594"/>
      <use xlink:href="#DejaVuSans-6c" x="465.591797"/>
     </g>
    </g>
   </g>
  </g>
 </g>
 <defs>
  <clipPath id="pc73ce3d880">
   <rect x="47.81" y="10.8" width="553.39" height="321.64"/>
  </clipPath>
 </defs>
</svg>
