<?xml version="1.0" encoding="utf-8" standalone="no"?>
<!DOCTYPE svg PUBLIC "-//W3C//DTD SVG 1.1//EN"
  "http://www.w3.org/Graphics/SVG/1.1/DTD/svg11.dtd">
<svg xmlns:xlink="http://www.w3.org/1999/xlink" width="612pt" height="374.4pt" viewBox="0 0 612 374.4" xmlns="http://www.w3.org/2000/svg" version="1.1">
 <metadata>
  <rdf:RDF xmlns:dc="http://purl.org/dc/elements/1.1/" xmlns:cc="http://creativecommons.org/ns#" xmlns:rdf="http://www.w3.org/1999/02/22-rdf-syntax-ns#">
   <cc:Work>
    <dc:type rdf:resource="http://purl.org/dc/dcmitype/StillImage"/>
    <dc:date>2026-07-23T16:44:36.757322</dc:date>
    <dc:format>image/svg+xml</dc:format>
    <dc:creator>
     <cc:Agent>
      <dc:title>Matplotlib v3.9.4, https://matplotlib.org/</dc:title>
     </cc:Agent>
    </dc:creator>
   </cc:Work>
  </rdf:RDF>
 </metadata>
 <defs>
  <style type="text/css">*{stroke-linejoin: round; stroke-linecap: butt}</style>
 </defs>
 <g id="figure_1">
  <g id="patch_1">
   <path d="M 0 374.4
L 612 374.4
L 612 0
L 0 0
z
" style="fill: #ffffff"/>
  </g>
  <g id="axes_1">
   <g id="patch_2">
    <path d="M 47.81 332.44
L 601.2 332.44
L 601.2 10.8
L 47.81 10.8
z
" style="fill: #ffffff"/>
   </g>
   <g id="matplotlib.axis_1">
    <g id="xtick_1">
     <g id="line2d_1">
      <path d="M 72.964091 332.44
L 72.964091 10.8
" clip-path="url(#p2362d8287b)" style="fill: none; stroke: #b0b0b0; stroke-opacity: 0.25; stroke-width: 0.8; stroke-linecap: square"/>
     </g>
     <g id="line2d_2">
      <defs>
       <path id="m40e50390cf" d="M 0 0
L 0 3.5
" style="stroke: #000000; stroke-width: 0.8"/>
      </defs>
      <g>
       <use xlink:href="#m40e50390cf" x="72.964091" y="332.44" style="stroke: #000000; stroke-width: 0.8"/>
      </g>
     </g>
     <g id="text_1">
      <!-- 0 -->
      <g transform="translate(69.782841 347.038437) scale(0.1 -0.1)">
       <defs>
        <path id="DejaVuSans-30" d="M 2034 4250
Q 1547 4250 1301 3770
Q 1056 3291 1056 2328
Q 1056 1369 1301 889
Q 1547 409 2034 409
Q 2525 409 2770 889
Q 3016 1369 3016 2328
Q 3016 3291 2770 3770
Q 2525 4250 2034 4250
z
M 2034 4750
Q 2819 4750 3233 4129
Q 3647 3509 3647 2328
Q 3647 1150 3233 529
Q 2819 -91 2034 -91
Q 1250 -91 836 529
Q 422 1150 422 2328
Q 422 3509 836 4129
Q 1250 4750 2034 4750
z
" transform="scale(0.015625)"/>
       </defs>
       <use xlink:href="#DejaVuSans-30"/>
      </g>
     </g>
    </g>
    <g id="xtick_2">
     <g id="line2d_3">
      <path d="M 140.041667 332.44
L 140.041667 10.8
" clip-path="url(#p2362d8287b)" style="fill: none; stroke: #b0b0b0; stroke-opacity: 0.25; stroke-width: 0.8; stroke-linecap: square"/>
     </g>
     <g id="line2d_4">
      <g>
       <use xlink:href="#m40e50390cf" x="140.041667" y="332.44" style="stroke: #000000; stroke-width: 0.8"/>
      </g>
     </g>
     <g id="text_2">
      <!-- 10 -->
      <g transform="translate(133.679167 347.038437) scale(0.1 -0.1)">
       <defs>
        <path id="DejaVuSans-31" d="M 794 531
L 1825 531
L 1825 4091
L 703 3866
L 703 4441
L 1819 4666
L 2450 4666
L 2450 531
L 3481 531
L 3481 0
L 794 0
L 794 531
z
" transform="scale(0.015625)"/>
       </defs>
       <use xlink:href="#DejaVuSans-31"/>
       <use xlink:href="#DejaVuSans-30" x="63.623047"/>
      </g>
     </g>
    </g>
    <g id="xtick_3">
     <g id="line2d_5">
      <path d="M 207.119242 332.44
L 207.119242 10.8
" clip-path="url(#p2362d8287b)" style="fill: none; stroke: #b0b0b0; stroke-opacity: 0.25; stroke-width: 0.8; stroke-linecap: square"/>
     </g>
     <g id="line2d_6">
      <g>
       <use xlink:href="#m40e50390cf" x="207.119242" y="332.44" style="stroke: #000000; stroke-width: 0.8"/>
      </g>
     </g>
     <g id="text_3">
      <!-- 20 -->
      <g transform="translate(200.756742 347.038437) scale(0.1 -0.1)">
       <defs>
        <path id="DejaVuSans-32" d="M 1228 531
L 3431 531
L 3431 0
L 469 0
L 469 531
Q 828 903 1448 1529
Q 2069 2156 2228 2338
Q 2531 2678 2651 2914
Q 2772 3150 2772 3378
Q 2772 3750 2511 3984
Q 2250 4219 1831 4219
Q 1534 4219 1204 4116
Q 875 4013 500 3803
L 500 4441
Q 881 4594 1212 4672
Q 1544 4750 1819 4750
Q 2544 4750 2975 4387
Q 3406 4025 3406 3419
Q 3406 3131 3298 2873
Q 3191 2616 2906 2266
Q 2828 2175 2409 1742
Q 1991 1309 1228 531
z
" transform="scale(0.015625)"/>
       </defs>
       <use xlink:href="#DejaVuSans-32"/>
       <use xlink:href="#DejaVuSans-30" x="63.623047"/>
      </g>
     </g>
    </g>
    <g id="xtick_4">
     <g id="line2d_7">
      <path d="M 274.196818 332.44
L 274.196818 10.8
" clip-path="url(#p2362d8287b)" style="fill: none; stroke: #b0b0b0; stroke-opacity: 0.25; stroke-width: 0.8; stroke-linecap: square"/>
     </g>
     <g id="line2d_8">
      <g>
       <use xlink:href="#m40e50390cf" x="274.196818" y="332.44" style="stroke: #000000; stroke-width: 0.8"/>
      </g>
     </g>
     <g id="text_4">
      <!-- 30 -->
      <g transform="translate(267.834318 347.038437) scale(0.1 -0.1)">
       <defs>
        <path id="DejaVuSans-33" d="M 2597 2516
Q 3050 2419 3304 2112
Q 3559 1806 3559 1356
Q 3559 666 3084 287
Q 2609 -91 1734 -91
Q 1441 -91 1130 -33
Q 819 25 488 141
L 488 750
Q 750 597 1062 519
Q 1375 441 1716 441
Q 2309 441 2620 675
Q 2931 909 2931 1356
Q 2931 1769 2642 2001
Q 2353 2234 1838 2234
L 1294 2234
L 1294 2753
L 1863 2753
Q 2328 2753 2575 2939
Q 2822 3125 2822 3475
Q 2822 3834 2567 4026
Q 2313 4219 1838 4219
Q 1578 4219 1281 4162
Q 984 4106 628 3988
L 628 4550
Q 988 4650 1302 4700
Q 1616 4750 1894 4750
Q 2613 4750 3031 4423
Q 3450 4097 3450 3541
Q 3450 3153 3228 2886
Q 3006 2619 2597 2516
z
" transform="scale(0.015625)"/>
       </defs>
       <use xlink:href="#DejaVuSans-33"/>
       <use xlink:href="#DejaVuSans-30" x="63.623047"/>
      </g>
     </g>
    </g>
    <g id="xtick_5">
     <g id="line2d_9">
      <path d="M 341.274394 332.44
L 341.274394 10.8
" clip-path="url(#p2362d8287b)" style="fill: none; stroke: #b0b0b0; stroke-opacity: 0.25; stroke-width: 0.8; stroke-linecap: square"/>
     </g>
     <g id="line2d_10">
      <g>
       <use xlink:href="#m40e50390cf" x="341.274394" y="332.44" style="stroke: #000000; stroke-width: 0.8"/>
      </g>
     </g>
     <g id="text_5">
      <!-- 40 -->
      <g transform="translate(334.911894 347.038437) scale(0.1 -0.1)">
       <defs>
        <path id="DejaVuSans-34" d="M 2419 4116
L 825 1625
L 2419 1625
L 2419 4116
z
M 2253 4666
L 3047 4666
L 3047 1625
L 3713 1625
L 3713 1100
L 3047 1100
L 3047 0
L 2419 0
L 2419 1100
L 313 1100
L 313 1709
L 2253 4666
z
" transform="scale(0.015625)"/>
       </defs>
       <use xlink:href="#DejaVuSans-34"/>
       <use xlink:href="#DejaVuSans-30" x="63.623047"/>
      </g>
     </g>
    </g>
    <g id="xtick_6">
     <g id="line2d_11">
      <path d="M 408.35197 332.44
L 408.35197 10.8
" clip-path="url(#p2362d8287b)" style="fill: none; stroke: #b0b0b0; stroke-opacity: 0.25; stroke-width: 0.8; stroke-linecap: square"/>
     </g>
     <g id="line2d_12">
      <g>
       <use xlink:href="#m40e50390cf" x="408.35197" y="332.44" style="stroke: #000000; stroke-width: 0.8"/>
      </g>
     </g>
     <g id="text_6">
      <!-- 50 -->
      <g transform="translate(401.98947 347.038437) scale(0.1 -0.1)">
       <defs>
        <path id="DejaVuSans-35" d="M 691 4666
L 3169 4666
L 3169 4134
L 1269 4134
L 1269 2991
Q 1406 3038 1543 3061
Q 1681 3084 1819 3084
Q 2600 3084 3056 2656
Q 3513 2228 3513 1497
Q 3513 744 3044 326
Q 2575 -91 1722 -91
Q 1428 -91 1123 -41
Q 819 9 494 109
L 494 744
Q 775 591 1075 516
Q 1375 441 1709 441
Q 2250 441 2565 725
Q 2881 1009 2881 1497
Q 2881 1984 2565 2268
Q 2250 2553 1709 2553
Q 1456 2553 1204 2497
Q 953 2441 691 2322
L 691 4666
z
" transform="scale(0.015625)"/>
       </defs>
       <use xlink:href="#DejaVuSans-35"/>
       <use xlink:href="#DejaVuSans-30" x="63.623047"/>
      </g>
     </g>
    </g>
    <g id="xtick_7">
     <g id="line2d_13">
      <path d="M 475.429545 332.44
L 475.429545 10.8
" clip-path="url(#p2362d8287b)" style="fill: none; stroke: #b0b0b0; stroke-opacity: 0.25; stroke-width: 0.8; stroke-linecap: square"/>
     </g>
     <g id="line2d_14">
      <g>
       <use xlink:href="#m40e50390cf" x="475.429545" y="332.44" style="stroke: #000000; stroke-width: 0.8"/>
      </g>
     </g>
     <g id="text_7">
      <!-- 60 -->
      <g transform="translate(469.067045 347.038437) scale(0.1 -0.1)">
       <defs>
        <path id="DejaVuSans-36" d="M 2113 2584
Q 1688 2584 1439 2293
Q 1191 2003 1191 1497
Q 1191 994 1439 701
Q 1688 409 2113 409
Q 2538 409 2786 701
Q 3034 994 3034 1497
Q 3034 2003 2786 2293
Q 2538 2584 2113 2584
z
M 3366 4563
L 3366 3988
Q 3128 4100 2886 4159
Q 2644 4219 2406 4219
Q 1781 4219 1451 3797
Q 1122 3375 1075 2522
Q 1259 2794 1537 2939
Q 1816 3084 2150 3084
Q 2853 3084 3261 2657
Q 3669 2231 3669 1497
Q 3669 778 3244 343
Q 2819 -91 2113 -91
Q 1303 -91 875 529
Q 447 1150 447 2328
Q 447 3434 972 4092
Q 1497 4750 2381 4750
Q 2619 4750 2861 4703
Q 3103 4656 3366 4563
z
" transform="scale(0.015625)"/>
       </defs>
       <use xlink:href="#DejaVuSans-36"/>
       <use xlink:href="#DejaVuSans-30" x="63.623047"/>
      </g>
     </g>
    </g>
    <g id="xtick_8">
     <g id="line2d_15">
      <path d="M 542.507121 332.44
L 542.507121 10.8
" clip-path="url(#p2362d8287b)" style="fill: none; stroke: #b0b0b0; stroke-opacity: 0.25; stroke-width: 0.8; stroke-linecap: square"/>
     </g>
     <g id="line2d_16">
      <g>
       <use xlink:href="#m40e50390cf" x="542.507121" y="332.44" style="stroke: #000000; stroke-width: 0.8"/>
      </g>
     </g>
     <g id="text_8">
      <!-- 70 -->
      <g transform="translate(536.144621 347.038437) scale(0.1 -0.1)">
       <defs>
        <path id="DejaVuSans-37" d="M 525 4666
L 3525 4666
L 3525 4397
L 1831 0
L 1172 0
L 2766 4134
L 525 4134
L 525 4666
z
" transform="scale(0.015625)"/>
       </defs>
       <use xlink:href="#DejaVuSans-37"/>
       <use xlink:href="#DejaVuSans-30" x="63.623047"/>
      </g>
     </g>
    </g>
    <g id="text_9">
     <!-- Iteration -->
     <g transform="translate(303.296406 360.716563) scale(0.1 -0.1)">
      <defs>
       <path id="DejaVuSans-49" d="M 628 4666
L 1259 4666
L 1259 0
L 628 0
L 628 4666
z
" transform="scale(0.015625)"/>
       <path id="DejaVuSans-74" d="M 1172 4494
L 1172 3500
L 2356 3500
L 2356 3053
L 1172 3053
L 1172 1153
Q 1172 725 1289 603
Q 1406 481 1766 481
L 2356 481
L 2356 0
L 1766 0
Q 1100 0 847 248
Q 594 497 594 1153
L 594 3053
L 172 3053
L 172 3500
L 594 3500
L 594 4494
L 1172 4494
z
" transform="scale(0.015625)"/>
       <path id="DejaVuSans-65" d="M 3597 1894
L 3597 1613
L 953 1613
Q 991 1019 1311 708
Q 1631 397 2203 397
Q 2534 397 2845 478
Q 3156 559 3463 722
L 3463 178
Q 3153 47 2828 -22
Q 2503 -91 2169 -91
Q 1331 -91 842 396
Q 353 884 353 1716
Q 353 2575 817 3079
Q 1281 3584 2069 3584
Q 2775 3584 3186 3129
Q 3597 2675 3597 1894
z
M 3022 2063
Q 3016 2534 2758 2815
Q 2500 3097 2075 3097
Q 1594 3097 1305 2825
Q 1016 2553 972 2059
L 3022 2063
z
" transform="scale(0.015625)"/>
       <path id="DejaVuSans-72" d="M 2631 2963
Q 2534 3019 2420 3045
Q 2306 3072 2169 3072
Q 1681 3072 1420 2755
Q 1159 2438 1159 1844
L 1159 0
L 581 0
L 581 3500
L 1159 3500
L 1159 2956
Q 1341 3275 1631 3429
Q 1922 3584 2338 3584
Q 2397 3584 2469 3576
Q 2541 3569 2628 3553
L 2631 2963
z
" transform="scale(0.015625)"/>
       <path id="DejaVuSans-61" d="M 2194 1759
Q 1497 1759 1228 1600
Q 959 1441 959 1056
Q 959 750 1161 570
Q 1363 391 1709 391
Q 2188 391 2477 730
Q 2766 1069 2766 1631
L 2766 1759
L 2194 1759
z
M 3341 1997
L 3341 0
L 2766 0
L 2766 531
Q 2569 213 2275 61
Q 1981 -91 1556 -91
Q 1019 -91 701 211
Q 384 513 384 1019
Q 384 1609 779 1909
Q 1175 2209 1959 2209
L 2766 2209
L 2766 2266
Q 2766 2663 2505 2880
Q 2244 3097 1772 3097
Q 1472 3097 1187 3025
Q 903 2953 641 2809
L 641 3341
Q 956 3463 1253 3523
Q 1550 3584 1831 3584
Q 2591 3584 2966 3190
Q 3341 2797 3341 1997
z
" transform="scale(0.015625)"/>
       <path id="DejaVuSans-69" d="M 603 3500
L 1178 3500
L 1178 0
L 603 0
L 603 3500
z
M 603 4863
L 1178 4863
L 1178 4134
L 603 4134
L 603 4863
z
" transform="scale(0.015625)"/>
       <path id="DejaVuSans-6f" d="M 1959 3097
Q 1497 3097 1228 2736
Q 959 2375 959 1747
Q 959 1119 1226 758
Q 1494 397 1959 397
Q 2419 397 2687 759
Q 2956 1122 2956 1747
Q 2956 2369 2687 2733
Q 2419 3097 1959 3097
z
M 1959 3584
Q 2709 3584 3137 3096
Q 3566 2609 3566 1747
Q 3566 888 3137 398
Q 2709 -91 1959 -91
Q 1206 -91 779 398
Q 353 888 353 1747
Q 353 2609 779 3096
Q 1206 3584 1959 3584
z
" transform="scale(0.015625)"/>
       <path id="DejaVuSans-6e" d="M 3513 2113
L 3513 0
L 2938 0
L 2938 2094
Q 2938 2591 2744 2837
Q 2550 3084 2163 3084
Q 1697 3084 1428 2787
Q 1159 2491 1159 1978
L 1159 0
L 581 0
L 581 3500
L 1159 3500
L 1159 2956
Q 1366 3272 1645 3428
Q 1925 3584 2291 3584
Q 2894 3584 3203 3211
Q 3513 2838 3513 2113
z
" transform="scale(0.015625)"/>
      </defs>
      <use xlink:href="#DejaVuSans-49"/>
      <use xlink:href="#DejaVuSans-74" x="29.492188"/>
      <use xlink:href="#DejaVuSans-65" x="68.701172"/>
      <use xlink:href="#DejaVuSans-72" x="130.224609"/>
      <use xlink:href="#DejaVuSans-61" x="171.337891"/>
      <use xlink:href="#DejaVuSans-74" x="232.617188"/>
      <use xlink:href="#DejaVuSans-69" x="271.826172"/>
      <use xlink:href="#DejaVuSans-6f" x="299.609375"/>
      <use xlink:href="#DejaVuSans-6e" x="360.791016"/>
     </g>
    </g>
   </g>
   <g id="matplotlib.axis_2">
    <g id="ytick_1">
     <g id="line2d_17">
      <path d="M 47.81 325.923995
L 601.2 325.923995
" clip-path="url(#p2362d8287b)" style="fill: none; stroke: #b0b0b0; stroke-opacity: 0.25; stroke-width: 0.8; stroke-linecap: square"/>
     </g>
     <g id="line2d_18">
      <defs>
       <path id="mfecfdfd01f" d="M 0 0
L -3.5 0
" style="stroke: #000000; stroke-width: 0.8"/>
      </defs>
      <g>
       <use xlink:href="#mfecfdfd01f" x="47.81" y="325.923995" style="stroke: #000000; stroke-width: 0.8"/>
      </g>
     </g>
     <g id="text_10">
      <!-- 1.2 -->
      <g transform="translate(24.906875 329.723213) scale(0.1 -0.1)">
       <defs>
        <path id="DejaVuSans-2e" d="M 684 794
L 1344 794
L 1344 0
L 684 0
L 684 794
z
" transform="scale(0.015625)"/>
       </defs>
       <use xlink:href="#DejaVuSans-31"/>
       <use xlink:href="#DejaVuSans-2e" x="63.623047"/>
       <use xlink:href="#DejaVuSans-32" x="95.410156"/>
      </g>
     </g>
    </g>
    <g id="ytick_2">
     <g id="line2d_19">
      <path d="M 47.81 285.460063
L 601.2 285.460063
" clip-path="url(#p2362d8287b)" style="fill: none; stroke: #b0b0b0; stroke-opacity: 0.25; stroke-width: 0.8; stroke-linecap: square"/>
     </g>
     <g id="line2d_20">
      <g>
       <use xlink:href="#mfecfdfd01f" x="47.81" y="285.460063" style="stroke: #000000; stroke-width: 0.8"/>
      </g>
     </g>
     <g id="text_11">
      <!-- 1.4 -->
      <g transform="translate(24.906875 289.259282) scale(0.1 -0.1)">
       <use xlink:href="#DejaVuSans-31"/>
       <use xlink:href="#DejaVuSans-2e" x="63.623047"/>
       <use xlink:href="#DejaVuSans-34" x="95.410156"/>
      </g>
     </g>
    </g>
    <g id="ytick_3">
     <g id="line2d_21">
      <path d="M 47.81 244.996132
L 601.2 244.996132
" clip-path="url(#p2362d8287b)" style="fill: none; stroke: #b0b0b0; stroke-opacity: 0.25; stroke-width: 0.8; stroke-linecap: square"/>
     </g>
     <g id="line2d_22">
      <g>
       <use xlink:href="#mfecfdfd01f" x="47.81" y="244.996132" style="stroke: #000000; stroke-width: 0.8"/>
      </g>
     </g>
     <g id="text_12">
      <!-- 1.6 -->
      <g transform="translate(24.906875 248.795351) scale(0.1 -0.1)">
       <use xlink:href="#DejaVuSans-31"/>
       <use xlink:href="#DejaVuSans-2e" x="63.623047"/>
       <use xlink:href="#DejaVuSans-36" x="95.410156"/>
      </g>
     </g>
    </g>
    <g id="ytick_4">
     <g id="line2d_23">
      <path d="M 47.81 204.5322
L 601.2 204.5322
" clip-path="url(#p2362d8287b)" style="fill: none; stroke: #b0b0b0; stroke-opacity: 0.25; stroke-width: 0.8; stroke-linecap: square"/>
     </g>
     <g id="line2d_24">
      <g>
       <use xlink:href="#mfecfdfd01f" x="47.81" y="204.5322" style="stroke: #000000; stroke-width: 0.8"/>
      </g>
     </g>
     <g id="text_13">
      <!-- 1.8 -->
      <g transform="translate(24.906875 208.331419) scale(0.1 -0.1)">
       <defs>
        <path id="DejaVuSans-38" d="M 2034 2216
Q 1584 2216 1326 1975
Q 1069 1734 1069 1313
Q 1069 891 1326 650
Q 1584 409 2034 409
Q 2484 409 2743 651
Q 3003 894 3003 1313
Q 3003 1734 2745 1975
Q 2488 2216 2034 2216
z
M 1403 2484
Q 997 2584 770 2862
Q 544 3141 544 3541
Q 544 4100 942 4425
Q 1341 4750 2034 4750
Q 2731 4750 3128 4425
Q 3525 4100 3525 3541
Q 3525 3141 3298 2862
Q 3072 2584 2669 2484
Q 3125 2378 3379 2068
Q 3634 1759 3634 1313
Q 3634 634 3220 271
Q 2806 -91 2034 -91
Q 1263 -91 848 271
Q 434 634 434 1313
Q 434 1759 690 2068
Q 947 2378 1403 2484
z
M 1172 3481
Q 1172 3119 1398 2916
Q 1625 2713 2034 2713
Q 2441 2713 2670 2916
Q 2900 3119 2900 3481
Q 2900 3844 2670 4047
Q 2441 4250 2034 4250
Q 1625 4250 1398 4047
Q 1172 3844 1172 3481
z
" transform="scale(0.015625)"/>
       </defs>
       <use xlink:href="#DejaVuSans-31"/>
       <use xlink:href="#DejaVuSans-2e" x="63.623047"/>
       <use xlink:href="#DejaVuSans-38" x="95.410156"/>
      </g>
     </g>
    </g>
    <g id="ytick_5">
     <g id="line2d_25">
      <path d="M 47.81 164.068269
L 601.2 164.068269
" clip-path="url(#p2362d8287b)" style="fill: none; stroke: #b0b0b0; stroke-opacity: 0.25; stroke-width: 0.8; stroke-linecap: square"/>
     </g>
     <g id="line2d_26">
      <g>
       <use xlink:href="#mfecfdfd01f" x="47.81" y="164.068269" style="stroke: #000000; stroke-width: 0.8"/>
      </g>
     </g>
     <g id="text_14">
      <!-- 2.0 -->
      <g transform="translate(24.906875 167.867488) scale(0.1 -0.1)">
       <use xlink:href="#DejaVuSans-32"/>
       <use xlink:href="#DejaVuSans-2e" x="63.623047"/>
       <use xlink:href="#DejaVuSans-30" x="95.410156"/>
      </g>
     </g>
    </g>
    <g id="ytick_6">
     <g id="line2d_27">
      <path d="M 47.81 123.604337
L 601.2 123.604337
" clip-path="url(#p2362d8287b)" style="fill: none; stroke: #b0b0b0; stroke-opacity: 0.25; stroke-width: 0.8; stroke-linecap: square"/>
     </g>
     <g id="line2d_28">
      <g>
       <use xlink:href="#mfecfdfd01f" x="47.81" y="123.604337" style="stroke: #000000; stroke-width: 0.8"/>
      </g>
     </g>
     <g id="text_15">
      <!-- 2.2 -->
      <g transform="translate(24.906875 127.403556) scale(0.1 -0.1)">
       <use xlink:href="#DejaVuSans-32"/>
       <use xlink:href="#DejaVuSans-2e" x="63.623047"/>
       <use xlink:href="#DejaVuSans-32" x="95.410156"/>
      </g>
     </g>
    </g>
    <g id="ytick_7">
     <g id="line2d_29">
      <path d="M 47.81 83.140406
L 601.2 83.140406
" clip-path="url(#p2362d8287b)" style="fill: none; stroke: #b0b0b0; stroke-opacity: 0.25; stroke-width: 0.8; stroke-linecap: square"/>
     </g>
     <g id="line2d_30">
      <g>
       <use xlink:href="#mfecfdfd01f" x="47.81" y="83.140406" style="stroke: #000000; stroke-width: 0.8"/>
      </g>
     </g>
     <g id="text_16">
      <!-- 2.4 -->
      <g transform="translate(24.906875 86.939625) scale(0.1 -0.1)">
       <use xlink:href="#DejaVuSans-32"/>
       <use xlink:href="#DejaVuSans-2e" x="63.623047"/>
       <use xlink:href="#DejaVuSans-34" x="95.410156"/>
      </g>
     </g>
    </g>
    <g id="ytick_8">
     <g id="line2d_31">
      <path d="M 47.81 42.676474
L 601.2 42.676474
" clip-path="url(#p2362d8287b)" style="fill: none; stroke: #b0b0b0; stroke-opacity: 0.25; stroke-width: 0.8; stroke-linecap: square"/>
     </g>
     <g id="line2d_32">
      <g>
       <use xlink:href="#mfecfdfd01f" x="47.81" y="42.676474" style="stroke: #000000; stroke-width: 0.8"/>
      </g>
     </g>
     <g id="text_17">
      <!-- 2.6 -->
      <g transform="translate(24.906875 46.475693) scale(0.1 -0.1)">
       <use xlink:href="#DejaVuSans-32"/>
       <use xlink:href="#DejaVuSans-2e" x="63.623047"/>
       <use xlink:href="#DejaVuSans-36" x="95.410156"/>
      </g>
     </g>
    </g>
    <g id="text_18">
     <!-- Fixed-reference reporting fitness -->
     <g transform="translate(18.827188 252.993438) rotate(-90) scale(0.1 -0.1)">
      <defs>
       <path id="DejaVuSans-46" d="M 628 4666
L 3309 4666
L 3309 4134
L 1259 4134
L 1259 2759
L 3109 2759
L 3109 2228
L 1259 2228
L 1259 0
L 628 0
L 628 4666
z
" transform="scale(0.015625)"/>
       <path id="DejaVuSans-78" d="M 3513 3500
L 2247 1797
L 3578 0
L 2900 0
L 1881 1375
L 863 0
L 184 0
L 1544 1831
L 300 3500
L 978 3500
L 1906 2253
L 2834 3500
L 3513 3500
z
" transform="scale(0.015625)"/>
       <path id="DejaVuSans-64" d="M 2906 2969
L 2906 4863
L 3481 4863
L 3481 0
L 2906 0
L 2906 525
Q 2725 213 2448 61
Q 2172 -91 1784 -91
Q 1150 -91 751 415
Q 353 922 353 1747
Q 353 2572 751 3078
Q 1150 3584 1784 3584
Q 2172 3584 2448 3432
Q 2725 3281 2906 2969
z
M 947 1747
Q 947 1113 1208 752
Q 1469 391 1925 391
Q 2381 391 2643 752
Q 2906 1113 2906 1747
Q 2906 2381 2643 2742
Q 2381 3103 1925 3103
Q 1469 3103 1208 2742
Q 947 2381 947 1747
z
" transform="scale(0.015625)"/>
       <path id="DejaVuSans-2d" d="M 313 2009
L 1997 2009
L 1997 1497
L 313 1497
L 313 2009
z
" transform="scale(0.015625)"/>
       <path id="DejaVuSans-66" d="M 2375 4863
L 2375 4384
L 1825 4384
Q 1516 4384 1395 4259
Q 1275 4134 1275 3809
L 1275 3500
L 2222 3500
L 2222 3053
L 1275 3053
L 1275 0
L 697 0
L 697 3053
L 147 3053
L 147 3500
L 697 3500
L 697 3744
Q 697 4328 969 4595
Q 1241 4863 1831 4863
L 2375 4863
z
" transform="scale(0.015625)"/>
       <path id="DejaVuSans-63" d="M 3122 3366
L 3122 2828
Q 2878 2963 2633 3030
Q 2388 3097 2138 3097
Q 1578 3097 1268 2742
Q 959 2388 959 1747
Q 959 1106 1268 751
Q 1578 397 2138 397
Q 2388 397 2633 464
Q 2878 531 3122 666
L 3122 134
Q 2881 22 2623 -34
Q 2366 -91 2075 -91
Q 1284 -91 818 406
Q 353 903 353 1747
Q 353 2603 823 3093
Q 1294 3584 2113 3584
Q 2378 3584 2631 3529
Q 2884 3475 3122 3366
z
" transform="scale(0.015625)"/>
       <path id="DejaVuSans-20" transform="scale(0.015625)"/>
       <path id="DejaVuSans-70" d="M 1159 525
L 1159 -1331
L 581 -1331
L 581 3500
L 1159 3500
L 1159 2969
Q 1341 3281 1617 3432
Q 1894 3584 2278 3584
Q 2916 3584 3314 3078
Q 3713 2572 3713 1747
Q 3713 922 3314 415
Q 2916 -91 2278 -91
Q 1894 -91 1617 61
Q 1341 213 1159 525
z
M 3116 1747
Q 3116 2381 2855 2742
Q 2594 3103 2138 3103
Q 1681 3103 1420 2742
Q 1159 2381 1159 1747
Q 1159 1113 1420 752
Q 1681 391 2138 391
Q 2594 391 2855 752
Q 3116 1113 3116 1747
z
" transform="scale(0.015625)"/>
       <path id="DejaVuSans-67" d="M 2906 1791
Q 2906 2416 2648 2759
Q 2391 3103 1925 3103
Q 1463 3103 1205 2759
Q 947 2416 947 1791
Q 947 1169 1205 825
Q 1463 481 1925 481
Q 2391 481 2648 825
Q 2906 1169 2906 1791
z
M 3481 434
Q 3481 -459 3084 -895
Q 2688 -1331 1869 -1331
Q 1566 -1331 1297 -1286
Q 1028 -1241 775 -1147
L 775 -588
Q 1028 -725 1275 -790
Q 1522 -856 1778 -856
Q 2344 -856 2625 -561
Q 2906 -266 2906 331
L 2906 616
Q 2728 306 2450 153
Q 2172 0 1784 0
Q 1141 0 747 490
Q 353 981 353 1791
Q 353 2603 747 3093
Q 1141 3584 1784 3584
Q 2172 3584 2450 3431
Q 2728 3278 2906 2969
L 2906 3500
L 3481 3500
L 3481 434
z
" transform="scale(0.015625)"/>
       <path id="DejaVuSans-73" d="M 2834 3397
L 2834 2853
Q 2591 2978 2328 3040
Q 2066 3103 1784 3103
Q 1356 3103 1142 2972
Q 928 2841 928 2578
Q 928 2378 1081 2264
Q 1234 2150 1697 2047
L 1894 2003
Q 2506 1872 2764 1633
Q 3022 1394 3022 966
Q 3022 478 2636 193
Q 2250 -91 1575 -91
Q 1294 -91 989 -36
Q 684 19 347 128
L 347 722
Q 666 556 975 473
Q 1284 391 1588 391
Q 1994 391 2212 530
Q 2431 669 2431 922
Q 2431 1156 2273 1281
Q 2116 1406 1581 1522
L 1381 1569
Q 847 1681 609 1914
Q 372 2147 372 2553
Q 372 3047 722 3315
Q 1072 3584 1716 3584
Q 2034 3584 2315 3537
Q 2597 3491 2834 3397
z
" transform="scale(0.015625)"/>
      </defs>
      <use xlink:href="#DejaVuSans-46"/>
      <use xlink:href="#DejaVuSans-69" x="50.269531"/>
      <use xlink:href="#DejaVuSans-78" x="78.052734"/>
      <use xlink:href="#DejaVuSans-65" x="134.107422"/>
      <use xlink:href="#DejaVuSans-64" x="195.630859"/>
      <use xlink:href="#DejaVuSans-2d" x="259.107422"/>
      <use xlink:href="#DejaVuSans-72" x="295.191406"/>
      <use xlink:href="#DejaVuSans-65" x="334.054688"/>
      <use xlink:href="#DejaVuSans-66" x="395.578125"/>
      <use xlink:href="#DejaVuSans-65" x="430.783203"/>
      <use xlink:href="#DejaVuSans-72" x="492.306641"/>
      <use xlink:href="#DejaVuSans-65" x="531.169922"/>
      <use xlink:href="#DejaVuSans-6e" x="592.693359"/>
      <use xlink:href="#DejaVuSans-63" x="656.072266"/>
      <use xlink:href="#DejaVuSans-65" x="711.052734"/>
      <use xlink:href="#DejaVuSans-20" x="772.576172"/>
      <use xlink:href="#DejaVuSans-72" x="804.363281"/>
      <use xlink:href="#DejaVuSans-65" x="843.226562"/>
      <use xlink:href="#DejaVuSans-70" x="904.75"/>
      <use xlink:href="#DejaVuSans-6f" x="968.226562"/>
      <use xlink:href="#DejaVuSans-72" x="1029.408203"/>
      <use xlink:href="#DejaVuSans-74" x="1070.521484"/>
      <use xlink:href="#DejaVuSans-69" x="1109.730469"/>
      <use xlink:href="#DejaVuSans-6e" x="1137.513672"/>
      <use xlink:href="#DejaVuSans-67" x="1200.892578"/>
      <use xlink:href="#DejaVuSans-20" x="1264.369141"/>
      <use xlink:href="#DejaVuSans-66" x="1296.15625"/>
      <use xlink:href="#DejaVuSans-69" x="1331.361328"/>
      <use xlink:href="#DejaVuSans-74" x="1359.144531"/>
      <use xlink:href="#DejaVuSans-6e" x="1398.353516"/>
      <use xlink:href="#DejaVuSans-65" x="1461.732422"/>
      <use xlink:href="#DejaVuSans-73" x="1523.255859"/>
      <use xlink:href="#DejaVuSans-73" x="1575.355469"/>
     </g>
    </g>
   </g>
   <g id="line2d_33">
    <path d="M 72.964091 25.42
L 79.671848 115.032901
L 86.379606 143.595874
L 93.087364 158.782496
L 99.795121 173.356049
L 106.502879 182.770371
L 113.210636 190.564559
L 119.918394 195.859124
L 126.626152 199.255283
L 133.333909 203.918366
L 140.041667 206.727833
L 146.749424 210.105849
L 153.457182 211.206749
L 160.164939 212.958226
L 166.872697 215.365794
L 173.580455 216.263992
L 180.288212 217.094825
L 186.99597 218.201364
L 193.703727 219.050114
L 200.411485 220.411532
L 207.119242 221.427487
L 213.827 222.050861
L 220.534758 223.035238
L 227.242515 223.696266
L 233.950273 224.502668
L 240.65803 225.001612
L 247.365788 225.453618
L 254.073545 226.126854
L 260.781303 226.675435
L 267.489061 227.338228
L 274.196818 228.206448
L 280.904576 228.443597
L 287.612333 229.005709
L 294.320091 229.842129
L 301.027848 230.155564
L 307.735606 230.585231
L 314.443364 231.162844
L 321.151121 231.495747
L 327.858879 231.727299
L 334.566636 231.914907
L 341.274394 232.212404
L 347.982152 232.551153
L 354.689909 232.779762
L 361.397667 233.124158
L 368.105424 233.496392
L 374.813182 233.697242
L 381.520939 233.961679
L 388.228697 234.298151
L 394.936455 234.724808
L 401.644212 235.006514
L 408.35197 235.195714
L 415.059727 235.530438
L 421.767485 235.687548
L 428.475242 235.732056
L 435.183 235.875365
L 441.890758 236.209363
L 448.598515 236.385479
L 455.306273 236.621307
L 462.01403 236.793978
L 468.721788 236.888546
L 475.429545 236.967748
L 482.137303 237.090686
L 488.845061 237.211147
L 495.552818 237.416114
L 502.260576 237.59241
L 508.968333 237.699436
L 515.676091 237.783904
L 522.383848 237.840766
L 529.091606 237.949251
L 535.799364 238.067527
L 542.507121 238.127285
L 549.214879 238.24277
L 555.922636 238.313739
L 562.630394 238.326569
L 569.338152 238.361132
L 576.045909 238.36585
" clip-path="url(#p2362d8287b)" style="fill: none; stroke: #ed7d31; stroke-width: 2; stroke-linecap: square"/>
   </g>
   <g id="line2d_34">
    <path d="M 72.964091 80.943319
L 79.671848 154.281475
L 86.379606 185.071141
L 93.087364 203.042245
L 99.795121 216.440461
L 106.502879 224.728628
L 113.210636 230.943586
L 119.918394 235.560778
L 126.626152 238.762097
L 133.333909 242.746742
L 140.041667 247.714958
L 146.749424 249.325896
L 153.457182 253.592105
L 160.164939 257.886886
L 166.872697 261.540229
L 173.580455 265.052793
L 180.288212 267.747924
L 186.99597 269.965673
L 193.703727 273.613303
L 200.411485 275.06705
L 207.119242 275.922942
L 213.827 277.429712
L 220.534758 279.626402
L 227.242515 280.887681
L 233.950273 282.708512
L 240.65803 284.318131
L 247.365788 286.288088
L 254.073545 287.065724
L 260.781303 288.256938
L 267.489061 289.789462
L 274.196818 291.376903
L 280.904576 291.576126
L 287.612333 292.304303
L 294.320091 293.369961
L 301.027848 294.014602
L 307.735606 294.446373
L 314.443364 294.658609
L 321.151121 295.716353
L 327.858879 296.193446
L 334.566636 297.138664
L 341.274394 297.89805
L 347.982152 298.733717
L 354.689909 299.743986
L 361.397667 300.29063
L 368.105424 300.703589
L 374.813182 301.306042
L 381.520939 301.901173
L 388.228697 302.546792
L 394.936455 303.267236
L 401.644212 303.793871
L 408.35197 304.399084
L 415.059727 305.056077
L 421.767485 305.478601
L 428.475242 306.230873
L 435.183 307.133697
L 441.890758 307.739037
L 448.598515 308.381552
L 455.306273 308.781999
L 462.01403 309.646446
L 468.721788 310.211677
L 475.429545 310.584623
L 482.137303 311.086884
L 488.845061 311.772788
L 495.552818 312.328865
L 502.260576 312.968738
L 508.968333 313.195544
L 515.676091 313.42403
L 522.383848 313.710892
L 529.091606 314.243672
L 535.799364 314.772221
L 542.507121 314.993732
L 549.214879 315.335765
L 555.922636 315.79474
L 562.630394 316.095319
L 569.338152 316.316467
L 576.045909 316.677909
" clip-path="url(#p2362d8287b)" style="fill: none; stroke: #5b9bd5; stroke-width: 2; stroke-linecap: square"/>
   </g>
   <g id="line2d_35">
    <path d="M 72.964091 81.67934
L 79.671848 135.039694
L 86.379606 160.507278
L 93.087364 171.054488
L 99.795121 184.479114
L 106.502879 194.408109
L 113.210636 207.758997
L 119.918394 215.605305
L 126.626152 225.731769
L 133.333909 232.783384
L 140.041667 240.087757
L 146.749424 244.34736
L 153.457182 251.695074
L 160.164939 257.784892
L 166.872697 262.670276
L 173.580455 264.316457
L 180.288212 268.28732
L 186.99597 271.835447
L 193.703727 275.591713
L 200.411485 280.102367
L 207.119242 281.321406
L 213.827 282.825001
L 220.534758 284.602292
L 227.242515 286.596014
L 233.950273 289.807087
L 240.65803 290.943592
L 247.365788 292.270857
L 254.073545 294.336141
L 260.781303 295.602983
L 267.489061 297.244993
L 274.196818 298.172174
L 280.904576 299.558293
L 287.612333 301.138303
L 294.320091 301.721629
L 301.027848 302.328133
L 307.735606 303.207874
L 314.443364 304.159953
L 321.151121 305.150278
L 327.858879 306.06069
L 334.566636 306.634089
L 341.274394 307.204917
L 347.982152 307.767149
L 354.689909 308.509933
L 361.397667 309.282207
L 368.105424 309.659531
L 374.813182 310.049483
L 381.520939 310.59393
L 388.228697 311.10313
L 394.936455 311.621311
L 401.644212 312.003225
L 408.35197 312.1917
L 415.059727 312.590328
L 421.767485 313.039464
L 428.475242 313.361695
L 435.183 313.674609
L 441.890758 313.978093
L 448.598515 314.251524
L 455.306273 314.488759
L 462.01403 314.785807
L 468.721788 314.931869
L 475.429545 315.125646
L 482.137303 315.396177
L 488.845061 315.649777
L 495.552818 315.730511
L 502.260576 315.984074
L 508.968333 316.135124
L 515.676091 316.325761
L 522.383848 316.470438
L 529.091606 316.618543
L 535.799364 316.792436
L 542.507121 316.969391
L 549.214879 317.093482
L 555.922636 317.243096
L 562.630394 317.47246
L 569.338152 317.653152
L 576.045909 317.82
" clip-path="url(#p2362d8287b)" style="fill: none; stroke: #c55a11; stroke-width: 2; stroke-linecap: square"/>
   </g>
   <g id="line2d_36">
    <path d="M 72.964091 39.355838
L 79.671848 65.871657
L 86.379606 94.86038
L 93.087364 106.489576
L 99.795121 119.828628
L 106.502879 130.690219
L 113.210636 152.003463
L 119.918394 165.90776
L 126.626152 172.812214
L 133.333909 176.124702
L 140.041667 179.71741
L 146.749424 185.208602
L 153.457182 189.181931
L 160.164939 194.396078
L 166.872697 198.273765
L 173.580455 203.014942
L 180.288212 206.025449
L 186.99597 211.067406
L 193.703727 214.211203
L 200.411485 218.912378
L 207.119242 220.05986
L 213.827 223.080295
L 220.534758 225.809271
L 227.242515 228.22592
L 233.950273 230.860736
L 240.65803 232.397
L 247.365788 235.938694
L 254.073545 238.652829
L 260.781303 241.128162
L 267.489061 241.886206
L 274.196818 242.560077
L 280.904576 243.754581
L 287.612333 245.020186
L 294.320091 247.727329
L 301.027848 248.598255
L 307.735606 249.196958
L 314.443364 250.399326
L 321.151121 253.259498
L 327.858879 254.732991
L 334.566636 256.784547
L 341.274394 258.748418
L 347.982152 259.762894
L 354.689909 260.231177
L 361.397667 261.087627
L 368.105424 262.608635
L 374.813182 263.580078
L 381.520939 264.355783
L 388.228697 265.01814
L 394.936455 268.308759
L 401.644212 268.949172
L 408.35197 270.392441
L 415.059727 272.161445
L 421.767485 273.102827
L 428.475242 274.65346
L 435.183 275.315955
L 441.890758 276.445198
L 448.598515 278.056838
L 455.306273 279.613676
L 462.01403 281.259445
L 468.721788 282.181522
L 475.429545 283.653714
L 482.137303 285.203383
L 488.845061 287.314689
L 495.552818 288.422466
L 502.260576 289.275486
L 508.968333 290.315396
L 515.676091 291.683881
L 522.383848 292.613201
L 529.091606 293.615616
L 535.799364 295.128278
L 542.507121 296.372543
L 549.214879 297.184128
L 555.922636 298.170244
L 562.630394 298.787197
L 569.338152 299.622628
L 576.045909 299.622628
" clip-path="url(#p2362d8287b)" style="fill: none; stroke: #70ad47; stroke-width: 2; stroke-linecap: square"/>
   </g>
   <g id="line2d_37">
    <path d="M 72.964091 70.882903
L 79.671848 84.872068
L 86.379606 94.537777
L 93.087364 104.088636
L 99.795121 117.678906
L 106.502879 126.712897
L 113.210636 133.210378
L 119.918394 144.101669
L 126.626152 151.985488
L 133.333909 160.645352
L 140.041667 169.6688
L 146.749424 178.668807
L 153.457182 188.757769
L 160.164939 197.279096
L 166.872697 204.811473
L 173.580455 210.228217
L 180.288212 216.122416
L 186.99597 222.817421
L 193.703727 227.927302
L 200.411485 232.800173
L 207.119242 239.45378
L 213.827 244.221785
L 220.534758 246.979277
L 227.242515 251.852464
L 233.950273 254.350198
L 240.65803 255.501629
L 247.365788 259.542582
L 254.073545 261.852955
L 260.781303 264.51394
L 267.489061 265.952804
L 274.196818 266.158226
L 280.904576 267.043847
L 287.612333 267.409477
L 294.320091 267.967402
L 301.027848 268.883904
L 307.735606 269.251269
L 314.443364 270.171717
L 321.151121 270.177927
L 327.858879 270.51719
L 334.566636 271.201486
L 341.274394 271.953519
L 347.982152 272.198418
L 354.689909 272.802761
L 361.397667 273.692849
L 368.105424 273.809573
L 374.813182 274.047673
L 381.520939 274.514429
L 388.228697 274.736075
L 394.936455 275.570599
L 401.644212 276.26013
L 408.35197 276.961512
L 415.059727 277.535813
L 421.767485 277.93767
L 428.475242 278.629039
L 435.183 278.855184
L 441.890758 279.340884
L 448.598515 280.084991
L 455.306273 280.524579
L 462.01403 280.858027
L 468.721788 281.150121
L 475.429545 281.415307
L 482.137303 281.8218
L 488.845061 281.986889
L 495.552818 282.129556
L 502.260576 282.129556
L 508.968333 282.354095
L 515.676091 282.815512
L 522.383848 283.008476
L 529.091606 283.343347
L 535.799364 283.464598
L 542.507121 283.474502
L 549.214879 283.515614
L 555.922636 284.291807
L 562.630394 284.291807
L 569.338152 284.488595
L 576.045909 285.063598
" clip-path="url(#p2362d8287b)" style="fill: none; stroke: #666666; stroke-width: 2; stroke-linecap: square"/>
   </g>
   <g id="patch_3">
    <path d="M 47.81 332.44
L 47.81 10.8
" style="fill: none; stroke: #000000; stroke-width: 0.8; stroke-linejoin: miter; stroke-linecap: square"/>
   </g>
   <g id="patch_4">
    <path d="M 601.2 332.44
L 601.2 10.8
" style="fill: none; stroke: #000000; stroke-width: 0.8; stroke-linejoin: miter; stroke-linecap: square"/>
   </g>
   <g id="patch_5">
    <path d="M 47.81 332.44
L 601.2 332.44
" style="fill: none; stroke: #000000; stroke-width: 0.8; stroke-linejoin: miter; stroke-linecap: square"/>
   </g>
   <g id="patch_6">
    <path d="M 47.81 10.8
L 601.2 10.8
" style="fill: none; stroke: #000000; stroke-width: 0.8; stroke-linejoin: miter; stroke-linecap: square"/>
   </g>
   <g id="legend_1">
    <g id="patch_7">
     <path d="M 506.620312 92.190625
L 594.2 92.190625
Q 596.2 92.190625 596.2 90.190625
L 596.2 17.8
Q 596.2 15.8 594.2 15.8
L 506.620312 15.8
Q 504.620312 15.8 504.620312 17.8
L 504.620312 90.190625
Q 504.620312 92.190625 506.620312 92.190625
z
" style="fill: #ffffff; opacity: 0.8; stroke: #cccccc; stroke-linejoin: miter"/>
    </g>
    <g id="line2d_38">
     <path d="M 508.620312 23.898438
L 518.620312 23.898438
L 528.620312 23.898438
" style="fill: none; stroke: #ed7d31; stroke-width: 2; stroke-linecap: square"/>
    </g>
    <g id="text_19">
     <!-- RIME -->
     <g transform="translate(536.620312 27.398438) scale(0.1 -0.1)">
      <defs>
       <path id="DejaVuSans-52" d="M 2841 2188
Q 3044 2119 3236 1894
Q 3428 1669 3622 1275
L 4263 0
L 3584 0
L 2988 1197
Q 2756 1666 2539 1819
Q 2322 1972 1947 1972
L 1259 1972
L 1259 0
L 628 0
L 628 4666
L 2053 4666
Q 2853 4666 3247 4331
Q 3641 3997 3641 3322
Q 3641 2881 3436 2590
Q 3231 2300 2841 2188
z
M 1259 4147
L 1259 2491
L 2053 2491
Q 2509 2491 2742 2702
Q 2975 2913 2975 3322
Q 2975 3731 2742 3939
Q 2509 4147 2053 4147
L 1259 4147
z
" transform="scale(0.015625)"/>
       <path id="DejaVuSans-4d" d="M 628 4666
L 1569 4666
L 2759 1491
L 3956 4666
L 4897 4666
L 4897 0
L 4281 0
L 4281 4097
L 3078 897
L 2444 897
L 1241 4097
L 1241 0
L 628 0
L 628 4666
z
" transform="scale(0.015625)"/>
       <path id="DejaVuSans-45" d="M 628 4666
L 3578 4666
L 3578 4134
L 1259 4134
L 1259 2753
L 3481 2753
L 3481 2222
L 1259 2222
L 1259 531
L 3634 531
L 3634 0
L 628 0
L 628 4666
z
" transform="scale(0.015625)"/>
      </defs>
      <use xlink:href="#DejaVuSans-52"/>
      <use xlink:href="#DejaVuSans-49" x="69.482422"/>
      <use xlink:href="#DejaVuSans-4d" x="98.974609"/>
      <use xlink:href="#DejaVuSans-45" x="185.253906"/>
     </g>
    </g>
    <g id="line2d_39">
     <path d="M 508.620312 38.576563
L 518.620312 38.576563
L 528.620312 38.576563
" style="fill: none; stroke: #5b9bd5; stroke-width: 2; stroke-linecap: square"/>
    </g>
    <g id="text_20">
     <!-- DBO -->
     <g transform="translate(536.620312 42.076563) scale(0.1 -0.1)">
      <defs>
       <path id="DejaVuSans-44" d="M 1259 4147
L 1259 519
L 2022 519
Q 2988 519 3436 956
Q 3884 1394 3884 2338
Q 3884 3275 3436 3711
Q 2988 4147 2022 4147
L 1259 4147
z
M 628 4666
L 1925 4666
Q 3281 4666 3915 4102
Q 4550 3538 4550 2338
Q 4550 1131 3912 565
Q 3275 0 1925 0
L 628 0
L 628 4666
z
" transform="scale(0.015625)"/>
       <path id="DejaVuSans-42" d="M 1259 2228
L 1259 519
L 2272 519
Q 2781 519 3026 730
Q 3272 941 3272 1375
Q 3272 1813 3026 2020
Q 2781 2228 2272 2228
L 1259 2228
z
M 1259 4147
L 1259 2741
L 2194 2741
Q 2656 2741 2882 2914
Q 3109 3088 3109 3444
Q 3109 3797 2882 3972
Q 2656 4147 2194 4147
L 1259 4147
z
M 628 4666
L 2241 4666
Q 2963 4666 3353 4366
Q 3744 4066 3744 3513
Q 3744 3084 3544 2831
Q 3344 2578 2956 2516
Q 3422 2416 3680 2098
Q 3938 1781 3938 1306
Q 3938 681 3513 340
Q 3088 0 2303 0
L 628 0
L 628 4666
z
" transform="scale(0.015625)"/>
       <path id="DejaVuSans-4f" d="M 2522 4238
Q 1834 4238 1429 3725
Q 1025 3213 1025 2328
Q 1025 1447 1429 934
Q 1834 422 2522 422
Q 3209 422 3611 934
Q 4013 1447 4013 2328
Q 4013 3213 3611 3725
Q 3209 4238 2522 4238
z
M 2522 4750
Q 3503 4750 4090 4092
Q 4678 3434 4678 2328
Q 4678 1225 4090 567
Q 3503 -91 2522 -91
Q 1538 -91 948 565
Q 359 1222 359 2328
Q 359 3434 948 4092
Q 1538 4750 2522 4750
z
" transform="scale(0.015625)"/>
      </defs>
      <use xlink:href="#DejaVuSans-44"/>
      <use xlink:href="#DejaVuSans-42" x="77.001953"/>
      <use xlink:href="#DejaVuSans-4f" x="143.855469"/>
     </g>
    </g>
    <g id="line2d_40">
     <path d="M 508.620312 53.254688
L 518.620312 53.254688
L 528.620312 53.254688
" style="fill: none; stroke: #c55a11; stroke-width: 2; stroke-linecap: square"/>
    </g>
    <g id="text_21">
     <!-- TLBO-HHO -->
     <g transform="translate(536.620312 56.754688) scale(0.1 -0.1)">
      <defs>
       <path id="DejaVuSans-54" d="M -19 4666
L 3928 4666
L 3928 4134
L 2272 4134
L 2272 0
L 1638 0
L 1638 4134
L -19 4134
L -19 4666
z
" transform="scale(0.015625)"/>
       <path id="DejaVuSans-4c" d="M 628 4666
L 1259 4666
L 1259 531
L 3531 531
L 3531 0
L 628 0
L 628 4666
z
" transform="scale(0.015625)"/>
       <path id="DejaVuSans-48" d="M 628 4666
L 1259 4666
L 1259 2753
L 3553 2753
L 3553 4666
L 4184 4666
L 4184 0
L 3553 0
L 3553 2222
L 1259 2222
L 1259 0
L 628 0
L 628 4666
z
" transform="scale(0.015625)"/>
      </defs>
      <use xlink:href="#DejaVuSans-54"/>
      <use xlink:href="#DejaVuSans-4c" x="61.083984"/>
      <use xlink:href="#DejaVuSans-42" x="116.796875"/>
      <use xlink:href="#DejaVuSans-4f" x="183.650391"/>
      <use xlink:href="#DejaVuSans-2d" x="265.111328"/>
      <use xlink:href="#DejaVuSans-48" x="301.195312"/>
      <use xlink:href="#DejaVuSans-48" x="376.390625"/>
      <use xlink:href="#DejaVuSans-4f" x="451.585938"/>
     </g>
    </g>
    <g id="line2d_41">
     <path d="M 508.620312 67.932813
L 518.620312 67.932813
L 528.620312 67.932813
" style="fill: none; stroke: #70ad47; stroke-width: 2; stroke-linecap: square"/>
    </g>
    <g id="text_22">
     <!-- CWTSSA -->
     <g transform="translate(536.620312 71.432813) scale(0.1 -0.1)">
      <defs>
       <path id="DejaVuSans-43" d="M 4122 4306
L 4122 3641
Q 3803 3938 3442 4084
Q 3081 4231 2675 4231
Q 1875 4231 1450 3742
Q 1025 3253 1025 2328
Q 1025 1406 1450 917
Q 1875 428 2675 428
Q 3081 428 3442 575
Q 3803 722 4122 1019
L 4122 359
Q 3791 134 3420 21
Q 3050 -91 2638 -91
Q 1578 -91 968 557
Q 359 1206 359 2328
Q 359 3453 968 4101
Q 1578 4750 2638 4750
Q 3056 4750 3426 4639
Q 3797 4528 4122 4306
z
" transform="scale(0.015625)"/>
       <path id="DejaVuSans-57" d="M 213 4666
L 850 4666
L 1831 722
L 2809 4666
L 3519 4666
L 4500 722
L 5478 4666
L 6119 4666
L 4947 0
L 4153 0
L 3169 4050
L 2175 0
L 1381 0
L 213 4666
z
" transform="scale(0.015625)"/>
       <path id="DejaVuSans-53" d="M 3425 4513
L 3425 3897
Q 3066 4069 2747 4153
Q 2428 4238 2131 4238
Q 1616 4238 1336 4038
Q 1056 3838 1056 3469
Q 1056 3159 1242 3001
Q 1428 2844 1947 2747
L 2328 2669
Q 3034 2534 3370 2195
Q 3706 1856 3706 1288
Q 3706 609 3251 259
Q 2797 -91 1919 -91
Q 1588 -91 1214 -16
Q 841 59 441 206
L 441 856
Q 825 641 1194 531
Q 1563 422 1919 422
Q 2459 422 2753 634
Q 3047 847 3047 1241
Q 3047 1584 2836 1778
Q 2625 1972 2144 2069
L 1759 2144
Q 1053 2284 737 2584
Q 422 2884 422 3419
Q 422 4038 858 4394
Q 1294 4750 2059 4750
Q 2388 4750 2728 4690
Q 3069 4631 3425 4513
z
" transform="scale(0.015625)"/>
       <path id="DejaVuSans-41" d="M 2188 4044
L 1331 1722
L 3047 1722
L 2188 4044
z
M 1831 4666
L 2547 4666
L 4325 0
L 3669 0
L 3244 1197
L 1141 1197
L 716 0
L 50 0
L 1831 4666
z
" transform="scale(0.015625)"/>
      </defs>
      <use xlink:href="#DejaVuSans-43"/>
      <use xlink:href="#DejaVuSans-57" x="69.824219"/>
      <use xlink:href="#DejaVuSans-54" x="168.701172"/>
      <use xlink:href="#DejaVuSans-53" x="229.785156"/>
      <use xlink:href="#DejaVuSans-53" x="293.261719"/>
      <use xlink:href="#DejaVuSans-41" x="358.613281"/>
     </g>
    </g>
    <g id="line2d_42">
     <path d="M 508.620312 82.610938
L 518.620312 82.610938
L 528.620312 82.610938
" style="fill: none; stroke: #666666; stroke-width: 2; stroke-linecap: square"/>
    </g>
    <g id="text_23">
     <!-- RDHO-core -->
     <g transform="translate(536.620312 86.110938) scale(0.1 -0.1)">
      <use xlink:href="#DejaVuSans-52"/>
      <use xlink:href="#DejaVuSans-44" x="69.482422"/>
      <use xlink:href="#DejaVuSans-48" x="146.484375"/>
      <use xlink:href="#DejaVuSans-4f" x="221.679688"/>
      <use xlink:href="#DejaVuSans-2d" x="303.140625"/>
      <use xlink:href="#DejaVuSans-63" x="339.224609"/>
      <use xlink:href="#DejaVuSans-6f" x="394.205078"/>
      <use xlink:href="#DejaVuSans-72" x="455.386719"/>
      <use xlink:href="#DejaVuSans-65" x="494.25"/>
     </g>
    </g>
   </g>
  </g>
 </g>
 <defs>
  <clipPath id="p2362d8287b">
   <rect x="47.81" y="10.8" width="553.39" height="321.64"/>
  </clipPath>
 </defs>
</svg>
