<?xml version="1.0" encoding="utf-8" standalone="no"?>
<!DOCTYPE svg PUBLIC "-//W3C//DTD SVG 1.1//EN"
  "http://www.w3.org/Graphics/SVG/1.1/DTD/svg11.dtd">
<svg xmlns:xlink="http://www.w3.org/1999/xlink" width="661.68pt" height="374.4pt" viewBox="0 0 661.68 374.4" xmlns="http://www.w3.org/2000/svg" version="1.1">
 <metadata>
  <rdf:RDF xmlns:dc="http://purl.org/dc/elements/1.1/" xmlns:cc="http://creativecommons.org/ns#" xmlns:rdf="http://www.w3.org/1999/02/22-rdf-syntax-ns#">
   <cc:Work>
    <dc:type rdf:resource="http://purl.org/dc/dcmitype/StillImage"/>
    <dc:date>2026-07-23T16:44:38.162038</dc:date>
    <dc:format>image/svg+xml</dc:format>
    <dc:creator>
     <cc:Agent>
      <dc:title>Matplotlib v3.9.4, https://matplotlib.org/</dc:title>
     </cc:Agent>
    </dc:creator>
   </cc:Work>
  </rdf:RDF>
 </metadata>
 <defs>
  <style type="text/css">*{stroke-linejoin: round; stroke-linecap: butt}</style>
 </defs>
 <g id="figure_1">
  <g id="patch_1">
   <path d="M 0 374.4
L 661.68 374.4
L 661.68 0
L 0 0
z
" style="fill: #ffffff"/>
  </g>
  <g id="axes_1">
   <g id="patch_2">
    <path d="M 47.855 346.52
L 650.88 346.52
L 650.88 10.8
L 47.855 10.8
z
" style="fill: #ffffff"/>
   </g>
   <g id="patch_3">
    <path d="M 75.265227 346.52
L 94.843961 346.52
L 94.843961 203.65344
L 75.265227 203.65344
z
" clip-path="url(#p9ce733de06)" style="fill: #4472c4; stroke: #000000; stroke-linejoin: miter"/>
   </g>
   <g id="patch_4">
    <path d="M 156.843285 346.52
L 176.422018 346.52
L 176.422018 203.962764
L 156.843285 203.962764
z
" clip-path="url(#p9ce733de06)" style="fill: #4472c4; stroke: #000000; stroke-linejoin: miter"/>
   </g>
   <g id="patch_5">
    <path d="M 238.421342 346.52
L 258.000076 346.52
L 258.000076 203.955875
L 238.421342 203.955875
z
" clip-path="url(#p9ce733de06)" style="fill: #4472c4; stroke: #000000; stroke-linejoin: miter"/>
   </g>
   <g id="patch_6">
    <path d="M 319.999399 346.52
L 339.578133 346.52
L 339.578133 203.547365
L 319.999399 203.547365
z
" clip-path="url(#p9ce733de06)" style="fill: #4472c4; stroke: #000000; stroke-linejoin: miter"/>
   </g>
   <g id="patch_7">
    <path d="M 401.577457 346.52
L 421.15619 346.52
L 421.15619 203.723024
L 401.577457 203.723024
z
" clip-path="url(#p9ce733de06)" style="fill: #4472c4; stroke: #000000; stroke-linejoin: miter"/>
   </g>
   <g id="patch_8">
    <path d="M 483.155514 346.52
L 502.734248 346.52
L 502.734248 204.327261
L 483.155514 204.327261
z
" clip-path="url(#p9ce733de06)" style="fill: #4472c4; stroke: #000000; stroke-linejoin: miter"/>
   </g>
   <g id="patch_9">
    <path d="M 564.733571 346.52
L 584.312305 346.52
L 584.312305 204.049839
L 564.733571 204.049839
z
" clip-path="url(#p9ce733de06)" style="fill: #4472c4; stroke: #000000; stroke-linejoin: miter"/>
   </g>
   <g id="patch_10">
    <path d="M 94.843961 346.52
L 114.422695 346.52
L 114.422695 50.957349
L 94.843961 50.957349
z
" clip-path="url(#p9ce733de06)" style="fill: #70ad47; stroke: #000000; stroke-linejoin: miter"/>
   </g>
   <g id="patch_11">
    <path d="M 176.422018 346.52
L 196.000752 346.52
L 196.000752 52.06425
L 176.422018 52.06425
z
" clip-path="url(#p9ce733de06)" style="fill: #70ad47; stroke: #000000; stroke-linejoin: miter"/>
   </g>
   <g id="patch_12">
    <path d="M 258.000076 346.52
L 277.57881 346.52
L 277.57881 52.600983
L 258.000076 52.600983
z
" clip-path="url(#p9ce733de06)" style="fill: #70ad47; stroke: #000000; stroke-linejoin: miter"/>
   </g>
   <g id="patch_13">
    <path d="M 339.578133 346.52
L 359.156867 346.52
L 359.156867 49.17033
L 339.578133 49.17033
z
" clip-path="url(#p9ce733de06)" style="fill: #70ad47; stroke: #000000; stroke-linejoin: miter"/>
   </g>
   <g id="patch_14">
    <path d="M 421.15619 346.52
L 440.734924 346.52
L 440.734924 50.668425
L 421.15619 50.668425
z
" clip-path="url(#p9ce733de06)" style="fill: #70ad47; stroke: #000000; stroke-linejoin: miter"/>
   </g>
   <g id="patch_15">
    <path d="M 502.734248 346.52
L 522.312982 346.52
L 522.312982 53.052727
L 502.734248 53.052727
z
" clip-path="url(#p9ce733de06)" style="fill: #70ad47; stroke: #000000; stroke-linejoin: miter"/>
   </g>
   <g id="patch_16">
    <path d="M 584.312305 346.52
L 603.891039 346.52
L 603.891039 52.330097
L 584.312305 52.330097
z
" clip-path="url(#p9ce733de06)" style="fill: #70ad47; stroke: #000000; stroke-linejoin: miter"/>
   </g>
   <g id="patch_17">
    <path d="M 114.422695 346.52
L 134.001429 346.52
L 134.001429 116.13437
L 114.422695 116.13437
z
" clip-path="url(#p9ce733de06)" style="fill: #ed7d31; stroke: #000000; stroke-linejoin: miter"/>
   </g>
   <g id="patch_18">
    <path d="M 196.000752 346.52
L 215.579486 346.52
L 215.579486 117.377778
L 196.000752 117.377778
z
" clip-path="url(#p9ce733de06)" style="fill: #ed7d31; stroke: #000000; stroke-linejoin: miter"/>
   </g>
   <g id="patch_19">
    <path d="M 277.57881 346.52
L 297.157543 346.52
L 297.157543 118.443556
L 277.57881 118.443556
z
" clip-path="url(#p9ce733de06)" style="fill: #ed7d31; stroke: #000000; stroke-linejoin: miter"/>
   </g>
   <g id="patch_20">
    <path d="M 359.156867 346.52
L 378.735601 346.52
L 378.735601 112.937037
L 359.156867 112.937037
z
" clip-path="url(#p9ce733de06)" style="fill: #ed7d31; stroke: #000000; stroke-linejoin: miter"/>
   </g>
   <g id="patch_21">
    <path d="M 440.734924 346.52
L 460.313658 346.52
L 460.313658 117.288963
L 440.734924 117.288963
z
" clip-path="url(#p9ce733de06)" style="fill: #ed7d31; stroke: #000000; stroke-linejoin: miter"/>
   </g>
   <g id="patch_22">
    <path d="M 522.312982 346.52
L 541.891715 346.52
L 541.891715 123.239556
L 522.312982 123.239556
z
" clip-path="url(#p9ce733de06)" style="fill: #ed7d31; stroke: #000000; stroke-linejoin: miter"/>
   </g>
   <g id="patch_23">
    <path d="M 603.891039 346.52
L 623.469773 346.52
L 623.469773 118.88763
L 603.891039 118.88763
z
" clip-path="url(#p9ce733de06)" style="fill: #ed7d31; stroke: #000000; stroke-linejoin: miter"/>
   </g>
   <g id="matplotlib.axis_1">
    <g id="xtick_1">
     <g id="line2d_1">
      <defs>
       <path id="m5077a988c2" d="M 0 0
L 0 3.5
" style="stroke: #000000; stroke-width: 0.8"/>
      </defs>
      <g>
       <use xlink:href="#m5077a988c2" x="104.633328" y="346.52" style="stroke: #000000; stroke-width: 0.8"/>
      </g>
     </g>
     <g id="text_1">
      <!-- S1 -->
      <g transform="translate(98.277859 361.118438) scale(0.1 -0.1)">
       <defs>
        <path id="DejaVuSans-53" d="M 3425 4513
L 3425 3897
Q 3066 4069 2747 4153
Q 2428 4238 2131 4238
Q 1616 4238 1336 4038
Q 1056 3838 1056 3469
Q 1056 3159 1242 3001
Q 1428 2844 1947 2747
L 2328 2669
Q 3034 2534 3370 2195
Q 3706 1856 3706 1288
Q 3706 609 3251 259
Q 2797 -91 1919 -91
Q 1588 -91 1214 -16
Q 841 59 441 206
L 441 856
Q 825 641 1194 531
Q 1563 422 1919 422
Q 2459 422 2753 634
Q 3047 847 3047 1241
Q 3047 1584 2836 1778
Q 2625 1972 2144 2069
L 1759 2144
Q 1053 2284 737 2584
Q 422 2884 422 3419
Q 422 4038 858 4394
Q 1294 4750 2059 4750
Q 2388 4750 2728 4690
Q 3069 4631 3425 4513
z
" transform="scale(0.015625)"/>
        <path id="DejaVuSans-31" d="M 794 531
L 1825 531
L 1825 4091
L 703 3866
L 703 4441
L 1819 4666
L 2450 4666
L 2450 531
L 3481 531
L 3481 0
L 794 0
L 794 531
z
" transform="scale(0.015625)"/>
       </defs>
       <use xlink:href="#DejaVuSans-53"/>
       <use xlink:href="#DejaVuSans-31" x="63.476562"/>
      </g>
     </g>
    </g>
    <g id="xtick_2">
     <g id="line2d_2">
      <g>
       <use xlink:href="#m5077a988c2" x="186.211385" y="346.52" style="stroke: #000000; stroke-width: 0.8"/>
      </g>
     </g>
     <g id="text_2">
      <!-- S2 -->
      <g transform="translate(179.855917 361.118438) scale(0.1 -0.1)">
       <defs>
        <path id="DejaVuSans-32" d="M 1228 531
L 3431 531
L 3431 0
L 469 0
L 469 531
Q 828 903 1448 1529
Q 2069 2156 2228 2338
Q 2531 2678 2651 2914
Q 2772 3150 2772 3378
Q 2772 3750 2511 3984
Q 2250 4219 1831 4219
Q 1534 4219 1204 4116
Q 875 4013 500 3803
L 500 4441
Q 881 4594 1212 4672
Q 1544 4750 1819 4750
Q 2544 4750 2975 4387
Q 3406 4025 3406 3419
Q 3406 3131 3298 2873
Q 3191 2616 2906 2266
Q 2828 2175 2409 1742
Q 1991 1309 1228 531
z
" transform="scale(0.015625)"/>
       </defs>
       <use xlink:href="#DejaVuSans-53"/>
       <use xlink:href="#DejaVuSans-32" x="63.476562"/>
      </g>
     </g>
    </g>
    <g id="xtick_3">
     <g id="line2d_3">
      <g>
       <use xlink:href="#m5077a988c2" x="267.789443" y="346.52" style="stroke: #000000; stroke-width: 0.8"/>
      </g>
     </g>
     <g id="text_3">
      <!-- S3 -->
      <g transform="translate(261.433974 361.118438) scale(0.1 -0.1)">
       <defs>
        <path id="DejaVuSans-33" d="M 2597 2516
Q 3050 2419 3304 2112
Q 3559 1806 3559 1356
Q 3559 666 3084 287
Q 2609 -91 1734 -91
Q 1441 -91 1130 -33
Q 819 25 488 141
L 488 750
Q 750 597 1062 519
Q 1375 441 1716 441
Q 2309 441 2620 675
Q 2931 909 2931 1356
Q 2931 1769 2642 2001
Q 2353 2234 1838 2234
L 1294 2234
L 1294 2753
L 1863 2753
Q 2328 2753 2575 2939
Q 2822 3125 2822 3475
Q 2822 3834 2567 4026
Q 2313 4219 1838 4219
Q 1578 4219 1281 4162
Q 984 4106 628 3988
L 628 4550
Q 988 4650 1302 4700
Q 1616 4750 1894 4750
Q 2613 4750 3031 4423
Q 3450 4097 3450 3541
Q 3450 3153 3228 2886
Q 3006 2619 2597 2516
z
" transform="scale(0.015625)"/>
       </defs>
       <use xlink:href="#DejaVuSans-53"/>
       <use xlink:href="#DejaVuSans-33" x="63.476562"/>
      </g>
     </g>
    </g>
    <g id="xtick_4">
     <g id="line2d_4">
      <g>
       <use xlink:href="#m5077a988c2" x="349.3675" y="346.52" style="stroke: #000000; stroke-width: 0.8"/>
      </g>
     </g>
     <g id="text_4">
      <!-- S4 -->
      <g transform="translate(343.012031 361.118438) scale(0.1 -0.1)">
       <defs>
        <path id="DejaVuSans-34" d="M 2419 4116
L 825 1625
L 2419 1625
L 2419 4116
z
M 2253 4666
L 3047 4666
L 3047 1625
L 3713 1625
L 3713 1100
L 3047 1100
L 3047 0
L 2419 0
L 2419 1100
L 313 1100
L 313 1709
L 2253 4666
z
" transform="scale(0.015625)"/>
       </defs>
       <use xlink:href="#DejaVuSans-53"/>
       <use xlink:href="#DejaVuSans-34" x="63.476562"/>
      </g>
     </g>
    </g>
    <g id="xtick_5">
     <g id="line2d_5">
      <g>
       <use xlink:href="#m5077a988c2" x="430.945557" y="346.52" style="stroke: #000000; stroke-width: 0.8"/>
      </g>
     </g>
     <g id="text_5">
      <!-- S5 -->
      <g transform="translate(424.590089 361.118438) scale(0.1 -0.1)">
       <defs>
        <path id="DejaVuSans-35" d="M 691 4666
L 3169 4666
L 3169 4134
L 1269 4134
L 1269 2991
Q 1406 3038 1543 3061
Q 1681 3084 1819 3084
Q 2600 3084 3056 2656
Q 3513 2228 3513 1497
Q 3513 744 3044 326
Q 2575 -91 1722 -91
Q 1428 -91 1123 -41
Q 819 9 494 109
L 494 744
Q 775 591 1075 516
Q 1375 441 1709 441
Q 2250 441 2565 725
Q 2881 1009 2881 1497
Q 2881 1984 2565 2268
Q 2250 2553 1709 2553
Q 1456 2553 1204 2497
Q 953 2441 691 2322
L 691 4666
z
" transform="scale(0.015625)"/>
       </defs>
       <use xlink:href="#DejaVuSans-53"/>
       <use xlink:href="#DejaVuSans-35" x="63.476562"/>
      </g>
     </g>
    </g>
    <g id="xtick_6">
     <g id="line2d_6">
      <g>
       <use xlink:href="#m5077a988c2" x="512.523615" y="346.52" style="stroke: #000000; stroke-width: 0.8"/>
      </g>
     </g>
     <g id="text_6">
      <!-- S6 -->
      <g transform="translate(506.168146 361.118438) scale(0.1 -0.1)">
       <defs>
        <path id="DejaVuSans-36" d="M 2113 2584
Q 1688 2584 1439 2293
Q 1191 2003 1191 1497
Q 1191 994 1439 701
Q 1688 409 2113 409
Q 2538 409 2786 701
Q 3034 994 3034 1497
Q 3034 2003 2786 2293
Q 2538 2584 2113 2584
z
M 3366 4563
L 3366 3988
Q 3128 4100 2886 4159
Q 2644 4219 2406 4219
Q 1781 4219 1451 3797
Q 1122 3375 1075 2522
Q 1259 2794 1537 2939
Q 1816 3084 2150 3084
Q 2853 3084 3261 2657
Q 3669 2231 3669 1497
Q 3669 778 3244 343
Q 2819 -91 2113 -91
Q 1303 -91 875 529
Q 447 1150 447 2328
Q 447 3434 972 4092
Q 1497 4750 2381 4750
Q 2619 4750 2861 4703
Q 3103 4656 3366 4563
z
" transform="scale(0.015625)"/>
       </defs>
       <use xlink:href="#DejaVuSans-53"/>
       <use xlink:href="#DejaVuSans-36" x="63.476562"/>
      </g>
     </g>
    </g>
    <g id="xtick_7">
     <g id="line2d_7">
      <g>
       <use xlink:href="#m5077a988c2" x="594.101672" y="346.52" style="stroke: #000000; stroke-width: 0.8"/>
      </g>
     </g>
     <g id="text_7">
      <!-- S7 -->
      <g transform="translate(587.746203 361.118438) scale(0.1 -0.1)">
       <defs>
        <path id="DejaVuSans-37" d="M 525 4666
L 3525 4666
L 3525 4397
L 1831 0
L 1172 0
L 2766 4134
L 525 4134
L 525 4666
z
" transform="scale(0.015625)"/>
       </defs>
       <use xlink:href="#DejaVuSans-53"/>
       <use xlink:href="#DejaVuSans-37" x="63.476562"/>
      </g>
     </g>
    </g>
   </g>
   <g id="matplotlib.axis_2">
    <g id="ytick_1">
     <g id="line2d_8">
      <path d="M 47.855 346.52
L 650.88 346.52
" clip-path="url(#p9ce733de06)" style="fill: none; stroke: #b0b0b0; stroke-opacity: 0.25; stroke-width: 0.8; stroke-linecap: square"/>
     </g>
     <g id="line2d_9">
      <defs>
       <path id="m314e7d8571" d="M 0 0
L -3.5 0
" style="stroke: #000000; stroke-width: 0.8"/>
      </defs>
      <g>
       <use xlink:href="#m314e7d8571" x="47.855" y="346.52" style="stroke: #000000; stroke-width: 0.8"/>
      </g>
     </g>
     <g id="text_8">
      <!-- 0.0 -->
      <g transform="translate(24.951875 350.319219) scale(0.1 -0.1)">
       <defs>
        <path id="DejaVuSans-30" d="M 2034 4250
Q 1547 4250 1301 3770
Q 1056 3291 1056 2328
Q 1056 1369 1301 889
Q 1547 409 2034 409
Q 2525 409 2770 889
Q 3016 1369 3016 2328
Q 3016 3291 2770 3770
Q 2525 4250 2034 4250
z
M 2034 4750
Q 2819 4750 3233 4129
Q 3647 3509 3647 2328
Q 3647 1150 3233 529
Q 2819 -91 2034 -91
Q 1250 -91 836 529
Q 422 1150 422 2328
Q 422 3509 836 4129
Q 1250 4750 2034 4750
z
" transform="scale(0.015625)"/>
        <path id="DejaVuSans-2e" d="M 684 794
L 1344 794
L 1344 0
L 684 0
L 684 794
z
" transform="scale(0.015625)"/>
       </defs>
       <use xlink:href="#DejaVuSans-30"/>
       <use xlink:href="#DejaVuSans-2e" x="63.623047"/>
       <use xlink:href="#DejaVuSans-30" x="95.410156"/>
      </g>
     </g>
    </g>
    <g id="ytick_2">
     <g id="line2d_10">
      <path d="M 47.855 282.573333
L 650.88 282.573333
" clip-path="url(#p9ce733de06)" style="fill: none; stroke: #b0b0b0; stroke-opacity: 0.25; stroke-width: 0.8; stroke-linecap: square"/>
     </g>
     <g id="line2d_11">
      <g>
       <use xlink:href="#m314e7d8571" x="47.855" y="282.573333" style="stroke: #000000; stroke-width: 0.8"/>
      </g>
     </g>
     <g id="text_9">
      <!-- 0.2 -->
      <g transform="translate(24.951875 286.372552) scale(0.1 -0.1)">
       <use xlink:href="#DejaVuSans-30"/>
       <use xlink:href="#DejaVuSans-2e" x="63.623047"/>
       <use xlink:href="#DejaVuSans-32" x="95.410156"/>
      </g>
     </g>
    </g>
    <g id="ytick_3">
     <g id="line2d_12">
      <path d="M 47.855 218.626667
L 650.88 218.626667
" clip-path="url(#p9ce733de06)" style="fill: none; stroke: #b0b0b0; stroke-opacity: 0.25; stroke-width: 0.8; stroke-linecap: square"/>
     </g>
     <g id="line2d_13">
      <g>
       <use xlink:href="#m314e7d8571" x="47.855" y="218.626667" style="stroke: #000000; stroke-width: 0.8"/>
      </g>
     </g>
     <g id="text_10">
      <!-- 0.4 -->
      <g transform="translate(24.951875 222.425885) scale(0.1 -0.1)">
       <use xlink:href="#DejaVuSans-30"/>
       <use xlink:href="#DejaVuSans-2e" x="63.623047"/>
       <use xlink:href="#DejaVuSans-34" x="95.410156"/>
      </g>
     </g>
    </g>
    <g id="ytick_4">
     <g id="line2d_14">
      <path d="M 47.855 154.68
L 650.88 154.68
" clip-path="url(#p9ce733de06)" style="fill: none; stroke: #b0b0b0; stroke-opacity: 0.25; stroke-width: 0.8; stroke-linecap: square"/>
     </g>
     <g id="line2d_15">
      <g>
       <use xlink:href="#m314e7d8571" x="47.855" y="154.68" style="stroke: #000000; stroke-width: 0.8"/>
      </g>
     </g>
     <g id="text_11">
      <!-- 0.6 -->
      <g transform="translate(24.951875 158.479219) scale(0.1 -0.1)">
       <use xlink:href="#DejaVuSans-30"/>
       <use xlink:href="#DejaVuSans-2e" x="63.623047"/>
       <use xlink:href="#DejaVuSans-36" x="95.410156"/>
      </g>
     </g>
    </g>
    <g id="ytick_5">
     <g id="line2d_16">
      <path d="M 47.855 90.733333
L 650.88 90.733333
" clip-path="url(#p9ce733de06)" style="fill: none; stroke: #b0b0b0; stroke-opacity: 0.25; stroke-width: 0.8; stroke-linecap: square"/>
     </g>
     <g id="line2d_17">
      <g>
       <use xlink:href="#m314e7d8571" x="47.855" y="90.733333" style="stroke: #000000; stroke-width: 0.8"/>
      </g>
     </g>
     <g id="text_12">
      <!-- 0.8 -->
      <g transform="translate(24.951875 94.532552) scale(0.1 -0.1)">
       <defs>
        <path id="DejaVuSans-38" d="M 2034 2216
Q 1584 2216 1326 1975
Q 1069 1734 1069 1313
Q 1069 891 1326 650
Q 1584 409 2034 409
Q 2484 409 2743 651
Q 3003 894 3003 1313
Q 3003 1734 2745 1975
Q 2488 2216 2034 2216
z
M 1403 2484
Q 997 2584 770 2862
Q 544 3141 544 3541
Q 544 4100 942 4425
Q 1341 4750 2034 4750
Q 2731 4750 3128 4425
Q 3525 4100 3525 3541
Q 3525 3141 3298 2862
Q 3072 2584 2669 2484
Q 3125 2378 3379 2068
Q 3634 1759 3634 1313
Q 3634 634 3220 271
Q 2806 -91 2034 -91
Q 1263 -91 848 271
Q 434 634 434 1313
Q 434 1759 690 2068
Q 947 2378 1403 2484
z
M 1172 3481
Q 1172 3119 1398 2916
Q 1625 2713 2034 2713
Q 2441 2713 2670 2916
Q 2900 3119 2900 3481
Q 2900 3844 2670 4047
Q 2441 4250 2034 4250
Q 1625 4250 1398 4047
Q 1172 3844 1172 3481
z
" transform="scale(0.015625)"/>
       </defs>
       <use xlink:href="#DejaVuSans-30"/>
       <use xlink:href="#DejaVuSans-2e" x="63.623047"/>
       <use xlink:href="#DejaVuSans-38" x="95.410156"/>
      </g>
     </g>
    </g>
    <g id="ytick_6">
     <g id="line2d_18">
      <path d="M 47.855 26.786667
L 650.88 26.786667
" clip-path="url(#p9ce733de06)" style="fill: none; stroke: #b0b0b0; stroke-opacity: 0.25; stroke-width: 0.8; stroke-linecap: square"/>
     </g>
     <g id="line2d_19">
      <g>
       <use xlink:href="#m314e7d8571" x="47.855" y="26.786667" style="stroke: #000000; stroke-width: 0.8"/>
      </g>
     </g>
     <g id="text_13">
      <!-- 1.0 -->
      <g transform="translate(24.951875 30.585885) scale(0.1 -0.1)">
       <use xlink:href="#DejaVuSans-31"/>
       <use xlink:href="#DejaVuSans-2e" x="63.623047"/>
       <use xlink:href="#DejaVuSans-30" x="95.410156"/>
      </g>
     </g>
    </g>
    <g id="text_14">
     <!-- Score -->
     <g transform="translate(18.872188 192.662344) rotate(-90) scale(0.1 -0.1)">
      <defs>
       <path id="DejaVuSans-63" d="M 3122 3366
L 3122 2828
Q 2878 2963 2633 3030
Q 2388 3097 2138 3097
Q 1578 3097 1268 2742
Q 959 2388 959 1747
Q 959 1106 1268 751
Q 1578 397 2138 397
Q 2388 397 2633 464
Q 2878 531 3122 666
L 3122 134
Q 2881 22 2623 -34
Q 2366 -91 2075 -91
Q 1284 -91 818 406
Q 353 903 353 1747
Q 353 2603 823 3093
Q 1294 3584 2113 3584
Q 2378 3584 2631 3529
Q 2884 3475 3122 3366
z
" transform="scale(0.015625)"/>
       <path id="DejaVuSans-6f" d="M 1959 3097
Q 1497 3097 1228 2736
Q 959 2375 959 1747
Q 959 1119 1226 758
Q 1494 397 1959 397
Q 2419 397 2687 759
Q 2956 1122 2956 1747
Q 2956 2369 2687 2733
Q 2419 3097 1959 3097
z
M 1959 3584
Q 2709 3584 3137 3096
Q 3566 2609 3566 1747
Q 3566 888 3137 398
Q 2709 -91 1959 -91
Q 1206 -91 779 398
Q 353 888 353 1747
Q 353 2609 779 3096
Q 1206 3584 1959 3584
z
" transform="scale(0.015625)"/>
       <path id="DejaVuSans-72" d="M 2631 2963
Q 2534 3019 2420 3045
Q 2306 3072 2169 3072
Q 1681 3072 1420 2755
Q 1159 2438 1159 1844
L 1159 0
L 581 0
L 581 3500
L 1159 3500
L 1159 2956
Q 1341 3275 1631 3429
Q 1922 3584 2338 3584
Q 2397 3584 2469 3576
Q 2541 3569 2628 3553
L 2631 2963
z
" transform="scale(0.015625)"/>
       <path id="DejaVuSans-65" d="M 3597 1894
L 3597 1613
L 953 1613
Q 991 1019 1311 708
Q 1631 397 2203 397
Q 2534 397 2845 478
Q 3156 559 3463 722
L 3463 178
Q 3153 47 2828 -22
Q 2503 -91 2169 -91
Q 1331 -91 842 396
Q 353 884 353 1716
Q 353 2575 817 3079
Q 1281 3584 2069 3584
Q 2775 3584 3186 3129
Q 3597 2675 3597 1894
z
M 3022 2063
Q 3016 2534 2758 2815
Q 2500 3097 2075 3097
Q 1594 3097 1305 2825
Q 1016 2553 972 2059
L 3022 2063
z
" transform="scale(0.015625)"/>
      </defs>
      <use xlink:href="#DejaVuSans-53"/>
      <use xlink:href="#DejaVuSans-63" x="63.476562"/>
      <use xlink:href="#DejaVuSans-6f" x="118.457031"/>
      <use xlink:href="#DejaVuSans-72" x="179.638672"/>
      <use xlink:href="#DejaVuSans-65" x="218.501953"/>
     </g>
    </g>
   </g>
   <g id="LineCollection_1">
    <path d="M 85.054594 213.942487
L 85.054594 193.364393
" clip-path="url(#p9ce733de06)" style="fill: none; stroke: #000000; stroke-width: 1.5"/>
    <path d="M 166.632652 214.093762
L 166.632652 193.831765
" clip-path="url(#p9ce733de06)" style="fill: none; stroke: #000000; stroke-width: 1.5"/>
    <path d="M 248.210709 214.430678
L 248.210709 193.481072
" clip-path="url(#p9ce733de06)" style="fill: none; stroke: #000000; stroke-width: 1.5"/>
    <path d="M 329.788766 213.901509
L 329.788766 193.19322
" clip-path="url(#p9ce733de06)" style="fill: none; stroke: #000000; stroke-width: 1.5"/>
    <path d="M 411.366824 213.85452
L 411.366824 193.591527
" clip-path="url(#p9ce733de06)" style="fill: none; stroke: #000000; stroke-width: 1.5"/>
    <path d="M 492.944881 214.656162
L 492.944881 193.99836
" clip-path="url(#p9ce733de06)" style="fill: none; stroke: #000000; stroke-width: 1.5"/>
    <path d="M 574.522938 214.470914
L 574.522938 193.628764
" clip-path="url(#p9ce733de06)" style="fill: none; stroke: #000000; stroke-width: 1.5"/>
   </g>
   <g id="line2d_20">
    <defs>
     <path id="mbb29113acd" d="M 3 0
L -3 -0
" style="stroke: #000000"/>
    </defs>
    <g clip-path="url(#p9ce733de06)">
     <use xlink:href="#mbb29113acd" x="85.054594" y="213.942487" style="stroke: #000000"/>
     <use xlink:href="#mbb29113acd" x="166.632652" y="214.093762" style="stroke: #000000"/>
     <use xlink:href="#mbb29113acd" x="248.210709" y="214.430678" style="stroke: #000000"/>
     <use xlink:href="#mbb29113acd" x="329.788766" y="213.901509" style="stroke: #000000"/>
     <use xlink:href="#mbb29113acd" x="411.366824" y="213.85452" style="stroke: #000000"/>
     <use xlink:href="#mbb29113acd" x="492.944881" y="214.656162" style="stroke: #000000"/>
     <use xlink:href="#mbb29113acd" x="574.522938" y="214.470914" style="stroke: #000000"/>
    </g>
   </g>
   <g id="line2d_21">
    <g clip-path="url(#p9ce733de06)">
     <use xlink:href="#mbb29113acd" x="85.054594" y="193.364393" style="stroke: #000000"/>
     <use xlink:href="#mbb29113acd" x="166.632652" y="193.831765" style="stroke: #000000"/>
     <use xlink:href="#mbb29113acd" x="248.210709" y="193.481072" style="stroke: #000000"/>
     <use xlink:href="#mbb29113acd" x="329.788766" y="193.19322" style="stroke: #000000"/>
     <use xlink:href="#mbb29113acd" x="411.366824" y="193.591527" style="stroke: #000000"/>
     <use xlink:href="#mbb29113acd" x="492.944881" y="193.99836" style="stroke: #000000"/>
     <use xlink:href="#mbb29113acd" x="574.522938" y="193.628764" style="stroke: #000000"/>
    </g>
   </g>
   <g id="LineCollection_2">
    <path d="M 104.633328 57.497463
L 104.633328 44.417236
" clip-path="url(#p9ce733de06)" style="fill: none; stroke: #000000; stroke-width: 1.5"/>
    <path d="M 186.211385 58.501145
L 186.211385 45.627355
" clip-path="url(#p9ce733de06)" style="fill: none; stroke: #000000; stroke-width: 1.5"/>
    <path d="M 267.789443 59.554427
L 267.789443 45.647538
" clip-path="url(#p9ce733de06)" style="fill: none; stroke: #000000; stroke-width: 1.5"/>
    <path d="M 349.3675 55.300173
L 349.3675 43.040488
" clip-path="url(#p9ce733de06)" style="fill: none; stroke: #000000; stroke-width: 1.5"/>
    <path d="M 430.945557 56.853407
L 430.945557 44.483443
" clip-path="url(#p9ce733de06)" style="fill: none; stroke: #000000; stroke-width: 1.5"/>
    <path d="M 512.523615 59.901085
L 512.523615 46.204369
" clip-path="url(#p9ce733de06)" style="fill: none; stroke: #000000; stroke-width: 1.5"/>
    <path d="M 594.101672 58.920524
L 594.101672 45.73967
" clip-path="url(#p9ce733de06)" style="fill: none; stroke: #000000; stroke-width: 1.5"/>
   </g>
   <g id="line2d_22">
    <g clip-path="url(#p9ce733de06)">
     <use xlink:href="#mbb29113acd" x="104.633328" y="57.497463" style="stroke: #000000"/>
     <use xlink:href="#mbb29113acd" x="186.211385" y="58.501145" style="stroke: #000000"/>
     <use xlink:href="#mbb29113acd" x="267.789443" y="59.554427" style="stroke: #000000"/>
     <use xlink:href="#mbb29113acd" x="349.3675" y="55.300173" style="stroke: #000000"/>
     <use xlink:href="#mbb29113acd" x="430.945557" y="56.853407" style="stroke: #000000"/>
     <use xlink:href="#mbb29113acd" x="512.523615" y="59.901085" style="stroke: #000000"/>
     <use xlink:href="#mbb29113acd" x="594.101672" y="58.920524" style="stroke: #000000"/>
    </g>
   </g>
   <g id="line2d_23">
    <g clip-path="url(#p9ce733de06)">
     <use xlink:href="#mbb29113acd" x="104.633328" y="44.417236" style="stroke: #000000"/>
     <use xlink:href="#mbb29113acd" x="186.211385" y="45.627355" style="stroke: #000000"/>
     <use xlink:href="#mbb29113acd" x="267.789443" y="45.647538" style="stroke: #000000"/>
     <use xlink:href="#mbb29113acd" x="349.3675" y="43.040488" style="stroke: #000000"/>
     <use xlink:href="#mbb29113acd" x="430.945557" y="44.483443" style="stroke: #000000"/>
     <use xlink:href="#mbb29113acd" x="512.523615" y="46.204369" style="stroke: #000000"/>
     <use xlink:href="#mbb29113acd" x="594.101672" y="45.73967" style="stroke: #000000"/>
    </g>
   </g>
   <g id="LineCollection_3">
    <path d="M 124.212062 133.623573
L 124.212062 98.645168
" clip-path="url(#p9ce733de06)" style="fill: none; stroke: #000000; stroke-width: 1.5"/>
    <path d="M 205.790119 135.34022
L 205.790119 99.415336
" clip-path="url(#p9ce733de06)" style="fill: none; stroke: #000000; stroke-width: 1.5"/>
    <path d="M 287.368176 136.249954
L 287.368176 100.637157
" clip-path="url(#p9ce733de06)" style="fill: none; stroke: #000000; stroke-width: 1.5"/>
    <path d="M 368.946234 129.923508
L 368.946234 95.950566
" clip-path="url(#p9ce733de06)" style="fill: none; stroke: #000000; stroke-width: 1.5"/>
    <path d="M 450.524291 135.080003
L 450.524291 99.497923
" clip-path="url(#p9ce733de06)" style="fill: none; stroke: #000000; stroke-width: 1.5"/>
    <path d="M 532.102348 142.34325
L 532.102348 104.135861
" clip-path="url(#p9ce733de06)" style="fill: none; stroke: #000000; stroke-width: 1.5"/>
    <path d="M 613.680406 136.6401
L 613.680406 101.135159
" clip-path="url(#p9ce733de06)" style="fill: none; stroke: #000000; stroke-width: 1.5"/>
   </g>
   <g id="line2d_24">
    <g clip-path="url(#p9ce733de06)">
     <use xlink:href="#mbb29113acd" x="124.212062" y="133.623573" style="stroke: #000000"/>
     <use xlink:href="#mbb29113acd" x="205.790119" y="135.34022" style="stroke: #000000"/>
     <use xlink:href="#mbb29113acd" x="287.368176" y="136.249954" style="stroke: #000000"/>
     <use xlink:href="#mbb29113acd" x="368.946234" y="129.923508" style="stroke: #000000"/>
     <use xlink:href="#mbb29113acd" x="450.524291" y="135.080003" style="stroke: #000000"/>
     <use xlink:href="#mbb29113acd" x="532.102348" y="142.34325" style="stroke: #000000"/>
     <use xlink:href="#mbb29113acd" x="613.680406" y="136.6401" style="stroke: #000000"/>
    </g>
   </g>
   <g id="line2d_25">
    <g clip-path="url(#p9ce733de06)">
     <use xlink:href="#mbb29113acd" x="124.212062" y="98.645168" style="stroke: #000000"/>
     <use xlink:href="#mbb29113acd" x="205.790119" y="99.415336" style="stroke: #000000"/>
     <use xlink:href="#mbb29113acd" x="287.368176" y="100.637157" style="stroke: #000000"/>
     <use xlink:href="#mbb29113acd" x="368.946234" y="95.950566" style="stroke: #000000"/>
     <use xlink:href="#mbb29113acd" x="450.524291" y="99.497923" style="stroke: #000000"/>
     <use xlink:href="#mbb29113acd" x="532.102348" y="104.135861" style="stroke: #000000"/>
     <use xlink:href="#mbb29113acd" x="613.680406" y="101.135159" style="stroke: #000000"/>
    </g>
   </g>
   <g id="patch_24">
    <path d="M 47.855 346.52
L 47.855 10.8
" style="fill: none; stroke: #000000; stroke-width: 0.8; stroke-linejoin: miter; stroke-linecap: square"/>
   </g>
   <g id="patch_25">
    <path d="M 650.88 346.52
L 650.88 10.8
" style="fill: none; stroke: #000000; stroke-width: 0.8; stroke-linejoin: miter; stroke-linecap: square"/>
   </g>
   <g id="patch_26">
    <path d="M 47.855 346.52
L 650.88 346.52
" style="fill: none; stroke: #000000; stroke-width: 0.8; stroke-linejoin: miter; stroke-linecap: square"/>
   </g>
   <g id="patch_27">
    <path d="M 47.855 10.8
L 650.88 10.8
" style="fill: none; stroke: #000000; stroke-width: 0.8; stroke-linejoin: miter; stroke-linecap: square"/>
   </g>
   <g id="legend_1">
    <g id="patch_28">
     <path d="M 54.855 341.52
L 193.505 341.52
Q 195.505 341.52 195.505 339.52
L 195.505 296.485625
Q 195.505 294.485625 193.505 294.485625
L 54.855 294.485625
Q 52.855 294.485625 52.855 296.485625
L 52.855 339.52
Q 52.855 341.52 54.855 341.52
z
" style="fill: #ffffff; opacity: 0.8; stroke: #cccccc; stroke-linejoin: miter"/>
    </g>
    <g id="patch_29">
     <path d="M 56.855 306.084063
L 76.855 306.084063
L 76.855 299.084063
L 56.855 299.084063
z
" style="fill: #4472c4; stroke: #000000; stroke-linejoin: miter"/>
    </g>
    <g id="text_15">
     <!-- QoE -->
     <g transform="translate(84.855 306.084063) scale(0.1 -0.1)">
      <defs>
       <path id="DejaVuSans-51" d="M 2522 4238
Q 1834 4238 1429 3725
Q 1025 3213 1025 2328
Q 1025 1447 1429 934
Q 1834 422 2522 422
Q 3209 422 3611 934
Q 4013 1447 4013 2328
Q 4013 3213 3611 3725
Q 3209 4238 2522 4238
z
M 3406 84
L 4238 -825
L 3475 -825
L 2784 -78
Q 2681 -84 2626 -87
Q 2572 -91 2522 -91
Q 1538 -91 948 567
Q 359 1225 359 2328
Q 359 3434 948 4092
Q 1538 4750 2522 4750
Q 3503 4750 4090 4092
Q 4678 3434 4678 2328
Q 4678 1516 4351 937
Q 4025 359 3406 84
z
" transform="scale(0.015625)"/>
       <path id="DejaVuSans-45" d="M 628 4666
L 3578 4666
L 3578 4134
L 1259 4134
L 1259 2753
L 3481 2753
L 3481 2222
L 1259 2222
L 1259 531
L 3634 531
L 3634 0
L 628 0
L 628 4666
z
" transform="scale(0.015625)"/>
      </defs>
      <use xlink:href="#DejaVuSans-51"/>
      <use xlink:href="#DejaVuSans-6f" x="78.710938"/>
      <use xlink:href="#DejaVuSans-45" x="139.892578"/>
     </g>
    </g>
    <g id="patch_30">
     <path d="M 56.855 320.762188
L 76.855 320.762188
L 76.855 313.762188
L 56.855 313.762188
z
" style="fill: #70ad47; stroke: #000000; stroke-linejoin: miter"/>
    </g>
    <g id="text_16">
     <!-- Per-user QoE fairness -->
     <g transform="translate(84.855 320.762188) scale(0.1 -0.1)">
      <defs>
       <path id="DejaVuSans-50" d="M 1259 4147
L 1259 2394
L 2053 2394
Q 2494 2394 2734 2622
Q 2975 2850 2975 3272
Q 2975 3691 2734 3919
Q 2494 4147 2053 4147
L 1259 4147
z
M 628 4666
L 2053 4666
Q 2838 4666 3239 4311
Q 3641 3956 3641 3272
Q 3641 2581 3239 2228
Q 2838 1875 2053 1875
L 1259 1875
L 1259 0
L 628 0
L 628 4666
z
" transform="scale(0.015625)"/>
       <path id="DejaVuSans-2d" d="M 313 2009
L 1997 2009
L 1997 1497
L 313 1497
L 313 2009
z
" transform="scale(0.015625)"/>
       <path id="DejaVuSans-75" d="M 544 1381
L 544 3500
L 1119 3500
L 1119 1403
Q 1119 906 1312 657
Q 1506 409 1894 409
Q 2359 409 2629 706
Q 2900 1003 2900 1516
L 2900 3500
L 3475 3500
L 3475 0
L 2900 0
L 2900 538
Q 2691 219 2414 64
Q 2138 -91 1772 -91
Q 1169 -91 856 284
Q 544 659 544 1381
z
M 1991 3584
L 1991 3584
z
" transform="scale(0.015625)"/>
       <path id="DejaVuSans-73" d="M 2834 3397
L 2834 2853
Q 2591 2978 2328 3040
Q 2066 3103 1784 3103
Q 1356 3103 1142 2972
Q 928 2841 928 2578
Q 928 2378 1081 2264
Q 1234 2150 1697 2047
L 1894 2003
Q 2506 1872 2764 1633
Q 3022 1394 3022 966
Q 3022 478 2636 193
Q 2250 -91 1575 -91
Q 1294 -91 989 -36
Q 684 19 347 128
L 347 722
Q 666 556 975 473
Q 1284 391 1588 391
Q 1994 391 2212 530
Q 2431 669 2431 922
Q 2431 1156 2273 1281
Q 2116 1406 1581 1522
L 1381 1569
Q 847 1681 609 1914
Q 372 2147 372 2553
Q 372 3047 722 3315
Q 1072 3584 1716 3584
Q 2034 3584 2315 3537
Q 2597 3491 2834 3397
z
" transform="scale(0.015625)"/>
       <path id="DejaVuSans-20" transform="scale(0.015625)"/>
       <path id="DejaVuSans-66" d="M 2375 4863
L 2375 4384
L 1825 4384
Q 1516 4384 1395 4259
Q 1275 4134 1275 3809
L 1275 3500
L 2222 3500
L 2222 3053
L 1275 3053
L 1275 0
L 697 0
L 697 3053
L 147 3053
L 147 3500
L 697 3500
L 697 3744
Q 697 4328 969 4595
Q 1241 4863 1831 4863
L 2375 4863
z
" transform="scale(0.015625)"/>
       <path id="DejaVuSans-61" d="M 2194 1759
Q 1497 1759 1228 1600
Q 959 1441 959 1056
Q 959 750 1161 570
Q 1363 391 1709 391
Q 2188 391 2477 730
Q 2766 1069 2766 1631
L 2766 1759
L 2194 1759
z
M 3341 1997
L 3341 0
L 2766 0
L 2766 531
Q 2569 213 2275 61
Q 1981 -91 1556 -91
Q 1019 -91 701 211
Q 384 513 384 1019
Q 384 1609 779 1909
Q 1175 2209 1959 2209
L 2766 2209
L 2766 2266
Q 2766 2663 2505 2880
Q 2244 3097 1772 3097
Q 1472 3097 1187 3025
Q 903 2953 641 2809
L 641 3341
Q 956 3463 1253 3523
Q 1550 3584 1831 3584
Q 2591 3584 2966 3190
Q 3341 2797 3341 1997
z
" transform="scale(0.015625)"/>
       <path id="DejaVuSans-69" d="M 603 3500
L 1178 3500
L 1178 0
L 603 0
L 603 3500
z
M 603 4863
L 1178 4863
L 1178 4134
L 603 4134
L 603 4863
z
" transform="scale(0.015625)"/>
       <path id="DejaVuSans-6e" d="M 3513 2113
L 3513 0
L 2938 0
L 2938 2094
Q 2938 2591 2744 2837
Q 2550 3084 2163 3084
Q 1697 3084 1428 2787
Q 1159 2491 1159 1978
L 1159 0
L 581 0
L 581 3500
L 1159 3500
L 1159 2956
Q 1366 3272 1645 3428
Q 1925 3584 2291 3584
Q 2894 3584 3203 3211
Q 3513 2838 3513 2113
z
" transform="scale(0.015625)"/>
      </defs>
      <use xlink:href="#DejaVuSans-50"/>
      <use xlink:href="#DejaVuSans-65" x="56.677734"/>
      <use xlink:href="#DejaVuSans-72" x="118.201172"/>
      <use xlink:href="#DejaVuSans-2d" x="152.939453"/>
      <use xlink:href="#DejaVuSans-75" x="189.023438"/>
      <use xlink:href="#DejaVuSans-73" x="252.402344"/>
      <use xlink:href="#DejaVuSans-65" x="304.501953"/>
      <use xlink:href="#DejaVuSans-72" x="366.025391"/>
      <use xlink:href="#DejaVuSans-20" x="407.138672"/>
      <use xlink:href="#DejaVuSans-51" x="438.925781"/>
      <use xlink:href="#DejaVuSans-6f" x="517.636719"/>
      <use xlink:href="#DejaVuSans-45" x="578.818359"/>
      <use xlink:href="#DejaVuSans-20" x="642.001953"/>
      <use xlink:href="#DejaVuSans-66" x="673.789062"/>
      <use xlink:href="#DejaVuSans-61" x="708.994141"/>
      <use xlink:href="#DejaVuSans-69" x="770.273438"/>
      <use xlink:href="#DejaVuSans-72" x="798.056641"/>
      <use xlink:href="#DejaVuSans-6e" x="837.419922"/>
      <use xlink:href="#DejaVuSans-65" x="900.798828"/>
      <use xlink:href="#DejaVuSans-73" x="962.322266"/>
      <use xlink:href="#DejaVuSans-73" x="1014.421875"/>
     </g>
    </g>
    <g id="patch_31">
     <path d="M 56.855 335.440313
L 76.855 335.440313
L 76.855 328.440313
L 56.855 328.440313
z
" style="fill: #ed7d31; stroke: #000000; stroke-linejoin: miter"/>
    </g>
    <g id="text_17">
     <!-- Soft CSR -->
     <g transform="translate(84.855 335.440313) scale(0.1 -0.1)">
      <defs>
       <path id="DejaVuSans-74" d="M 1172 4494
L 1172 3500
L 2356 3500
L 2356 3053
L 1172 3053
L 1172 1153
Q 1172 725 1289 603
Q 1406 481 1766 481
L 2356 481
L 2356 0
L 1766 0
Q 1100 0 847 248
Q 594 497 594 1153
L 594 3053
L 172 3053
L 172 3500
L 594 3500
L 594 4494
L 1172 4494
z
" transform="scale(0.015625)"/>
       <path id="DejaVuSans-43" d="M 4122 4306
L 4122 3641
Q 3803 3938 3442 4084
Q 3081 4231 2675 4231
Q 1875 4231 1450 3742
Q 1025 3253 1025 2328
Q 1025 1406 1450 917
Q 1875 428 2675 428
Q 3081 428 3442 575
Q 3803 722 4122 1019
L 4122 359
Q 3791 134 3420 21
Q 3050 -91 2638 -91
Q 1578 -91 968 557
Q 359 1206 359 2328
Q 359 3453 968 4101
Q 1578 4750 2638 4750
Q 3056 4750 3426 4639
Q 3797 4528 4122 4306
z
" transform="scale(0.015625)"/>
       <path id="DejaVuSans-52" d="M 2841 2188
Q 3044 2119 3236 1894
Q 3428 1669 3622 1275
L 4263 0
L 3584 0
L 2988 1197
Q 2756 1666 2539 1819
Q 2322 1972 1947 1972
L 1259 1972
L 1259 0
L 628 0
L 628 4666
L 2053 4666
Q 2853 4666 3247 4331
Q 3641 3997 3641 3322
Q 3641 2881 3436 2590
Q 3231 2300 2841 2188
z
M 1259 4147
L 1259 2491
L 2053 2491
Q 2509 2491 2742 2702
Q 2975 2913 2975 3322
Q 2975 3731 2742 3939
Q 2509 4147 2053 4147
L 1259 4147
z
" transform="scale(0.015625)"/>
      </defs>
      <use xlink:href="#DejaVuSans-53"/>
      <use xlink:href="#DejaVuSans-6f" x="63.476562"/>
      <use xlink:href="#DejaVuSans-66" x="124.658203"/>
      <use xlink:href="#DejaVuSans-74" x="158.113281"/>
      <use xlink:href="#DejaVuSans-20" x="197.322266"/>
      <use xlink:href="#DejaVuSans-43" x="229.109375"/>
      <use xlink:href="#DejaVuSans-53" x="298.933594"/>
      <use xlink:href="#DejaVuSans-52" x="362.410156"/>
     </g>
    </g>
   </g>
  </g>
 </g>
 <defs>
  <clipPath id="p9ce733de06">
   <rect x="47.855" y="10.8" width="603.025" height="335.72"/>
  </clipPath>
 </defs>
</svg>
